<?xml version="1.0" encoding="UTF-8"?>
<svg id="Laag_2" data-name="Laag 2" xmlns="http://www.w3.org/2000/svg" viewBox="0 0 124.56 135.25">
  <defs>
    <style>
      .cls-1 {
        fill: #f9efd8;
      }

      .cls-1, .cls-2, .cls-3, .cls-4, .cls-5, .cls-6, .cls-7, .cls-8, .cls-9, .cls-10, .cls-11, .cls-12, .cls-13, .cls-14, .cls-15, .cls-16 {
        stroke-width: 0px;
      }

      .cls-2 {
        fill: #7d251a;
      }

      .cls-3 {
        fill: #6d5449;
      }

      .cls-4 {
        fill: #403935;
      }

      .cls-5 {
        fill: #171f1b;
      }

      .cls-6 {
        fill: #d5c3a3;
      }

      .cls-7 {
        fill: #ac2e25;
      }

      .cls-8 {
        fill: #ce974f;
      }

      .cls-9 {
        fill: #9d5939;
      }

      .cls-10 {
        fill: #8bb34a;
      }

      .cls-11 {
        fill: #8c6632;
      }

      .cls-12 {
        fill: #bad9dd;
      }

      .cls-13 {
        fill: #996549;
      }

      .cls-14 {
        fill: #7cbbcc;
      }

      .cls-15 {
        fill: #ebddc2;
      }

      .cls-16 {
        fill: #fefefe;
      }
    </style>
  </defs>
  <g id="Laag_1-2" data-name="Laag 1">
    <g>
      <path class="cls-8" d="m124.56,51.04v81.26c-1.67.23-2.73-.1-2.03-2.14.05-.15.04-.34,0-.49-.43-1.29-.08-2.28.95-3.19.83-.74.44-1.35-.56-1.6-.02-3.83.15-7.67-.1-11.48-.44-6.54-.35-13.09-.13-19.62.19-5.52.05-10.96-1.49-16.26-3.01-10.37-9.35-18.14-20.92-19.19-.41-1.73-1.34-1.29-2.35-.57-.79.36-1.63.24-2.46.27-7.36.22-13.19,3.54-17.63,9.21-4.64,5.94-6.4,12.98-6.5,20.37-.16,11.26-.06,22.53-.07,33.8,0,1.11.06,2.22.09,3.32-.28.33-.91.02-1.05.59-.08.54-.39,1.17.53,1.31.14.22.29.44.43.66-.25.1-.5.23-.76.3-.47.14-1.21-.12-1.2.75,0,.75.63.6,1.09.65.7.09.87.56.86,1.16,0,.71,0,1.42,0,2.13-.98-.01-1.96-.02-2.94-.03.24-.1.48-.24.73-.3.56-.13.93-.43.8-1.03-.12-.57-.55-.56-1.04-.43-.85.22-.87-.36-.89-.96-.02-.65.18-1.33-.26-1.92.12-.18.21-.43.38-.51.64-.32,1.38-.52,1.33-1.46-.05-1.01-1.08-.54-1.5-.99.01-11.74.03-23.49.03-35.23,0-3.77-.42-7.49-1.3-11.16-1.24-5.16-3.47-9.85-7.28-13.57-4.68-4.56-10.48-6.63-17-6.7-.67-.85-2.12-1.63-.2-2.7.23-.13.11-.51-.16-.7-.36-.25-.76-.28-1.06.04-1.24,1.32-2.99,2.11-3.93,3.74-2.69.84-5.48,1.42-7.86,3.02-8.2,5.52-11.55,13.74-12.41,23.12-.72,7.78-.36,15.6-.38,23.41-.01,5.65-.02,11.31-.03,16.96-.11.12-.22.24-.33.36-.2,0-.4,0-.6,0-.11-4.66-.29-9.31-.31-13.97-.05-11.87-.37-23.74-.7-35.6-.2-7.21-.31-14.42-.51-21.63-.08-3.07.11-3.34,3.18-3.33,26.19.06,52.38.12,78.58.17,8.99.02,17.98,0,26.97,0,.66,0,1.32.08,1.98.12Zm-11.36,6.26c.94-.22,1.76-.7,2.28-1.63.18-.32.56-.62.18-1-.39-.39-.96-.45-1.36-.14-.67.51-.97,1.44-1.89,1.72-.08.02-.12.41-.06.58.12.35.43.47.85.46Zm-40.08.02c.51-.04,1.08-.09,1.1-.74.02-.77-.6-.83-1.17-.82-.53.01-1.05.17-1.02.82.03.65.55.75,1.09.73Zm43.12.01c-.56,0-1.18.01-1.27.74-.08.66.49.82.98.87.59.06,1.14-.15,1.24-.82.11-.71-.41-.79-.95-.79Zm-5.97-1.33c.51-.1,1.17-.11,1.22-.8.05-.64-.51-.79-1.03-.74-.53.05-1.17.1-1.16.85,0,.56.49.64.97.69Zm-40.36,2.13c.04-.62-.32-.88-.79-.88-.54,0-1.15.08-1.27.77-.11.64.34.91.87.92.57.02,1.06-.21,1.19-.81Zm-44.91-2.14c.5-.04.96-.2.91-.75-.06-.61-.61-.75-1.11-.75-.52,0-1.05.26-.97.86.09.6.72.56,1.17.64Zm50.9,1.35c-.38.02-.87.15-.93.78-.06.55.3.84.79.83.56-.02,1.12-.19,1.16-.9.03-.6-.39-.71-1.02-.7Zm2.39-1.39c.32-.17.93-.15.91-.82-.02-.55-.45-.69-.91-.7-.53,0-1,.15-1,.79,0,.54.4.71,1,.73Zm-31.06,1.04c-.02-.65-.49-.64-.93-.65-.49,0-1.1-.04-1.18.59-.09.68.49.76,1,.77.52,0,.99-.1,1.11-.71Zm73.59.03c.03-.51-.3-.66-.72-.67-.47-.01-1.06-.13-1.19.53-.11.53.22.81.75.81.51,0,.98-.08,1.16-.67Zm-35.56-.06c-.05-.61-.5-.63-.96-.62-.47.02-.93.14-.9.71.03.57.51.64.97.63.49,0,.87-.15.88-.73Z"/>
      <path class="cls-4" d="m71.27,127.3c-.14-.22-.29-.44-.43-.66.81-.52,1.66-.26,2.53-.15,2,.24,4.01.38,5.99-.2,1.81.28,3.62.51,5.45.23,1.83.23,3.67.13,5.51.08,1.29,0,2.58,0,3.87.01.66.11,1.32.21,1.99.32.73.33,1.46.69,2.05-.23,5.46-.03,10.92-.06,16.38-.08,2.55-.13,5.13.33,7.89-.41-1.1-.41-2.13.13-2.9-.6,0-.19-.01-.38-.02-.57,1.06-.42.99-1.33.98-2.23,0-10.98,0-21.96,0-32.94,0-5.32-1.16-10.38-3.34-15.24-6.36-14.19-22.39-15.97-32.33-9.87-6.35,3.89-9.22,10.22-10.92,17.17-1.3,5.34-.84,10.8-.94,16.21-.15,8.09.04,16.19.09,24.28.01,2.41.25,2.64,2.7,2.58.28,0,.55-.06.82-.09.1.04.2.09.29.14,0,.08.02.17.02.25-2.21.02-4.42.04-6.63.07.14-.57.77-.26,1.05-.59,1.25-.14.86-1.06.85-1.79,0-2.64,0-5.29,0-7.93,0-6.68,0-13.36,0-20.04,0-2.09,0-4.18,0-6.27-.01-3.58.64-7.05,1.75-10.43,1.63-4.96,3.88-9.54,8.08-12.91,3.77-3.03,8.14-4.28,12.88-4.77,4.72-.49,9.22.15,13.28,2.56,8.32,4.93,11.99,12.75,12.99,22,.61,5.57.35,11.19.35,16.79,0,7.1-.02,14.2-.05,21.31,0,1,.09,1.83,1.42,1.63,1,.26,1.39.86.56,1.6-1.03.92-1.38,1.9-.95,3.19.05.15.06.34,0,.49-.71,2.03.36,2.37,2.03,2.14v2c-1.77.1-3.62-.5-5.25.74-.41.31-.87-.03-1.27-.15-2.36-.72-4.76-.99-7.21-.84-4.26.26-8.5.49-12.78.09-1.76-.16-3.76-.46-5.32.98-.3.28-.62.03-.92-.07-2.61-.9-5.31-1.11-8.03-.96-3.76.21-7.52.45-11.29.17-2.5-.19-5.03-.52-7.36.83-.3.17-.55,0-.77-.13-1.36-.83-2.86-.83-4.35-.73-2.22.14-4.43.02-6.64,0-2.16-.02-4.32.15-6.48.16-2.22.01-4.6-.6-6.61.03-2.29.73-4.18-.22-6.24-.29-.06,0-.11-.02-.17-.02-6.28.18-12.57.31-18.86.21-.98-.02-1.55-.32-1.55-1.25.01-1.78-.41-3.52-.45-5.28-.14-6.48-.18-12.97-.26-19.46-.13-9.54-.28-19.07-.38-28.61-.01-1.47-.5-2.1-2.04-2.06-3.44.08-6.88.02-10.32.02v-.67c.67-.21.74-.89,1.02-1.38,2.81-4.82,5.37-9.8,8.45-14.44,1.82-2.74,2.43-5.48,2.28-8.59-.06-1.19-.5-1.65-1.73-1.6-2.18.09-4.37.02-6.64.02.1-.33.13-.49.19-.64,3.58-8.78,7.18-17.57,10.74-26.36.4-.99,1.09-1.24,2.08-1.24,4.65.01,9.31.02,13.96-.06,4.96-.08,9.91-.27,15.04-.41-.29-.73-.53-1.33-.76-1.93.25-.56.74-.68,1.29-.69-.02,1.03.15,1.98,1.04,2.64.76.56,1.35.12,1.9-.36.39-.33.55-.88,0-1.07-1.22-.4-.63-.75-.1-1.25.29-.28-.03-.61-.1-.92.28,0,.56-.04.83,0,3.02.45,6.01.71,8.92-.64.55-.25,1.17-.05,1.74.25,2.27,1.17,4.66,1.28,7.05.51,1.97-.63,3.86-.8,5.73.25-.04.46.11.86.34,1.25-.21.44-.45.88-.62,1.33-.63,1.69-.62,1.69,1.24,1.7,5.24.02,10.48.04,15.71.06-.19.09-.37.25-.57.27-4.36.37-8.73.39-13.11.39-19.45,0-38.9,0-58.35-.02-1.06,0-1.59.37-1.97,1.35-1.14,2.99-2.37,5.96-3.56,8.93-.92,2.44-1.84,4.88-2.76,7.31-1.34,1.95-1.6,4.33-2.54,6.44-.02.08,0,.16.02.23-.68.66-.38,1.1.37,1.29.47.12.99.05,1.49.05,16.97,0,33.93,0,50.9,0,21.68,0,43.36.01,65.04.02v1.33c-.66-.04-1.32-.12-1.98-.12-8.99,0-17.98,0-26.97,0-26.19-.05-52.38-.11-78.58-.17-3.07,0-3.26.26-3.18,3.33.2,7.21.31,14.42.51,21.63.33,11.87.65,23.73.7,35.6.02,4.66.2,9.31.31,13.97-.08.53-.03.99.64,1.07-.59,2.05-1.24,4.1.31,6.03.43.34.88.75,1.44.4.34-.21.2-.56-.07-.82,0-.22.01-.44.02-.65.57-.09.56-.53.62-.97.17-1.28-.32-2.43-.66-3.62,4.45-.05,8.9-.09,13.36-.14,3.53-.02,7.07.32,10.59-.31.69-.97-.09-.9-.69-.96-1.3-.13-2.64.29-3.92-.25,3.39-.3,6.78-.15,10.17-.09,2.17.04,4.36-.32,6.51.23-.65.82-1.57.52-2.32.4-2.21-.37-4.42-.24-6.63-.25-.56,0-1.49-.31-1.6.41-.13.93.91.43,1.39.68.28.15.64.17.97.19,6.18.43,12.37.34,18.55-.05,1.4-.09,2.92.02,4.24-.71-1.53-1.06-3.29.12-4.82-.64q2.8-.88,2.8-3.94c0-10.1-.02-20.2.01-30.3,0-2.78-.15-5.54-.71-8.26-1-4.81-2.7-9.34-5.77-13.25-4.01-5.1-9.35-7.52-15.8-7.83-7.92-.39-14.45,2.14-19.18,8.69-3.88,5.37-5.43,11.52-5.9,18.02-.4.48-.25,1.06-.25,1.6-.02,10.93-.02,21.85-.02,32.78,0,.54-.15,1.12.27,1.59.09.71.62.59,1.1.63.98.07,1.98-.22,2.96.1,0,.08,0,.16,0,.24-2.34,0-4.67,0-7.01-.01.11-.12.22-.24.33-.36,1.58.24,1.66-.76,1.66-1.94-.01-10.93.06-21.86-.03-32.78-.03-3.18.33-6.26,1.05-9.35,2.53-10.79,9.45-19.18,21.03-20.29,6.95-.67,13.26,1.07,18.41,5.86,6.12,5.69,8.55,13.18,8.76,21.24.31,11.7.09,23.41.11,35.11,0,.68-.27,1.48.59,1.92.42.45,1.45-.02,1.5.99.05.93-.7,1.13-1.33,1.46-.17.09-.26.34-.38.51-.4.88-.45,1.81-.39,2.75.05.78-.13,1.72,1.05,1.89.98.01,1.96.02,2.94.03.7.57.93-.01.95-.49.09-1.57.27-3.19-.95-4.5ZM5.95,70.96c-.1.13-.2.26-.29.38-1.19,1.15-1.74,2.66-2.39,4.11-.32.72-.01.89.63.89,2.22,0,4.44.03,6.66-.03,1.25-.03,1.9-.7,1.81-2.05-.17-2.76-.28-5.52-.42-8.28.01-1.49.03-2.97.03-4.46,0-.26.07-.58-.23-.72-.29-.14-.56-.03-.69.25-.74,1.57-2.08,2.84-2.38,4.64-1.1,1.47-2.06,3.02-2.39,4.87-.11.13-.22.26-.33.39Zm94.62,58.78c.61-.75.26-1.56.11-2.36-.15.35-.3.69-.45,1.04-2.09-.95-4.29-.39-6.42-.32-.81.03-.83.98-.2,1.62,0,.19,0,.38-.01.57-.53,1.46-.24,2,1.21,1.96,1.27-.03,2.54-.09,3.82,0,1.28.1,1.9-.49,1.46-1.83.16-.04.32-.08.49-.12v2.6c.21-.89.65-1.8.02-2.63,0-.18,0-.36,0-.54Zm-36.65-1.69c-.68-.08-1.38-.24-1.95.33-1.02-.09-2.04-.17-3.06-.26-3.26-.05-6.52-.09-9.79-.14-.67-.01-1.29.14-1.27.94.02.91.8.57,1.27.58,1.38.02,2.76-.04,4.14-.07,1.24.02,2.48.04,3.71.06.88.05,1.75.1,2.63.15,1.39.7,2.87.14,4.3.33l-.03.43c-.48.02-.96.04-1.44.07-.16.02-.32.05-.48.07-4.45,0-8.91,0-13.36,0-.14-.05-.27-.1-.41-.15-.41.73-.8,1.46.42,1.81,4.56,0,9.11,0,13.67,0,.54,0,1.08-.01,1.61-.02.11.38-.11,1.01.52,1.04.67.03.51-.59.52-.98.02-1.37.01-2.73,0-4.1,0-.32,0-.7-.46-.72-.45-.02-.49.34-.55.66Zm-18.01-.06c-1.77-.01-3.55-.03-5.32-.04-.55,0-1.2-.04-1.24.74-.04.84.57.94,1.24.93,1.77-.02,3.55-.01,5.32-.02.02.88.03,1.77.06,2.65,0,.28.07.58.42.61.46.05.54-.3.55-.64,0-1.33.06-2.65-.02-3.97-.05-.77-.52-.73-1-.27Zm22.01-106.25c-1.75-1.84-3.95-.99-5.96-.87-.86.05-.93,1.21-.99,2.15,2.05,0,4.04-.01,6.03,0,.55,0,.97-.13,1.22-.65.49.03,1.02-.02,1.48.11,1.31.39,1.68-.55,2.02-1.41.4-1-.19-1.74-.99-2.19-.67-.37-1.59-.29-1.93.4-.52,1.04.78.54,1.05.97.06.09.09.19.23.47-.99-.14-1.6.4-2.18,1.01Zm19.36,108.32c-.01-.22-.03-.44-.04-.67,1.05,0,2.09.02,3.14-.05.45-.03,1.3.31,1.2-.62-.09-.79-.89-.88-1.44-.68-1.21.43-2.38.18-3.58.07-2.98,0-5.96-.01-8.94-.02-.83.37-2.35-.57-2.4,1.27-.92-.04-.37-1.21-1.26-1.5,0,1.5,0,2.91,0,4.33,0,.33.09.74.55.63.36-.08.23-.41.16-.68-.16-.65-.29-1.31.21-1.89.39.1.41.43.48.74-.36,1.17.34,1.31,1.24,1.3,4.48-.02,8.96-.06,13.44-.03,1.44,0,1.63-.55,1.02-1.69.05-.08.12-.17.16-.26,0-.02-.06-.1-.1-.1-1.28-.06-2.56-.11-3.84-.16Zm16.27-.37c-.21.6-1.13-.13-1.24.65-.52.97-.61,1.56.86,1.7,4.15.4,8.29.08,12.43,0,1.14-.02,1.98-.75,2.61-1.69-.51-.62-1.21-.27-1.83-.36-1.15-.17-2.37.36-3.48-.32.74-.55,1.59-.13,2.38-.26,1.05-.18,2.19.4,3.16-.39,1.37.78.46,2.21.95,3.34.15-.72.47-1.39.36-1.98-.17-.96.11-2.37-1.58-2.37-4.71-.01-9.41-.05-14.12-.02-.75,0-1.88-.45-2.11.69-.26,1.3,1.33.24,1.61,1.02Zm-73.61,2.57c1.77,0,3.54.03,5.31-.01.87-.02,2.05.34,2.07-1.18.02-1.54-1.2-1.01-1.94-1-4.42.09-8.83.37-13.24-.09-.88-.09-1.06.37-1.18,1-.16.82.29,1,1.03,1.07,2.65.27,5.3.19,7.95.2Zm-.94-2.92v-.03c2.38,0,4.76-.01,7.14,0,.58,0,.96-.13,1-.79.03-.68-.33-.81-.93-.81-4.7-.01-9.41-.05-14.11-.07-.6,0-1.32-.01-1.25.9.07.84.71.81,1.34.81,2.27-.02,4.54,0,6.81,0ZM53.31,20.16c-.77.08-1.55.08-2.3.25-.72.17-1.13.78-1.08,1.49.07.91.85.44,1.29.46,1.44.06,2.88.05,4.32,0,.38-.01.97.31,1.11-.33.11-.5-.14-.98-.51-1.34-.83-.82-1.85-.53-2.83-.54Zm-11.09,110.15c-.83,0-1.65.01-2.48,0-.58-.01-1,.25-1.07.8-.09.65.36,1.08.96,1.1,1.65.06,3.3.06,4.94,0,.58-.02,1.06-.39.99-1.08-.06-.59-.47-.82-1.03-.82-.77,0-1.54,0-2.31,0ZM58.88,20.71c-.5.15-1.42-.23-1.45.79-.02.62.51.94,1.16.89.71-.05,1.57,0,1.62-.99.04-.86-.74-.59-1.33-.69Zm-38.73,107.29c-.16,0-.31,0-.47,0,.11,1.63-.36,3.3.47,4.92v-4.92Z"/>
      <path class="cls-7" d="m12.04,34.36c1.19-2.97,2.42-5.94,3.56-8.93.37-.98.91-1.35,1.97-1.35,19.45.03,38.9.01,58.35.02,4.37,0,8.75-.02,13.11-.39.19-.02.38-.17.57-.27.85-.02,1.71-.03,2.56-.05.98.17,2.2-.4,2.76,1.04.15.4.68.11,1-.11.67-.33,1.4-.3,2.12-.26,6.47.33,12.94.34,19.42.34,1.51,0,2.97-.22,4.42-.58.74.94,1.78.43,2.69.56v6.99c-1.42.05-2.79.27-4.19.53-3.44.64-6.97.86-10.44,1.43-4.21.69-8.46,1.25-12.77,1.2.05.75,1.27.51.86,1.26-.26.48-.93.26-1.39.22-3.12-.24-6.24-.06-9.36.02-1.14-.73-2.27-.21-3.41.03-1.75,0-3.51,0-5.26-.01-.31.1-.62.26-.94.29-4.35.36-8.7.67-13.06.69-1.32-.8-2.64-.09-3.96.02-.75.41-1.57.33-2.37.27-1.64-.62-3.33-.18-5-.25-2.21,0-4.42,0-6.63,0-2.77,0-5.55-.01-8.32-.02-4.2,1.15-8.54.49-12.8.89-2.09.2-4.21.52-6.34.37-1.97-.14-3.97.23-5.95-.36,3.76-.23,7.52-.35,11.2-1.29-1.94-.44-3.89-.65-5.82-.99-2.2-.39-4.53-.19-6.57-1.35Z"/>
      <path class="cls-2" d="m6.73,48.11c.94-2.11,1.2-4.49,2.54-6.44,0,0,.12.08.12.08.34.4.81.29,1.24.3,3.91.13,7.83.25,11.74.37.36.36.82.26,1.25.26,6.79,0,13.57,0,20.36,0,.43,0,.89.1,1.25-.27,7.03-.23,14.07-.13,21.11-.29,19.4-.44,38.82.3,58.23-.43v3.66c-14.55,0-29.11,0-43.66.03-.64,0-1.33-.22-1.92.26H14.69c0,.13,0,.26,0,.39,7.57,0,15.13,0,22.7,0,15.53,0,31.06,0,46.59,0,13.52,0,27.05-.07,40.57.32v1.67h-23.91c0,.11,0,.22,0,.33h23.91v1.33c-21.68,0-43.36-.02-65.04-.02-16.97,0-33.93,0-50.9,0-.5,0-1.02.07-1.49-.05-.76-.19-1.05-.63-.37-1.29,15.47,0,30.93,0,46.4,0-1.88-.28-3.76-.29-5.64-.28-13.6.02-27.19.03-40.79.05Zm90.85-.18c0-.11,0-.22,0-.32h-41.97c0,.11,0,.22,0,.32h41.97Z"/>
      <path class="cls-2" d="m12.04,34.36c2.04,1.16,4.37.96,6.57,1.35,1.93.34,3.88.55,5.82.99-3.68.95-7.44,1.07-11.2,1.29,1.98.6,3.98.23,5.95.36,2.13.15,4.25-.18,6.34-.37,4.26-.41,8.6.26,12.8-.89.26.41.68.31,1.04.31,2.42,0,4.83-.02,7.25-.03,2.23.62,4.47.44,6.7,0,1.65,0,3.3-.02,4.96-.02.81.06,1.62.14,2.37-.27,1.32.62,2.64.3,3.96-.02,4.36-.03,8.71-.33,13.06-.69.32-.03.63-.19.94-.29,1.73.69,3.51.13,5.26.25,1.16.21,2.27-.11,3.4-.27,3.12-.08,6.24-.26,9.36-.02.47.04,1.13.26,1.39-.22.41-.75-.81-.52-.86-1.26,4.32.05,8.56-.51,12.77-1.2,3.48-.57,7-.8,10.44-1.43,1.4-.26,2.77-.48,4.19-.53v3c-6.58-.24-13.14.39-19.72.31-.17,0-.33,0-.5.01-.34.03-.7.1-.67.54.03.45.43.46.75.44.82-.05,1.59-.48,2.44-.28,1.87.69,3.8.2,5.7.3,1.89-.05,3.79.14,5.66-.33,1.15.05,2.27-.68,3.42-.24,1.01.39,1.95.18,2.91-.1v5.99c-2.99.01-5.98.21-8.96.26-18.69.31-37.39-.2-56.08.33-10.43.3-20.87.06-31.3.07-6.27,0-12.54.03-18.81.04,0,0-.12-.08-.12-.08.92-2.44,1.84-4.88,2.76-7.31Z"/>
      <path class="cls-10" d="m72.92,19.11c-1.87-1.05-3.77-.88-5.73-.25-2.4.77-4.78.66-7.05-.51-.58-.3-1.2-.5-1.74-.25-2.9,1.35-5.9,1.09-8.92.64-.27-.04-.55,0-.83,0-1.02-.85-1.91-.48-2.75.31-2.13,0-4.26-.02-6.4.02-1.62.03-2.87-.53-3.66-1.99.02-1.92.03-3.84.05-5.76.34.02.68.04,1.01.06.47.58,1.13.32,1.7.33,2.86.03,5.73.03,8.59.04,0,.26,0,.53,0,.79-.27.69-.5,1.39-.82,2.06-.33.71.05.82.61.86-.03.35-.6.44-.5.87h5.6c-.92-1.57-.44-3.14-.33-4.69,2.49.03,4.98.05,7.47.08-.03,1.33.54,2.71-.4,3.97-.42.57-.05.79.5.79,1.52.01,3.04,0,5.1,0-1.42-1.05-1.3-2.02-.92-3.05.21-.56.33-1.16.48-1.75,2.12.25,4.28-.29,6.38.29-.44,1.58-.67,3.16,1.16,4.02,1.77.83,3.6,1.15,5.35-.17.38-.29.91-.81,1.3-.33,1.38,1.69,3.06.93,4.75.85-.3-.84-.79-1.49-.65-2.32.13-.76.21-1.53.32-2.3.1-.04.2-.09.31-.13,1.22.04,2.44.09,3.66.13.01.37.02.75.03,1.12-.28.65-.54,1.3-.84,1.94-.37.81.35.55.66.7-.2.25-.4.51-.66.85h5.65c-.81-1.5-.44-3.07-.43-4.62,1.37,0,2.74.02,4.11.03.44,1.58.03,3.08-.58,4.66,1.55,0,2.98-.06,4.41.02.96.06,1-.54.73-1.02-.75-1.36-.18-2.53.33-3.74,1.52.02,3.05.04,4.57.07.31,1.3.14,2.53-.5,3.7-.03.22-.16.49-.07.64.23.4,3.06.54,3.31.14.09-.15-.13-.49-.2-.75.44-.4,1.56.51,1.46-.49-.11-1.13.23-2.16.21-3.24,2.93-.06,5.86-.12,8.79-.18,1.58.63,3.18,1.24,4.75,1.89.59.24,1,.68.97,1.39-.03.75-.7.74-1.16.95-1.12.51-2.14.22-3.12-.43-.66-.44-1.21-1.1-2.07-1.27-.41,2.24-.4,2.14,1.6,2.43,2.07.3,4.06-.08,6.07-.43v3c-1.97-.02-3.93-.04-5.9-.05-1.92-1.58-2.51-1.58-4.52,0-.65-.14-1.29-.16-1.97-.1-1.88.17-3.79.24-5.57-.54-1-.44-1.88-.4-2.88-.04-2.82,1.02-5.64,1.02-8.43-.15-.73-.31-1.46-.48-2.22,0-1.12.71-2.39.8-3.68.81-5.49.03-10.98.08-16.47.12Z"/>
      <path class="cls-4" d="m35.08,3.4c.32-2.24,1.04-3,3.23-3.4.66.02,1.33.06,1.99.06,28.08.01,56.17.02,84.25.03v1.33c-1.66.01-3.32.02-4.98.03-.13,0-.25,0-.38,0-.21-.07-.42-.2-.62-.19-4.56.05-9.12.12-13.67.18-.19-.04-.37-.07-.56-.11-.63-.38-1.29-.02-1.92-.02-6.5.02-13.01.09-19.51.15-.22,0-.43,0-.65,0-3.12,0-6.23-.02-9.35-.02-.21-.01-.41-.02-.62-.03-.33-.17-.66-.13-.99-.01-3.46.04-6.92.08-10.38.12-.22-.02-.43-.04-.65-.06-6.89,0-13.78,0-20.67,0-1.85-.4-3.07.42-3.92,1.99-.2-.01-.4-.03-.6-.04Z"/>
      <path class="cls-7" d="m9.4,41.76c6.27-.01,12.54-.03,18.81-.04,10.44-.01,20.88.22,31.3-.07,18.7-.53,37.39-.02,56.08-.33,2.98-.05,5.97-.25,8.96-.26v.67c-19.41.72-38.82-.01-58.23.43-7.04.16-14.07.06-21.11.29-7.62,0-15.24,0-22.86,0-3.91-.12-7.83-.25-11.74-.37-.43-.01-.9.1-1.24-.3Z"/>
      <path class="cls-7" d="m124.56,46.38c-13.52-.4-27.04-.33-40.57-.32-15.53,0-31.06,0-46.59,0-7.57,0-15.13,0-22.7,0,0-.13,0-.26,0-.39,21.43,0,42.85,0,64.28,0,.78,0,1.55.02,2.33.02,14.42,0,28.84.02,43.26.03v.67Z"/>
      <path class="cls-12" d="m119.58,1.44c1.66-.01,3.32-.02,4.98-.03v9.66c-1.76-.68-4.02-.79-4.07-3.49,0-.08-.37-.15-.57-.23-.42-1.95-.38-3.93-.34-5.91Z"/>
      <path class="cls-4" d="m121.87,23.83c-1.45.36-2.91.58-4.42.58-6.48,0-12.95-.01-19.42-.34-.71-.04-1.44-.08-2.12.26-.02-.47.47-.58.66-.9,1.03-.23,2.06-.09,3.09-.09,1.17,0,2.39.37,3.51-.31,1.4.03,2.79-1.09,4.2-.04,1.97-.14,3.94-.33,5.92-.11.84.09,1.09-.34.79-1.11,1.4.31,2.79.62,4.19.93,2.05.83,4.21-.21,6.28.36v.33c-.9.13-1.89-.31-2.69.44Z"/>
      <path class="cls-7" d="m106.87,35.42c-.85-.2-1.63.23-2.44.28-.32.02-.72,0-.75-.44-.03-.45.33-.51.67-.54.16-.02.33-.02.5-.01,6.57.08,13.14-.56,19.72-.31v.67c-.96.28-1.89.49-2.91.1-1.15-.44-2.27.29-3.42.24-.37-.48-.91-.27-1.39-.33-1.45-.19-2.84.35-4.27.34-1.9,0-3.8.01-5.7.02Z"/>
      <path class="cls-9" d="m124.56,45.71c-14.42,0-28.84-.02-43.26-.03-.78,0-1.55-.02-2.33-.02.59-.48,1.28-.26,1.92-.26,14.55-.02,29.11-.02,43.66-.03v.33Z"/>
      <path class="cls-5" d="m124.56,20.4c-.54,0-1.09-.03-1.63-.02-1.76.03-3.71-.45-4.7,1.71.02-1.02.04-2.05-.38-3.02.27-.02.54-.04.81-.06,1.97.02,3.93.04,5.9.05v1.33Z"/>
      <path class="cls-9" d="m124.56,48.37h-23.91c0-.11,0-.22,0-.33h23.91v.33Z"/>
      <path class="cls-16" d="m121.87,23.83c.8-.75,1.79-.31,2.69-.44v1c-.91-.13-1.95.38-2.69-.56Z"/>
      <path class="cls-9" d="m67.88,124.67c-.86-.44-.59-1.23-.59-1.92-.02-11.7.21-23.42-.11-35.11-.22-8.06-2.64-15.55-8.76-21.24-5.15-4.79-11.46-6.52-18.41-5.86-11.59,1.11-18.51,9.5-21.03,20.29-.72,3.09-1.08,6.17-1.05,9.35.09,10.93.02,21.86.03,32.78,0,1.18-.08,2.17-1.66,1.94,0-5.65.01-11.31.03-16.96.02-7.81-.34-15.63.38-23.41.86-9.38,4.21-17.61,12.41-23.12,2.38-1.6,5.18-2.18,7.86-3.02,1.82.4,3.64.8,5.35-.38,6.52.08,12.32,2.14,17,6.7,3.81,3.71,6.04,8.41,7.28,13.57.88,3.67,1.3,7.39,1.3,11.16,0,11.74-.02,23.49-.03,35.23Z"/>
      <path class="cls-9" d="m122.92,124.88c-1.33.21-1.43-.63-1.42-1.63.03-7.1.05-14.2.05-21.31,0-5.6.26-11.22-.35-16.79-1.01-9.25-4.68-17.07-12.99-22-4.07-2.41-8.56-3.05-13.28-2.56-4.73.49-9.1,1.75-12.88,4.77-4.2,3.37-6.45,7.95-8.08,12.91-1.11,3.38-1.76,6.85-1.75,10.43-.45,2.09-.46,4.18,0,6.27,0,6.68,0,13.36,0,20.04-.45,2.64-.45,5.29,0,7.93,0,.73.4,1.65-.85,1.79-.03-1.11-.09-2.22-.09-3.32,0-11.27-.09-22.53.07-33.8.1-7.4,1.86-14.43,6.5-20.37,4.43-5.68,10.26-8.99,17.63-9.21.83-.02,1.67.09,2.46-.27.48,1.43,1.41,1.02,2.35.57,11.56,1.05,17.91,8.82,20.92,19.19,1.54,5.3,1.67,10.73,1.49,16.26-.22,6.53-.31,13.07.13,19.62.26,3.81.08,7.65.1,11.48Z"/>
      <path class="cls-2" d="m31.01,126.58c-4.45.05-8.9.09-13.36.14-.31-.03-.63-.05-.94-.08-.24-.1-.48-.2-.71-.3-.67-.08-.71-.54-.64-1.07.2,0,.4,0,.6,0,2.34,0,4.67,0,7.01.01,1.38.8,3.02-.08,4.4.67,1.09.9,2.52-.12,3.64.64Z"/>
      <path class="cls-11" d="m42.32,58.01c-1.71,1.18-3.53.79-5.35.38.94-1.63,2.69-2.42,3.93-3.74.3-.32.7-.29,1.06-.04.27.18.39.57.16.7-1.92,1.07-.47,1.85.2,2.7Z"/>
      <path class="cls-2" d="m79.36,126.28c-1.98.58-3.99.44-5.99.2-.86-.1-1.71-.37-2.53.15-.92-.14-.61-.77-.53-1.31,2.21-.02,4.42-.04,6.63-.07,1.12.23,2.32-.25,3.41.34-.43.08-.84.2-.99.68Z"/>
      <path class="cls-9" d="m71.27,127.3c1.22,1.31,1.03,2.93.95,4.5-.03.48-.26,1.07-.95.49,0-.71,0-1.42,0-2.13,0-.61-.16-1.08-.86-1.16-.46-.06-1.08.1-1.09-.65-.01-.87.72-.61,1.2-.75.26-.08.51-.2.76-.3Z"/>
      <path class="cls-11" d="m113.2,57.3c-.42.01-.73-.12-.85-.46-.06-.18-.02-.56.06-.58.91-.28,1.21-1.22,1.89-1.72.4-.3.97-.25,1.36.14.38.38,0,.68-.18,1-.52.92-1.34,1.4-2.28,1.63Z"/>
      <path class="cls-9" d="m68.32,132.26c-1.18-.17-1-1.11-1.05-1.89-.06-.94,0-1.87.39-2.75.44.59.24,1.27.26,1.92.02.6.05,1.18.89.96.49-.13.92-.14,1.04.43.13.6-.24.9-.8,1.03-.25.06-.49.2-.73.3Z"/>
      <path class="cls-11" d="m73.12,57.31c-.54.01-1.06-.09-1.09-.74-.03-.65.49-.81,1.02-.82.58-.01,1.2.05,1.17.82-.02.65-.59.71-1.11.74Z"/>
      <path class="cls-11" d="m116.25,57.33c.54,0,1.06.09.95.79-.1.66-.65.87-1.24.82-.49-.05-1.06-.21-.98-.87.08-.73.71-.73,1.27-.74Z"/>
      <path class="cls-11" d="m110.28,56c-.48-.05-.97-.13-.97-.69-.01-.75.63-.8,1.16-.85.52-.05,1.08.1,1.03.74-.05.69-.72.7-1.22.8Z"/>
      <path class="cls-11" d="m69.92,58.13c-.13.6-.62.83-1.19.81-.52-.02-.98-.29-.87-.92.12-.69.73-.77,1.27-.77.47,0,.83.26.79.88Z"/>
      <path class="cls-11" d="m25.01,55.98c-.45-.08-1.08-.04-1.17-.64-.09-.6.44-.86.97-.86.5,0,1.05.15,1.11.75.05.55-.4.71-.91.75Z"/>
      <path class="cls-11" d="m100.28,58.34c-.94.45-1.87.86-2.35-.57,1-.72,1.94-1.16,2.35.57Z"/>
      <path class="cls-11" d="m75.91,57.33c.63,0,1.06.1,1.02.7-.04.71-.6.89-1.16.9-.49.02-.85-.28-.79-.83.07-.62.55-.75.93-.78Z"/>
      <path class="cls-11" d="m78.3,55.94c-.6-.01-.99-.19-1-.73,0-.64.46-.8,1-.79.47,0,.9.15.91.7.02.67-.6.65-.91.82Z"/>
      <path class="cls-11" d="m47.24,56.98c-.12.61-.6.71-1.11.71-.51,0-1.09-.09-1-.77.08-.63.69-.6,1.18-.59.44,0,.91,0,.93.65Z"/>
      <path class="cls-11" d="m120.82,57.01c-.17.59-.64.68-1.16.67-.53,0-.86-.28-.75-.81.13-.66.71-.55,1.19-.53.41.01.75.16.72.67Z"/>
      <path class="cls-11" d="m85.26,56.96c-.01.59-.4.73-.88.73-.46,0-.94-.07-.97-.63-.03-.58.43-.7.9-.71.45-.02.9,0,.96.62Z"/>
      <path class="cls-15" d="m18.91,88.34c.47-6.5,2.03-12.65,5.9-18.02,4.72-6.55,11.26-9.08,19.18-8.69,6.45.32,11.79,2.73,15.8,7.83,3.06,3.9,4.77,8.43,5.77,13.25.57,2.72.72,5.48.71,8.26-.03,10.1-.01,20.2-.01,30.3q0,3.06-2.8,3.94c-3.26,0-6.52-.02-9.78-.02-2.15-.56-4.34-.2-6.51-.23-3.39-.06-6.78-.2-10.17.09-1.82.04-3.63.15-5.45.09-2.86-.1-5.72-.27-8.58-.1-.97-.32-1.97-.03-2.96-.1-.49-.03-1.02.08-1.1-.63.02-.5.07-.99.07-1.49.02-10.45.03-20.9.04-31.35,0-1.05-.07-2.09-.11-3.14Zm14.28,5.52c.17,5.11.39,10.86.54,16.62.04,1.45.6,2.14,2.08,2.14,5.71-.02,11.41.01,17.12-.02,1.65,0,2.3-.68,2.29-2.37-.03-10.64.46-21.26,1.1-31.87.08-1.38-.55-1.94-1.93-1.67-1.86.36-3.73.35-5.63.28-4.32-.17-8.63-.25-12.95-.35-2.61-.06-2.98.26-2.83,2.81.26,4.59.3,9.18.2,14.43Z"/>
      <path class="cls-1" d="m76.92,125.01c-.09-.05-.19-.1-.29-.14.18-10.97-.59-21.96.64-32.9.54-4.78,2.18-9.16,5.2-12.93.81-1.01,1.4-2.53,3.17-2.33-.16,10.65.05,21.29.54,31.92.18,3.83.28,3.82,4.01,3.79.39,0,.78,0,1.17,0,4.6.07,9.2.16,13.8.2,1.98.02,2.46-.48,2.5-2.42.08-3.82.1-7.65.23-11.47.22-6.37.5-12.73.76-19.1.11-2.73-.27-3.16-2.8-2.88-1.82.2-3.65.27-5.48.26-4.93-.02-9.84-.71-14.78-.28-.02-.94.7-1.34,1.36-1.73,6.43-3.77,13.1-3.9,19.41-.22,7.1,4.14,10.11,11.13,10.4,18.99.38,10.35.09,20.73.08,31.09-1.75.34-3.53.29-5.29.21-11.55-.51-23.1.16-34.65-.07Z"/>
      <path class="cls-6" d="m85.64,76.71c-1.77-.2-2.36,1.33-3.17,2.33-3.02,3.77-4.66,8.15-5.2,12.93-1.23,10.95-.46,21.93-.64,32.9-.27.03-.55.08-.82.09-2.45.06-2.68-.16-2.7-2.58-.05-8.09-.24-16.19-.09-24.28.1-5.4-.36-10.87.94-16.21,1.7-6.96,4.57-13.28,10.92-17.17,9.94-6.1,25.97-4.32,32.33,9.87,2.18,4.86,3.34,9.92,3.34,15.24,0,10.98,0,21.96,0,32.94,0,.9.08,1.81-.98,2.23-.9-.05-1.8-.1-2.7-.15,0-10.36.3-20.74-.08-31.09-.29-7.86-3.3-14.85-10.4-18.99-6.32-3.68-12.99-3.55-19.41.22-.66.39-1.38.78-1.36,1.73l.02-.02Z"/>
      <path class="cls-5" d="m96.58,23.43c-.19.32-.68.43-.66.9-.32.22-.84.5-1,.11-.56-1.44-1.78-.87-2.76-1.04-.08-.26-.2-.51-.23-.77-.2-1.77-1.07-2.36-2.93-2.31-5.24.15-10.49.04-15.73.04-.23-.38-.38-.79-.34-1.25,5.49-.04,10.98-.09,16.47-.12,1.29,0,2.56-.1,3.68-.81.76-.48,1.49-.31,2.22,0,2.79,1.18,5.61,1.17,8.43.15,1-.36,1.88-.4,2.88.04,1.78.78,3.69.7,5.57.54.68-.06,1.32-.05,1.97.1.15.02.3.04.45.06-.14.71.65.94.81,1.52-.49.33-1.19.28-1.5.88-2.06-.84-4.14-1.21-6.29-.37-1.64-.45-3.21-.39-4.65.64-.33-.83-.93-1.11-1.82-1.03-.82.08-1.68.12-2.49,0-1.23-.2-2,.21-2.4,1.37-.54-.75-1.16-1.41-2.15-1.51.13-.75,1.22-.25,1.12-1.08-.05-.37-.29-.61-.64-.68-.63-.14-1.18-.04-1.67.45-.68.68-.85,1.41-.42,2.26.44.87,1.15,1.35,2.15,1.22.43-.06.84-.21,1.27-.33.03.48.29.8.69,1.04Z"/>
      <path class="cls-2" d="m11.95,65.99c.14,2.76.25,5.52.42,8.28.08,1.34-.56,2.01-1.81,2.05-2.22.06-4.44.02-6.66.03-.64,0-.95-.17-.63-.89.66-1.46,1.21-2.97,2.39-4.11,1.76-.21,3.59.48,5.3-.38-1.52-.62-3.15.02-4.68-.39.32-1.86,1.29-3.4,2.39-4.87,1.05.54,2.18.29,3.28.29Z"/>
      <path class="cls-15" d="m29.95,132.27c-2.65-.01-5.3.06-7.95-.2-.73-.07-1.18-.26-1.03-1.07.12-.63.3-1.09,1.18-1,4.41.46,8.83.17,13.24.09.74-.01,1.96-.55,1.94,1-.02,1.51-1.21,1.15-2.07,1.18-1.77.04-3.54.01-5.31.01Z"/>
      <path class="cls-3" d="m116.87,124.87c.9.05,1.8.1,2.7.15,0,.19.01.38.02.57-3.55.62-7.14.29-10.71.4-3.44-1.2-6.99-.59-10.5-.6-.97,0-.96.75-.16,1.3-.59.93-1.32.56-2.05.23-.02-.82-.48-1.19-1.26-1.23-4.85-.03-9.7-.06-14.56-.09-1.09-.59-2.28-.11-3.41-.34,0-.09-.01-.17-.02-.25,11.55.23,23.1-.44,34.65.07,1.76.08,3.54.13,5.29-.21Z"/>
      <path class="cls-2" d="m53.68,125.19c3.26,0,6.52.02,9.78.02,1.53.76,3.29-.42,4.82.64-1.32.73-2.84.63-4.24.71-6.18.39-12.36.47-18.55.05-.33-.02-.69-.05-.97-.19-.48-.25-1.52.25-1.39-.68.1-.71,1.04-.41,1.6-.41,2.21.01,4.42-.12,6.63.25.74.12,1.67.43,2.32-.4Z"/>
      <path class="cls-1" d="m91.06,130.59c.61,1.14.41,1.7-1.02,1.69-4.48-.03-8.96,0-13.44.03-.9,0-1.59-.14-1.24-1.3,1.36-.74,2.85-.64,4.32-.64,2.26.01,4.52-.04,6.78.02,1.53.04,3.08-.27,4.59.21Z"/>
      <path class="cls-1" d="m118.22,130.35c-.63.94-1.47,1.66-2.61,1.69-4.14.08-8.28.4-12.43,0-1.47-.14-1.38-.72-.86-1.7,5.3,0,10.6,0,15.9,0Z"/>
      <path class="cls-1" d="m29.01,129.35c-2.27,0-4.54-.01-6.81,0-.64,0-1.28.03-1.34-.81-.07-.91.64-.9,1.25-.9,4.7.02,9.41.06,14.11.07.6,0,.96.14.93.81-.03.66-.41.8-1,.79-2.38-.02-4.76,0-7.14,0v.03Z"/>
      <path class="cls-15" d="m118.45,129.01c-.97.8-2.11.22-3.16.39-.79.13-1.64-.29-2.38.26-3.12-.12-6.24-.21-9.35.03-.28-.78-1.86.28-1.61-1.02.23-1.15,1.36-.69,2.11-.69,4.71-.02,9.41,0,14.12.02.09.34.18.67.27,1.01Z"/>
      <path class="cls-6" d="m91.06,130.59c-1.51-.47-3.06-.17-4.59-.21-2.26-.06-4.52,0-6.78-.02-1.48,0-2.96-.1-4.32.64-.07-.3-.08-.64-.48-.74.13-.29.5-.48.33-.88.05-1.84,1.57-.9,2.4-1.27,1.08.79,7.79.8,8.94.02,1.19.11,2.37.36,3.58-.07.55-.19,1.35-.1,1.44.68.1.93-.75.59-1.2.62-1.04.07-2.09.04-3.14.05-.66,0-1.32,0-1.98,0-.11,0-.22,0-.34-.01-2.98.09-5.99-.59-8.93.35,3.76.58,7.53.43,11.29.34,1.28.05,2.56.11,3.84.16.04,0,.11.09.1.1-.04.09-.1.17-.16.26Z"/>
      <path class="cls-1" d="m48.62,132.18c-1.23-.35-.83-1.07-.42-1.81.1.15.22.25.41.15,4.45,0,8.91,0,13.36,0,.16-.02.32-.05.48-.07.48-.02.96-.04,1.44-.07.22.59.48,1.18,0,1.77-.54,0-1.08.01-1.61.02-.24-.75-.88-.53-1.4-.55-3.71-.13-7.42.25-11.13-.2-.53-.06-.98.17-1.14.75Z"/>
      <path class="cls-2" d="m98.22,126.69c-.79-.55-.81-1.3.16-1.3,3.5,0,7.06-.6,10.5.6.66.58,1.46.23,2.2.32,1.17.15,2.39-.32,3.52.3-5.46.03-10.92.06-16.38.08Z"/>
      <path class="cls-9" d="m6.73,48.11c13.6-.02,27.19-.04,40.79-.05,1.88,0,3.76,0,5.64.28-15.47,0-30.94,0-46.4,0-.03-.07-.04-.15-.02-.23Z"/>
      <path class="cls-3" d="m22.97,125.04c2.86-.17,5.72,0,8.58.1,1.81.06,3.63-.05,5.45-.09,1.28.54,2.61.12,3.92.25.6.06,1.37,0,.69.97-.5-.52-1.14-.3-1.71-.3-4.17-.02-8.34-.02-12.51-.02-1.39-.75-3.02.13-4.4-.67,0-.08,0-.16,0-.24Z"/>
      <path class="cls-5" d="m35.85,17.08c.78,1.46,2.04,2.02,3.66,1.99,2.13-.04,4.26-.02,6.4-.02,0,.22.01.43.02.65-.55.01-1.03.13-1.29.69-2.04,0-4.08.02-6.12,0-1.36-.02-2.47-.5-2.97-1.89.13-.47-.05-1,.31-1.41Z"/>
      <path class="cls-15" d="m100.07,130.42c.44,1.35-.17,1.93-1.46,1.83-1.28-.1-2.54-.03-3.82,0-1.45.04-1.74-.5-1.21-1.96,2.16.04,4.32.09,6.48.13Z"/>
      <path class="cls-1" d="m42.22,130.31c.77,0,1.54,0,2.31,0,.57,0,.98.23,1.03.82.07.69-.41,1.06-.99,1.08-1.65.06-3.29.06-4.94,0-.6-.02-1.05-.45-.96-1.1.07-.55.49-.81,1.07-.8.83.01,1.65,0,2.48,0Z"/>
      <path class="cls-7" d="m11.95,65.99c-1.1,0-2.23.25-3.28-.29.3-1.8,1.64-3.07,2.38-4.64.13-.28.4-.38.69-.25.31.15.23.47.23.72,0,1.49-.02,2.97-.03,4.46Z"/>
      <path class="cls-3" d="m18.91,88.34c.04,1.05.11,2.09.11,3.14,0,10.45-.02,20.9-.04,31.35,0,.5-.05.99-.07,1.49-.42-.47-.27-1.05-.27-1.59,0-10.93,0-21.85.02-32.78,0-.54-.15-1.12.25-1.6Z"/>
      <path class="cls-6" d="m93.6,129.72c-.63-.64-.61-1.59.2-1.62,2.13-.07,4.33-.63,6.42.31,0,.37,0,.73-.01,1.1l-6.61.21Z"/>
      <path class="cls-1" d="m53.27,129.43c-1.38.03-2.76.09-4.14.07-.47,0-1.25.33-1.27-.58-.02-.81.6-.95,1.27-.94,3.26.05,6.52.09,9.78.14-.27.87-1,.51-1.53.52-2.57.04-5.13.02-7.7.02,0,.11,0,.23,0,.34h3.59c0,.14,0,.29,0,.43Z"/>
      <path class="cls-6" d="m45.92,129.62c-1.77,0-3.55,0-5.32.02-.68,0-1.28-.1-1.24-.93.03-.79.69-.74,1.24-.74,1.77,0,3.55.02,5.32.04,0,.54,0,1.08,0,1.62Z"/>
      <path class="cls-3" d="m45.92,19.7c0-.22-.01-.43-.02-.65.84-.78,1.73-1.16,2.75-.31.07.31.4.64.1.92-.53.5-1.11.85.1,1.25.55.18.39.73,0,1.07-.55.48-1.14.92-1.9.36-.89-.66-1.06-1.61-1.04-2.64Z"/>
      <path class="cls-3" d="m68.24,22.38c-.1-.21-.2-.43-.31-.64.57-.61,1.18-1.15,2.18-1.01-.14-.28-.17-.38-.23-.47-.27-.43-1.57.08-1.05-.97.34-.69,1.26-.77,1.93-.4.8.45,1.39,1.19.99,2.19-.35.86-.72,1.8-2.02,1.41-.46-.14-.98-.08-1.48-.11Z"/>
      <path class="cls-9" d="m80.35,125.6c4.85.03,9.7.06,14.56.09-.58.55-1.38.04-2.02.41.33.46,1,.02,1.3.5-1.29,0-2.58,0-3.87-.01.31-.15.63-.29,1.35-.63-2.53,0-4.62,0-6.7,0-.66,0-.4.28-.16.55-1.83.29-3.64.05-5.45-.23.16-.48.57-.59.99-.68Z"/>
      <path class="cls-16" d="m48.62,132.18c.16-.58.61-.81,1.14-.75,3.7.45,7.42.07,11.13.2.52.02,1.16-.2,1.4.55-4.56,0-9.11,0-13.67,0Z"/>
      <path class="cls-8" d="m16,126.35c.24.1.48.2.71.3.52,1.52-.3,3.31.99,4.67,0,.22-.01.44-.02.65-.45.14-.91.28-1.36.41-1.55-1.94-.91-3.99-.31-6.03Z"/>
      <path class="cls-5" d="m103.56,129.7c3.12-.24,6.24-.15,9.35-.03,1.11.68,2.33.15,3.48.32.61.09,1.32-.25,1.83.36-5.3,0-10.6,0-15.9,0,.11-.79,1.03-.05,1.24-.65Z"/>
      <path class="cls-9" d="m27.38,125.95c4.17,0,8.34,0,12.51.02.58,0,1.22-.22,1.71.3-3.51.63-7.06.3-10.59.31-1.12-.75-2.54.26-3.64-.64Z"/>
      <path class="cls-9" d="m114.61,126.6c-1.13-.61-2.35-.15-3.52-.3-.73-.09-1.53.26-2.2-.32,3.57-.11,7.16.22,10.71-.4.77.74,1.8.19,2.9.6-2.76.74-5.34.29-7.89.41Z"/>
      <path class="cls-5" d="m87.29,130.06c-3.77.09-7.53.24-11.29-.34,2.95-.94,5.96-.25,8.93-.35.11.15.22.16.34.01.66,0,1.32,0,1.98,0,.01.22.03.44.04.67Z"/>
      <path class="cls-6" d="m53.27,128.99h-3.59c0-.11,0-.23,0-.34,2.57,0,5.13.02,7.7-.02.53,0,1.26.36,1.53-.52,1.02.09,2.04.17,3.06.26,0,.3-.01.61-.02.91-.76.26-1.62-.2-2.34.34-.88-.05-1.75-.1-2.63-.15.55-.44,1.33.03,2.08-.49h-5.79Z"/>
      <path class="cls-1" d="m86.56,128.12c-1.15.79-7.86.78-8.94-.02,2.98,0,5.96.01,8.94.02Z"/>
      <path class="cls-2" d="m63.9,132.16c.47-.59.21-1.18,0-1.77,0-.14.02-.28.03-.43,0-.23.02-.47.03-.7,0-.4-.01-.81-.02-1.21.06-.33.1-.69.55-.66.46.02.46.4.46.72.01,1.37.02,2.73,0,4.1,0,.39.16,1.01-.52.98-.63-.03-.4-.65-.52-1.04Z"/>
      <path class="cls-2" d="m45.92,129.62c0-.54,0-1.08,0-1.62.48-.47.95-.5,1,.27.08,1.32.03,2.65.02,3.97,0,.34-.09.69-.55.64-.35-.03-.41-.33-.42-.61-.03-.88-.04-1.77-.06-2.65Z"/>
      <path class="cls-3" d="m17.7,131.31c-1.29-1.35-.47-3.15-.99-4.67.31.03.63.05.94.08.34,1.18.83,2.33.66,3.62-.06.44-.04.88-.62.97Z"/>
      <path class="cls-5" d="m93.6,129.72c2.2-.07,4.41-.14,6.61-.21.12.08.24.15.36.23,0,.18,0,.36,0,.54l-.02.03c-.16.04-.32.08-.49.12-2.16-.04-4.32-.09-6.48-.13,0-.19,0-.38.01-.57Z"/>
      <path class="cls-3" d="m58.88,20.71c.58.1,1.37-.18,1.33.69-.05.99-.9.93-1.62.99-.66.05-1.19-.27-1.16-.89.04-1.01.95-.64,1.45-.79Z"/>
      <path class="cls-7" d="m84.81,126.51c-.24-.27-.5-.55.16-.55,2.08,0,4.17,0,6.7,0-.73.34-1.04.49-1.35.63-1.84.05-3.68.15-5.51-.08Z"/>
      <path class="cls-2" d="m75.22,129.38c.17.4-.2.6-.33.88-.49.58-.37,1.24-.21,1.89.07.27.19.6-.16.68-.46.1-.54-.3-.55-.63-.02-1.41,0-2.83,0-4.33.89.29.34,1.46,1.26,1.5Z"/>
      <path class="cls-2" d="m20.14,128v4.92c-.83-1.62-.36-3.3-.47-4.92.16,0,.31,0,.47,0Z"/>
      <path class="cls-15" d="m53.27,128.99h5.79c-.75.52-1.53.05-2.08.49-1.24-.02-2.48-.04-3.71-.06,0-.14,0-.29,0-.43Z"/>
      <path class="cls-3" d="m63.94,129.26c0,.23-.02.47-.03.7-1.43-.19-2.91.37-4.3-.33.72-.54,1.58-.08,2.34-.34.66,0,1.33-.02,1.99-.03Z"/>
      <path class="cls-3" d="m118.45,129.01c-.09-.34-.18-.67-.27-1.01,1.69,0,1.41,1.41,1.58,2.37.1.59-.21,1.26-.36,1.98-.49-1.13.42-2.56-.95-3.34Z"/>
      <path class="cls-13" d="m72.21,122.95c-.45-2.64-.45-5.29,0-7.93,0,2.64,0,5.29,0,7.93Z"/>
      <path class="cls-1" d="m63.94,129.26c-.66,0-1.33.02-1.99.03,0-.3.01-.61.02-.91.57-.57,1.27-.41,1.95-.33,0,.4.01.81.02,1.21Z"/>
      <path class="cls-7" d="m94.19,126.6c-.3-.48-.97-.04-1.3-.5.64-.37,1.44.14,2.02-.41.78.04,1.24.41,1.26,1.23-.66-.11-1.33-.21-1.99-.32Z"/>
      <path class="cls-13" d="m72.22,94.98c-.46-2.09-.46-4.18,0-6.27,0,2.09,0,4.18,0,6.27Z"/>
      <path class="cls-7" d="m10.96,70.96c-1.71.86-3.54.18-5.3.38.1-.13.2-.26.29-.38,1.67,0,3.34,0,5.01,0Z"/>
      <path class="cls-9" d="m10.96,70.96c-1.67,0-3.34,0-5.01,0,.11-.13.22-.26.33-.39,1.54.41,3.16-.23,4.68.39Z"/>
      <path class="cls-2" d="m100.57,129.74c-.12-.08-.24-.15-.36-.23,0-.37,0-.73.01-1.1.15-.35.3-.69.45-1.04.16.8.5,1.61-.11,2.36Z"/>
      <path class="cls-3" d="m16.32,132.38c.45-.14.91-.28,1.36-.41.27.25.42.61.07.82-.56.34-1.01-.07-1.44-.4Z"/>
      <path class="cls-2" d="m100.58,130.28c.63.83.19,1.74-.02,2.63,0-.87,0-1.73,0-2.6,0,0,.02-.03.02-.03Z"/>
      <path class="cls-3" d="m48.61,130.52c-.19.1-.31,0-.41-.15.14.05.27.1.41.15Z"/>
      <path class="cls-3" d="m62.45,130.45c-.16.02-.32.05-.48.07.16-.02.32-.05.48-.07Z"/>
      <path class="cls-9" d="m53.3,37.36c-2.23.43-4.47.61-6.7,0,.02-.08.03-.17.03-.25,2.21,0,4.42,0,6.63,0,0,.09.02.18.04.27Z"/>
      <path class="cls-8" d="m46.64,37.1c0,.09-.01.17-.03.25-2.42.01-4.83.03-7.25.03-.36,0-.78.1-1.04-.31,2.77,0,5.55.01,8.32.02Z"/>
      <path class="cls-9" d="m64.6,37.05c-1.32.31-2.64.64-3.96.02,1.32-.11,2.64-.81,3.96-.02Z"/>
      <path class="cls-8" d="m83.86,36.33c-1.75-.13-3.54.43-5.26-.25,1.75,0,3.51,0,5.26.01.02.08.02.16,0,.24Z"/>
      <path class="cls-8" d="m53.3,37.36c-.02-.09-.04-.18-.04-.27,1.67.07,3.36-.37,4.99.25-1.65,0-3.3.02-4.96.02Z"/>
      <path class="cls-9" d="m83.86,36.33c.01-.08.01-.16,0-.24,1.13-.24,2.26-.76,3.41-.03-1.13.16-2.24.49-3.4.27Z"/>
      <path class="cls-3" d="m35.85,17.08c-.36.41-.18.95-.31,1.41-.51-.5-.66-1.16-.65-1.82.04-4.43.12-8.85.19-13.28.2.01.4.03.6.04.07,2.63.14,5.26.22,7.89-.02,1.92-.03,3.84-.05,5.76Z"/>
      <path class="cls-7" d="m97.58,47.94h-41.97c0-.11,0-.22,0-.32h41.97c0,.11,0,.22,0,.32Z"/>
      <path class="cls-9" d="m22.37,42.43c7.62,0,15.24,0,22.86,0-.36.37-.82.27-1.25.27-6.79,0-13.57,0-20.36,0-.43,0-.89.1-1.25-.26Z"/>
      <path class="cls-9" d="m112.58,35.4c1.43,0,2.82-.53,4.27-.34.47.06,1.01-.14,1.39.33-1.86.47-3.77.28-5.66.33,0-.11,0-.21,0-.32Z"/>
      <path class="cls-13" d="m112.58,35.4c0,.11,0,.21,0,.32-1.9-.11-3.83.39-5.7-.3,1.9,0,3.8-.01,5.7-.02Z"/>
      <path class="cls-12" d="m39.61,1.45c6.89,0,13.78,0,20.67,0,0,1.87,0,3.75.01,5.62-.58.42-1.41.24-2.02.85,1.61.93.92,2.44.96,3.78-2.49-.03-4.98-.05-7.47-.08,0-1.04.14-2.05.43-3.06.41-1.38.37-2.77-.15-4.13,2.32-.79,3.62.98,5.17,2.41.14-3.05.14-3.03-2.49-3.31-2.05-.22-4.06.17-6.09.3-1.48-.08-2.95-.21-4.43-.24-2.47-.05-2.84.52-1.99,2.95.58-.61,1.09-1.28,1.73-1.79,1.13-.91,3.02-.56,3.08.53.11,2.15.55,4.29.19,6.45-2.86,0-5.73,0-8.59-.04-.57,0-1.23.25-1.7-.33,1.19-.87,2.65-1.54,2.44-3.41,1.09-1.8.64-3.66.23-5.52.01-.34.02-.67.03-1.01Z"/>
      <path class="cls-12" d="m82.92,1.45c6.5-.06,13.01-.13,19.51-.15.64,0,1.29-.36,1.92.02-.43,1.86.34,3.83-.47,5.66-1.35.46-2.79.76-3.59,2.13-.19.33-.57.48-.84.31-.35-.21-.09-.58,0-.89.36-1.23-.24-1.66-1.36-1.54-1.33.14-2.71-.03-4.06.63,1.99,1,.95,2.69,1.06,4.11-1.37,0-2.74-.02-4.11-.03-.16-.89.02-1.75.16-2.63.15-1-.03-1.94-1.32-2.05-1.54-.13-3.01.17-4.65.76,2.24.87,1.35,2.54,1.4,3.93-1.22-.04-2.44-.09-3.66-.13,0-3.38.01-6.77.02-10.15Zm5.65,2.09c-.83.28-2.2-.1-2.21,1.23,0,1.68,1.58.94,2.45,1.17.82.21,1.63-.22,1.63-1.19,0-1.21-1.14-.94-1.88-1.21Z"/>
      <path class="cls-12" d="m71.31,1.39c.33-.12.66-.16.99.01-.42,2.03-.19,4.01.62,6.39V1.43c3.12,0,6.23.02,9.35.02-.42,1.38-.5,2.76-.1,4.16.24.85.07,1.62-.65,2.2-2.85-1.3-5.65-1.26-7.35.09,3.55.52,3.57.54,3.56,2.42-2.73-.68-5.26-.46-7.35,1.65-2.1-.58-4.26-.04-6.38-.29-.03-.2-.06-.41-.09-.61q2.54-2.99,5.18-1.15c.07.05.2,0,.41-.02-.06-1.04.45-2.29-.84-2.89-1.25-.59-2.32.17-3.31.85-.31.21-.53.55-.76.86-.25.34-.52.56-.96.35-.12-1.94-.17-1.98-2.71-2.01.02-.11.04-.22.06-.33,3.44-1.79,7.03-3.31,10.35-5.34Z"/>
      <path class="cls-12" d="m118.99,7.52c-1.37,1.02-2.65,2.07-1.46,4.02-2.93.06-5.86.12-8.79.18-.19-2.02-.17-4.17-2.81-4.73-.82-.68-1.12-1.54-1.03-2.61.08-.98,0-1.97,0-2.95,4.56-.06,9.12-.13,13.67-.18.21,0,.42.13.63.19-.92,1.99-.28,4.04-.22,6.07Z"/>
      <path class="cls-14" d="m39.61,1.45c-.01.34-.02.67-.03,1.01-1,1.8-.58,3.66-.23,5.52.21,1.87-1.25,2.54-2.44,3.41-.34-.02-.68-.04-1.01-.06-.07-2.63-.14-5.26-.22-7.89.85-1.57,2.08-2.39,3.92-1.99Z"/>
      <path class="cls-12" d="m99.96,11.66c-.08-.49.24-.83.46-1.19.66-1.08,1.47-2.04,2.92-1.6,1.49.45,1.34,1.68,1.2,2.86-1.52-.02-3.05-.04-4.57-.07Z"/>
      <path class="cls-14" d="m82.6,11.73c-.31-1.32-.43-2.68-1.08-3.9.72-.59.88-1.36.65-2.2-.39-1.41-.32-2.79.1-4.16.22,0,.43,0,.65,0,0,3.38-.01,6.77-.02,10.15-.1.04-.21.09-.31.13Z"/>
      <path class="cls-4" d="m114.58,19.07c-.15-.02-.3-.04-.45-.06,2.02-1.58,2.6-1.58,4.52,0-.27.02-.54.04-.81.06-1.09-.61-2.18.05-3.27,0Z"/>
      <path class="cls-16" d="m71.31,1.39c-3.32,2.03-6.9,3.55-10.35,5.34.37-1.74.39-3.48-.04-5.22,3.46-.04,6.92-.08,10.38-.12Z"/>
      <path class="cls-14" d="m60.92,1.51c.43,1.74.41,3.48.04,5.22-.02.11-.04.22-.06.33-.21,0-.41.01-.61.02,0-1.87,0-3.75-.01-5.62.22.02.43.04.65.06Z"/>
      <path class="cls-14" d="m118.99,7.52c-.06-2.03-.71-4.08.22-6.07.12,0,.25,0,.38,0-.04,1.98-.08,3.96.34,5.91-.31.05-.62.11-.93.16Z"/>
      <path class="cls-14" d="m105.93,6.99c-.68.13-1.37.14-2.05,0,.8-1.83.04-3.8.47-5.66.19.04.37.07.56.11,0,.98.07,1.97,0,2.95-.09,1.07.21,1.93,1.03,2.61Z"/>
      <path class="cls-14" d="m72.92,1.43v6.36c-.81-2.38-1.03-4.36-.62-6.39.21.01.41.02.62.03Z"/>
      <path class="cls-3" d="m114.08,21.77c-.07-.1-.13-.2-.2-.3.31-.6,1.01-.55,1.5-.88-.15-.57-.94-.8-.81-1.52,1.09.05,2.18-.61,3.27,0,.42.97.4,1.99.38,3.02.01.2.03.41.04.61-1.4-.31-2.79-.62-4.19-.93Z"/>
      <path class="cls-3" d="m107.6,21.09c-.07.63-.15,1.26-.22,1.89-1.41-1.05-2.8.06-4.2.04-.07-.43-.15-.86-.22-1.29,1.44-1.02,3.01-1.09,4.65-.64Z"/>
      <path class="cls-4" d="m33.19,93.86c.11-5.25.07-9.84-.2-14.43-.15-2.56.22-2.87,2.83-2.81,4.32.1,8.64.18,12.95.35,1.89.07,3.77.08,5.63-.28,1.38-.27,2.01.29,1.93,1.67-.65,10.61-1.13,21.23-1.1,31.87,0,1.69-.65,2.36-2.29,2.37-5.71.03-11.41,0-17.12.02-1.48,0-2.05-.69-2.08-2.14-.15-5.76-.37-11.51-.54-16.62Zm10.74,17.79c2.28,0,4.55,0,6.83,0,3.3,0,3.6-.33,3.49-3.66,0-.22,0-.45-.03-.66-.39-2.82-.21-5.65-.14-8.47.15-6.65.4-13.29.64-19.94.03-.93-.28-1.32-1.24-1.26-1.99.12-3.98.27-5.97.26-3.55-.02-7.09-.19-10.64-.24-2.81-.04-3.25.42-3.21,3.3.04,3.38.17,6.76.24,10.14.14,6.21.29,12.41.37,18.62.02,1.45.6,1.97,2.01,1.93,2.55-.06,5.1-.02,7.66-.02Z"/>
      <path class="cls-4" d="m85.62,76.73c4.94-.43,9.85.26,14.78.28,1.83,0,3.65-.06,5.48-.26,2.53-.28,2.91.15,2.8,2.88-.27,6.37-.55,12.73-.76,19.1-.13,3.82-.15,7.65-.23,11.47-.04,1.94-.53,2.44-2.5,2.42-4.6-.05-9.2-.13-13.8-.2-.39,0-.78,0-1.17,0-3.73.03-3.84.04-4.01-3.79-.49-10.63-.7-21.27-.54-31.92,0,0-.02.02-.02.02Zm.96,22.68c0,1.6-.03,3.21.03,4.81.08,2.14-.28,4.29.22,6.41.45,1.86,1.88,1.42,3.09,1.23,2.03-.31,4.05-.56,6.1-.57,2.5-.02,4.97.18,7.43.6,2.65.45,3.46-.29,3.46-2.92,0-4.82.02-9.64.02-14.47,0-4.98.39-9.95.68-14.92.07-1.25-.33-1.7-1.58-1.59-1.76.15-3.54.27-5.3.25-3.98-.05-7.97-.22-11.95-.31-2.3-.05-2.5.16-2.5,2.41,0,5.82.02,11.64.04,17.46,0,.54-.15,1.12.27,1.59Z"/>
      <path class="cls-3" d="m96.24,22.06c-.01.22-.14.32-.35.32-.42.11-.84.27-1.27.33-1,.13-1.71-.35-2.15-1.22-.43-.84-.26-1.58.42-2.26.49-.49,1.05-.6,1.67-.45.34.08.59.32.64.68.1.83-.99.33-1.12,1.08.99.1,1.61.76,2.15,1.51Z"/>
      <path class="cls-4" d="m85.26,129.39c-.12.15-.23.13-.34-.01.11,0,.22,0,.34.01Z"/>
      <path class="cls-3" d="m39.35,7.97c-.36-1.86-.77-3.71.23-5.52.42,1.86.86,3.72-.23,5.52Z"/>
      <path class="cls-10" d="m76.14,11.04c1.28.02,2.16.52,2.39,1.73.17.92-1.4,2.64-2.31,2.65-1.48.02-1.88-.93-1.9-2.17-.02-1.29.54-2.11,1.83-2.21Z"/>
      <path class="cls-7" d="m43.93,111.65c-2.55,0-5.11-.04-7.66.02-1.41.03-1.99-.49-2.01-1.93-.08-6.21-.24-12.41-.37-18.62-.07-3.38-.2-6.76-.24-10.14-.04-2.89.41-3.34,3.21-3.3,3.55.05,7.09.22,10.64.24,1.99.01,3.98-.14,5.97-.26.95-.06,1.27.33,1.24,1.26-.24,6.64-.49,13.29-.64,19.94-.06,2.82-.24,5.65.14,8.47.03.22.03.44.03.66.12,3.32-.19,3.65-3.49,3.66-2.28,0-4.55,0-6.83,0Zm.05-1.67c2,0,3.99,0,5.99,0,2.26,0,2.62-.33,2.63-2.56.03-3.77-.11-7.55.14-11.31.35-5.31.53-10.62.61-15.93.02-1.18-.46-1.57-1.59-1.51-1.82.08-3.64.13-5.46.08-3.1-.08-6.2-.29-9.3-.37-1.67-.04-2.5.83-2.3,2.31.43,3.3.48,6.62.52,9.94.07,5.76.23,11.52.31,17.28.02,1.46.59,2.13,2.1,2.08,2.11-.07,4.21-.02,6.32-.02Z"/>
      <path class="cls-7" d="m86.57,99.41c-.42-.48-.27-1.05-.27-1.59-.02-5.82-.03-11.64-.04-17.46,0-2.25.2-2.46,2.5-2.41,3.98.08,7.97.25,11.95.31,1.77.02,3.54-.1,5.3-.25,1.25-.11,1.65.34,1.58,1.59-.29,4.97-.68,9.94-.68,14.92,0,4.82-.01,9.64-.02,14.47,0,2.63-.82,3.37-3.46,2.92-2.47-.42-4.93-.62-7.43-.6-2.06.01-4.08.26-6.1.57-1.21.18-2.64.63-3.09-1.23.02-3.34.05-6.68.06-10.02,0-.42.13-.89-.31-1.2Zm1.62-2.61c.37,1.31-.73,2.62-.01,3.94,0,2.49.03,4.99.02,7.48,0,1.21.42,1.85,1.74,1.84,4.6-.03,9.2-.02,13.8,0,.79,0,1.32-.24,1.36-1.08.11-2.32.63-4.62.32-6.95-.21-1.55-.12-3.1-.06-4.64.2-5.75.42-11.5.63-17.25.03-.72-.16-1.17-1.01-1.13-5.31.25-10.61-.36-15.92-.34-.88,0-1.44.36-1.42,1.23.03,1.92-.21,3.86.24,5.77.12.37-.09.87.43,1.08-.01.48-.03.96-.04,1.43-.88.85-.45,2.01-.56,2.99-.21,1.87-.63,3.84.5,5.63Z"/>
      <path class="cls-3" d="m86.57,99.41c.45.31.31.79.31,1.2-.01,3.34-.04,6.68-.06,10.02-.5-2.12-.13-4.28-.22-6.42-.06-1.6-.02-3.21-.03-4.81Z"/>
      <path class="cls-4" d="m43.98,109.98c-2.11,0-4.22-.05-6.32.02-1.51.05-2.08-.63-2.1-2.08-.08-5.76-.24-11.52-.31-17.28-.04-3.32-.09-6.64-.52-9.94-.2-1.49.63-2.35,2.3-2.31,3.1.07,6.2.29,9.3.37,1.82.05,3.64,0,5.46-.08,1.13-.05,1.6.33,1.59,1.51-.08,5.32-.26,10.62-.61,15.93-.25,3.76-.11,7.54-.14,11.31-.02,2.23-.37,2.57-2.63,2.56-2,0-3.99,0-5.99,0Zm8.4-23.19c.03-.28.07-.55.1-.83.1-1.43.09-2.88.32-4.29.22-1.39-.2-2.15-1.61-2.31-2.24-.25-3.44.36-3.35,1.86.11,1.78.12,3.54.1,5.32,0,.53.08,1.12.72,1.1,1.13-.04,2.31.38,3.4-.24.09-.14.19-.28.28-.42l.1-.09s-.06-.1-.06-.1Zm-4.39,14.55c-.17.82-.49,1.68.74,1.98,2.84.7,3.68.02,3.55-2.85-.01-.28-.06-.55-.1-.82.03-.49.07-.99.08-1.48.03-1.76-.59-2.27-2.62-2.16-1.53.08-2.24.86-1.94,2.38.19.99.14,1.97.27,2.95Zm0-7.32c-.25.4-.12.73.23.99,1.13.83,2.34.33,3.48.08,1.04-.22.51-1.18.56-1.82.07-.76-.02-1.54-.04-2.31.05-.85.57-1.9-.43-2.42-1-.51-2.21-.46-3.22-.02-1.1.48-.72,1.58-.66,2.5.06.99.06,1.99.09,2.99Zm-2.36-14.26c-1.2-.13-2.4-.27-3.6-.39-.59-.06-1.27,0-1.16.75.27,1.86-.51,3.73.14,5.56.04.67-.39,1.62.91,1.57,1.2.12,2.41.23,3.61.36,1.13.12,1.83-.19,1.77-1.5-.07-1.38-.08-2.76-.11-4.13.1-1.17.6-2.62-1.55-2.22Zm-4.31,28.24c-.14.3-.33.62,0,.89.71.58,4.56.58,5.32,0,.42-.32.64-.76.6-1.29-.05-.71-.19-1.42-.18-2.13.02-1.28-.57-1.67-1.74-1.32-4.79-.36-4.65-.48-4,3.85Zm-1.65-19.3c-1.05-1.08-2.21-1.1-3.42-.07-.68,1.78-.12,3.6-.15,5.4-.02.95.19,1.63,1.35,1.63,1.12,0,2.33-.08,2.44-1.4.16-1.84.35-3.73-.22-5.56Zm6.98-.09c-1.57-.76-3.24-.39-4.87-.44-.39-.01-.83.11-.8.63.12,2.05-.75,4.15.3,6.15,2.04.46,4.09.89,6.02-.38.04-.01.08-.02.11-.03-.04-.04-.07-.08-.11-.12-.26-1.03-.13-2.06-.08-3.09.04-.94.32-1.96-.58-2.71Zm-6.75-3.92c.07-1.27.14-2.53.2-3.8.05-.97-.25-1.63-1.39-1.56-.55.04-1.11.03-1.66-.01-.97-.07-1.35.49-1.26,1.31.2,1.76.15,3.53.15,5.29,0,.75.29,1.37,1.09,1.38.85,0,1.75.26,2.55-.25.75-.7.28-1.57.31-2.36Zm6.06,11.54c-4.82-.69-5.7.15-5.13,4.94,0,.05.03.11.04.16-.56,1.47-.03,2.09,1.52,1.97.66-.05,1.33.01,1.99.08,1.99.22,2.68-.29,2.88-2.2.16-1.51-.19-2.98-.33-4.47-.06-.61-.48-.66-.97-.48Zm-5.7,4.21c0-.65,0-1.03,0-1.42,0-2.39-.4-2.73-2.8-2.49-1.24.12-1.84.66-1.38,1.96.61,1.75-.4,3.72.75,5.39-1,.91-.43,2.09-.5,3.14-.12,1.72.44,2.27,2,2.25,1.55-.02,2.02-.55,1.97-2.32-.03-1.11-.5-2.44-.34-3.24.25-1.2.16-2.37.29-3.28Zm9.75,3.69c-2.26,0-2.37.12-2.18,2.34.02.22.1.44.07.65-.11.77-.37,1.69.67,1.9,1.16.24,2.57.43,3.38-.6.78-.98.57-2.38.26-3.52-.28-1.06-1.37-.89-2.19-.78Z"/>
      <path class="cls-4" d="m88.25,88.18c.01-.48.03-.96.04-1.43.34.4.68.8,1.3.53,1.08-.25,2.75.95,3.02-1.25.81-.61-.19-1.71.62-2.32.25,1.12-.24,2.38.62,3.39,1.58.18,3.15.4,4.73.52,1,.07,1.16-.71,1.15-1.47-.03-1.6-.11-3.2-.18-4.81.12-.97.33-2.01-1.28-1.6-.49-.04-.99-.04-1.48-.11-.93-.14-1.86-.31-2.77.04-1.24.47-.46,1.73-.88,2.54-.48-.23-.58-.61-.54-1,.22-2-1.18-1.89-2.47-1.91-1.48-.03-1.84.91-1.87,2.16-.03,1.41.17,2.85-.4,4.21-.45-1.91-.2-3.85-.24-5.77-.02-.87.55-1.23,1.42-1.23,5.31-.02,10.6.59,15.92.34.85-.04,1.04.41,1.01,1.13-.22,5.75-.43,11.5-.63,17.25-.05,1.55-.14,3.09.06,4.64.31,2.33-.21,4.63-.32,6.95-.04.84-.57,1.08-1.36,1.08-4.6-.02-9.2-.03-13.8,0-1.32,0-1.75-.63-1.74-1.84.02-2.49,0-4.99-.02-7.48.24-.54-.14-1.23.4-1.71.02.66.09,1.32.06,1.97-.05,1.39.25,2.4,1.96,2.33,1.59-.07,2.33-.81,2.34-2.5,0-.55-.03-1.1-.03-1.65q0-3.33-3.42-2.87c-.16.02-.33.06-.49.08-.41-.19-.2-.46-.09-.72.66-.01,1.34.03,1.99-.06.81-.11,1.6-.46,1.64-1.37.08-1.88.03-3.77,0-5.65,0-.32-.28-.44-.59-.46-1.26.11-2.99-1.1-3.49,1.21-.08-.39-.15-.77-.23-1.16Zm16.02-.81c.14-.09.28-.17.41-.26.73-1.85.1-3.81.45-5.69.26-1.4-.32-2.06-1.77-2.1-2.31-.07-3.1.35-3.13,1.94-.03,1.44.02,2.88.03,4.31.01,1.06.42,1.82,1.55,2.01.83.09,1.68.31,2.46-.21Zm-3.73,15.88c4.11.3,4.39,0,4-4.12,0-.05-.02-.11-.03-.16.02-.5.07-.99.07-1.49,0-1.06-.67-1.5-1.61-1.48-1.05.02-2.62-.33-2.73,1.12-.15,2.02-.39,4.12.29,6.13Zm-.27-9.23c-.24,1.74,1.1,1.56,2.04,1.48,1.82-.17,2.43-1.47,2.2-4.21.74-2.48-.04-3.66-2.2-3.28-1.21.22-1.89,1-2.1,2.23-.21,1.27.07,2.52.05,3.78Zm-6.75.32c.69,1.06,2.97,1.45,4.84.87,1.38-.43.97-1.47.91-2.43-.06-1.04-.06-2.09-.09-3.13-.02-.45,1-1.17-.26-1.3-1.48-.14-2.98-.16-4.47-.2-.72-.02-1.15.25-1.11,1.08.08,1.71.11,3.42.16,5.12Zm4.49,1.88c-1.16-.03-2.32-.03-3.48-.09-.67-.03-.95.2-1.08.9-.26,1.45-.11,2.86.14,4.28-.44,1-.24,1.76.92,1.96.91.16,1.86.18,2.79.22,1.39.05,2.19-.62,2.23-2.04.04-1.43.02-2.86.01-4.29,0-1.11-.6-1.31-1.52-.94Zm1.64,11.28c1.39,1.72,2.92,1.97,4.33,1.46,1.35-.49.31-1.94.58-2.92.1-.36,0-.77-.01-1.15-.01-.29-.1-.66-.41-.6-1.34.24-2.95-1.21-4.03.63-.18.3-.34.24-.61,0-1.6-1.37-3.56-.8-5.39-.91-.4-.02-.7.23-.84.66-.87,2.51.27,4.34,2.91,4.62.55.06,1.1.06,1.65.07,1.03.03,1.88-.2,1.83-1.86Zm-7.06-1.13c0-.55,0-1.11,0-1.66,0-.56-.21-.92-.81-1.06-2.33-.56-3.12.08-2.92,2.43.06.72.03,1.44.09,2.16.03.38.17.89.57.9.93.02,1.97.1,2.77-.26.66-.3.2-1.31.29-2,.02-.16,0-.33,0-.5Z"/>
      <path class="cls-14" d="m93.23,83.71c-.81.61.19,1.71-.62,2.32-.45-.29-.45-1.54-1.39-.73-.65.55-1.49,1-1.63,1.98-.62.27-.96-.13-1.3-.53-.53-.21-.31-.71-.43-1.08.58-1.36.37-2.8.4-4.21.03-1.25.39-2.19,1.87-2.16,1.29.03,2.69-.09,2.47,1.91-.04.38.06.77.54,1,.42-.81-.36-2.07.88-2.54.91-.35,1.84-.18,2.77-.04.49.07.99.08,1.48.11-1.35,1.74-3.33,2.68-5.04,3.96Z"/>
      <path class="cls-13" d="m88.25,88.18c.08.39.15.77.23,1.16,0,.32,0,.64,0,.96-.55,2.15-.06,4.34-.3,6.5-1.13-1.78-.71-3.76-.5-5.63.11-.97-.32-2.14.56-2.99Z"/>
      <path class="cls-3" d="m88.19,96.8c.24-2.16-.26-4.35.3-6.5.06.44.12.88.17,1.32.11,1.35-.24,2.72.25,4.05-.11.26-.32.53.09.72-.14.88-.29,1.76-.43,2.64-.53.48-.16,1.16-.4,1.71-.72-1.32.38-2.62.01-3.94Z"/>
      <path class="cls-14" d="m40.26,100.44c-.14.91-.04,2.07-.29,3.28-.17.8.31,2.13.34,3.24.05,1.77-.42,2.3-1.97,2.32-1.56.02-2.12-.53-2-2.25.07-1.05-.5-2.23.5-3.14-1.15-1.67-.14-3.65-.75-5.39-.46-1.31.14-1.84,1.38-1.96,2.4-.24,2.79.1,2.8,2.49,0,.39,0,.77,0,1.42Z"/>
      <path class="cls-14" d="m52.06,87.4c-1.09.62-2.27.2-3.4.24-.64.02-.73-.57-.72-1.1.02-1.77,0-3.54-.1-5.32-.09-1.5,1.12-2.11,3.35-1.86,1.4.16,1.83.92,1.61,2.31-.22,1.41-.22,2.86-.32,4.29-.57-.26.35-1.88-.91-1.27-1.05.51-2.16,1.27-2.8,2.71h3.29Z"/>
      <path class="cls-14" d="m45.97,96.23c.49-.17.92-.13.97.48.14,1.49.49,2.96.33,4.47-.2,1.91-.9,2.42-2.88,2.2-.66-.07-1.33-.13-1.99-.08-1.55.11-2.07-.5-1.52-1.97,2-1.4,3.86-2.93,5.09-5.1Z"/>
      <path class="cls-14" d="m39.6,87.05c-.81.51-1.7.26-2.55.25-.81,0-1.1-.63-1.09-1.38,0-1.77.05-3.53-.15-5.29-.09-.82.29-1.38,1.26-1.31.55.04,1.11.05,1.66.01,1.15-.07,1.44.59,1.39,1.56-.06,1.27-.13,2.53-.2,3.8-.93.22-1.69.84-1.76,1.7-.06.78.89.55,1.45.66Z"/>
      <path class="cls-12" d="m47.31,94.57c-1.93,1.27-3.98.84-6.02.38.11-.78.73-1.2,1.24-1.69,1.5-1.44,2.92-2.95,4.13-4.65.9.75.62,1.78.58,2.71-.05,1.04-.18,2.07.08,3.09,0,0,0,.15,0,.15Z"/>
      <path class="cls-14" d="m46.65,88.61c-1.21,1.7-2.63,3.21-4.13,4.65-.5.48-1.13.91-1.24,1.69-1.05-2-.19-4.1-.3-6.15-.03-.51.41-.64.8-.63,1.63.05,3.3-.32,4.87.44Z"/>
      <path class="cls-14" d="m50.01,104.13c.82-.11,1.91-.28,2.19.78.31,1.14.52,2.54-.26,3.52-.82,1.03-2.22.84-3.38.6-1.04-.21-.78-1.14-.67-1.9.03-.21-.05-.43-.07-.65-.18-2.23-.08-2.34,2.18-2.34Z"/>
      <path class="cls-14" d="m39.67,88.7c.57,1.83.38,3.72.22,5.56-.11,1.32-1.32,1.4-2.44,1.4-1.16,0-1.37-.68-1.35-1.63.03-1.8-.53-3.62.15-5.4.01.33.01.66.04.98.04.47-.17,1.05.42,1.3.62.26,1.07-.14,1.4-.58.46-.61,1.31-.83,1.55-1.63Z"/>
      <path class="cls-12" d="m45.32,104.15c1.18-.34,1.76.04,1.74,1.32-.01.71.13,1.42.18,2.13.04.53-.18.97-.6,1.29-.76.58-4.61.58-5.32,0-.33-.28-.15-.59,0-.89,1.29-1.32,3.1-2.12,4-3.85Z"/>
      <path class="cls-12" d="m41.92,87.25c-1.3.05-.87-.9-.91-1.57.35-1.67,1.1-3.08,2.61-3.99.81-.49,1.44-1.19,2.02-1.93,2.15-.4,1.65,1.05,1.55,2.22-1.66,1.13-3.12,2.49-4.57,3.87-.41.39-.71.82-.7,1.41Z"/>
      <path class="cls-14" d="m41.92,87.25c-.01-.59.29-1.02.7-1.41,1.45-1.38,2.91-2.74,4.57-3.87.03,1.38.04,2.76.11,4.13.07,1.31-.64,1.63-1.77,1.5-1.2-.13-2.41-.24-3.61-.36Z"/>
      <path class="cls-12" d="m47.99,94.02c-.03-1-.02-2-.09-2.99-.06-.92-.44-2.02.66-2.5,1.01-.44,2.23-.49,3.22.02,1.01.51.48,1.57.43,2.42-1.64.7-2.59,2.36-4.23,3.05Z"/>
      <path class="cls-14" d="m47.99,101.34c-.13-.98-.08-1.96-.27-2.95-.3-1.52.41-2.29,1.94-2.38,2.03-.11,2.65.4,2.62,2.16,0,.49-.05.99-.08,1.48-.52-.91-1.08-.7-1.68-.07-.72.74-1.47,1.47-2.52,1.76Z"/>
      <path class="cls-12" d="m45.97,96.23c-1.22,2.17-3.09,3.7-5.09,5.1-.01-.05-.03-.11-.04-.16-.57-4.78.31-5.63,5.13-4.94Z"/>
      <path class="cls-12" d="m47.99,101.34c1.05-.29,1.79-1.02,2.52-1.76.61-.62,1.16-.84,1.68.07.03.27.08.55.1.82.13,2.87-.72,3.54-3.55,2.85-1.23-.3-.91-1.16-.74-1.98Z"/>
      <path class="cls-14" d="m45.63,79.76c-.59.74-1.21,1.44-2.02,1.93-1.51.92-2.26,2.32-2.61,3.99-.65-1.83.13-3.7-.14-5.56-.11-.75.58-.81,1.16-.75,1.2.12,2.4.26,3.6.39Z"/>
      <path class="cls-14" d="m47.99,94.02c1.64-.69,2.59-2.35,4.23-3.05.02.77.11,1.54.04,2.31-.06.63.48,1.6-.56,1.82-1.14.24-2.35.75-3.48-.08-.35-.26-.48-.58-.23-.99Z"/>
      <path class="cls-14" d="m45.32,104.15c-.9,1.73-2.7,2.52-4,3.85-.66-4.33-.79-4.2,4-3.85Z"/>
      <path class="cls-12" d="m39.67,88.7c-.24.8-1.1,1.02-1.55,1.63-.33.44-.78.84-1.4.58-.6-.25-.38-.83-.42-1.3-.03-.33-.03-.66-.04-.98,1.21-1.03,2.37-1.01,3.42.07Z"/>
      <path class="cls-12" d="m52.06,87.4h-3.29c.64-1.44,1.75-2.2,2.8-2.71,1.26-.61.33,1.01.91,1.27-.03.27-.07.55-.1.82-.06.05-.08.12-.04.19-.09.14-.19.28-.28.42Z"/>
      <path class="cls-12" d="m39.6,87.05c-.55-.11-1.51.12-1.45-.66.07-.87.83-1.48,1.76-1.7-.03.8.44,1.66-.31,2.36Z"/>
      <path class="cls-14" d="m52.34,86.98c-.04-.07-.02-.14.04-.19,0,0,.06.11.06.11l-.1.09Z"/>
      <path class="cls-14" d="m47.31,94.57s0-.15,0-.15c.04.04.07.08.11.12-.04.01-.08.02-.11.03Z"/>
      <path class="cls-14" d="m99.66,107.52c.05,1.67-.79,1.89-1.83,1.86-.55-.02-1.1-.01-1.65-.07-2.64-.29-3.77-2.11-2.91-4.62.15-.43.44-.68.84-.66,1.83.11,3.79-.46,5.39.91.28.24.44.3.61,0,1.08-1.84,2.69-.39,4.03-.63.31-.06.4.31.41.6.02.39.11.8.01,1.15-.27.98.77,2.43-.58,2.92-1.41.51-2.95.26-4.33-1.46Z"/>
      <path class="cls-14" d="m101.82,87.59c-1.13-.2-1.54-.96-1.55-2.02-.02-1.44-.06-2.88-.03-4.31.03-1.59.83-2.01,3.13-1.94,1.45.05,2.04.7,1.77,2.1-.35,1.88.28,3.84-.45,5.69-.05-.05-.11-.1-.16-.15.01-.65.05-1.31.03-1.96-.02-.53-.37-.74-.74-.34-.75.8-1.97,1.3-1.91,2.68-.05.07-.08.16-.08.25Z"/>
      <path class="cls-14" d="m98.02,96.24c.93-.36,1.52-.17,1.52.94,0,1.43.03,2.86-.01,4.29-.04,1.41-.84,2.09-2.23,2.04-.93-.03-1.87-.06-2.79-.22-1.16-.2-1.36-.96-.92-1.96,1.76-1.45,3.23-3.15,4.42-5.09Z"/>
      <path class="cls-12" d="m88.58,99.03c.14-.88.29-1.76.43-2.64.16-.03.32-.06.49-.08q3.41-.45,3.42,2.87c0,.55.03,1.1.03,1.65,0,1.69-.75,2.43-2.34,2.5-1.71.08-2.01-.94-1.96-2.33.02-.66-.04-1.32-.06-1.97Z"/>
      <path class="cls-14" d="m93.53,94.36c-.05-1.71-.09-3.42-.16-5.12-.04-.82.39-1.1,1.11-1.08,1.49.05,2.98.06,4.47.2,1.25.12.24.84.26,1.3-.75-.07-1.17.44-1.66.88-1.38,1.23-2.47,2.76-4,3.82Z"/>
      <path class="cls-14" d="m88.91,95.67c-.48-1.33-.14-2.7-.25-4.05,1.57-.72,2.53-2.02,3.31-3.49.3.02.58.15.59.46.02,1.88.07,3.77,0,5.65-.04.91-.83,1.26-1.64,1.37-.66.09-1.33.04-1.99.06Z"/>
      <path class="cls-12" d="m93.53,94.36c1.54-1.06,2.63-2.59,4-3.82.49-.44.91-.95,1.66-.88.03,1.04.03,2.09.09,3.13.05.96.47,2-.91,2.43-1.87.58-4.15.2-4.84-.87Z"/>
      <path class="cls-14" d="m92.6,106.39c0,.17.02.34,0,.5-.1.69.37,1.7-.29,2-.8.36-1.84.28-2.77.26-.41,0-.54-.52-.57-.9-.06-.72-.03-1.44-.09-2.16-.2-2.34.59-2.99,2.92-2.43.61.15.81.51.81,1.06,0,.55,0,1.11,0,1.66Z"/>
      <path class="cls-12" d="m93.23,83.71c1.71-1.28,3.69-2.22,5.04-3.96,1.61-.42,1.4.63,1.28,1.6-1.55,2.27-4.01,3.63-5.7,5.75-.86-1.01-.37-2.26-.62-3.39Z"/>
      <path class="cls-12" d="m100.27,94.03c.02-1.26-.26-2.51-.05-3.78.21-1.23.88-2.01,2.1-2.23,2.15-.38,2.93.8,2.2,3.28-1.09-.02-1.56.89-2.23,1.49-.6.53-1.04,1.3-2.01,1.24Z"/>
      <path class="cls-14" d="m100.55,103.26c-.68-2.01-.44-4.11-.29-6.13.11-1.44,1.68-1.09,2.73-1.12.93-.02,1.61.41,1.61,1.48,0,.5-.05.99-.07,1.49-1.94.86-3.84,1.75-3.98,4.28Z"/>
      <path class="cls-14" d="m93.84,87.09c1.69-2.12,4.15-3.48,5.7-5.75.06,1.6.15,3.2.18,4.81.01.75-.15,1.54-1.15,1.47-1.58-.12-3.15-.34-4.73-.52Z"/>
      <path class="cls-12" d="m98.02,96.24c-1.19,1.94-2.67,3.64-4.42,5.09-.25-1.42-.4-2.83-.14-4.28.13-.7.41-.93,1.08-.9,1.16.05,2.32.06,3.48.09Z"/>
      <path class="cls-12" d="m100.55,103.26c.14-2.53,2.04-3.42,3.98-4.28,0,.05.02.11.03.16.39,4.13.11,4.42-4,4.12Z"/>
      <path class="cls-14" d="m100.27,94.03c.97.07,1.41-.71,2.01-1.24.67-.6,1.15-1.51,2.23-1.49.23,2.74-.39,4.04-2.2,4.21-.94.09-2.28.26-2.04-1.48Z"/>
      <path class="cls-12" d="m91.97,88.13c-.77,1.48-1.74,2.77-3.31,3.49-.06-.44-.12-.88-.17-1.32,0-.32,0-.64,0-.96.5-2.31,2.22-1.1,3.49-1.21Z"/>
      <path class="cls-12" d="m89.59,87.28c.14-.99.98-1.43,1.63-1.98.94-.8.94.45,1.39.73-.27,2.2-1.94,1-3.02,1.25Z"/>
      <path class="cls-14" d="m104.28,87.38c-.78.53-1.62.31-2.46.21,0-.09.03-.17.08-.25.76-.03,1.52-.06,2.28-.08,0,0,.09.12.09.12Z"/>
      <path class="cls-14" d="m104.69,87.12c-.14.09-.28.17-.41.26,0,0-.09-.12-.09-.11.11-.1.23-.2.34-.29.06.05.11.1.16.15Z"/>
      <path class="cls-12" d="m104.53,86.97c-.11.1-.23.2-.34.29-.76.03-1.52.06-2.28.08-.06-1.38,1.16-1.88,1.91-2.68.37-.39.72-.18.74.34.03.65-.01,1.31-.03,1.96Z"/>
    </g>
  </g>
</svg>