<?xml version="1.0" encoding="UTF-8"?>
<svg id="Laag_2" data-name="Laag 2" xmlns="http://www.w3.org/2000/svg" viewBox="0 0 124.32 135.37">
  <defs>
    <style>
      .cls-1 {
        fill: #534338;
      }

      .cls-1, .cls-2, .cls-3, .cls-4, .cls-5, .cls-6, .cls-7, .cls-8, .cls-9, .cls-10, .cls-11, .cls-12, .cls-13, .cls-14, .cls-15, .cls-16 {
        stroke-width: 0px;
      }

      .cls-2 {
        fill: #7d251a;
      }

      .cls-3 {
        fill: #9c5939;
      }

      .cls-4 {
        fill: #6e574d;
      }

      .cls-5 {
        fill: #3a322d;
      }

      .cls-6 {
        fill: #17201b;
      }

      .cls-7 {
        fill: #cd9750;
      }

      .cls-8 {
        fill: #d5c3a3;
      }

      .cls-9 {
        fill: #bbdade;
      }

      .cls-10 {
        fill: #aa2f25;
      }

      .cls-11 {
        fill: #8b6632;
      }

      .cls-12 {
        fill: #671f17;
      }

      .cls-13 {
        fill: #8ab249;
      }

      .cls-14 {
        fill: #7cbccd;
      }

      .cls-15 {
        fill: #faf0da;
      }

      .cls-16 {
        fill: #fefefe;
      }
    </style>
  </defs>
  <g id="Laag_1-2" data-name="Laag 1">
    <g>
      <path class="cls-7" d="m108.25,123.39c.05.93-.06,1.72-1.3,1.61-.13-.09-.26-.18-.39-.27,0,0,0,0,0,0,.07-.4.21-.82-.33-1.03,0,0,.02.02.02.02-.25-1.28-.5-2.57-.74-3.85.01-3.42.05-6.84.02-10.26-.04-4.91.17-9.81-.13-14.72.18-.58.36-1.15.53-1.73,1.19-4.09.51-8.09-.27-12.17-.98-5.13-2.7-9.85-6.08-13.89.03-.36-.14-.63-.34-.91-2.25-3.33-5.66-4.99-9.21-6.49-4.09-1.72-8.4-1.72-12.72-1.68-1.64-1.61-1.93.43-2.75,1.02-4.05.56-7.49,2.45-10.3,5.3-6.15,6.23-8.81,14.03-8.92,22.59-.2,15.14-.06,30.29-.07,45.44-.78,0-1.55,0-2.33,0-.1-6.81-.27-13.62-.29-20.43-.02-7.37.44-14.73.26-22.1-.09-3.82-.38-7.62-1.34-11.32-2.24-8.56-6.56-15.51-15.21-18.84-3.29-1.27-6.75-2.13-10.36-1.29-.45-1.49-1.21-1.28-2.08-.37-1.43.36-2.87.71-4.3,1.07-4.9,1.23-8.66,4.16-11.84,7.97-.24.02-.43.09-.46.37l.03-.03c-.32.13-.45.35-.35.69l.02-.02c-.29-.05-.35.12-.35.35l.02-.03c-.36.11-.45.35-.35.69l.02-.02c-.44.06-.48.34-.35.69v-.02c-.84.04-.28.75-.51,1.09-2.28,3.7-3.31,7.82-3.93,12.06-.79.31-.5,1.04-.53,1.57-.11,2.42-.15,4.84-.21,7.26-.05.6-.14,1.2-.14,1.81,0,10.65,0,21.31-.02,31.96,0,1.22.09,2.4.6,3.52-.52.99.19,2.07-.2,3.07-.27.4-.7.22-1.06.29V50.75c.5.03.99.09,1.49.09,29.51,0,59.03,0,88.54,0,5.05,0,10.09-.07,15.14-.06,2.45,0,3.07.6,3.07,2.86,0,8.27-.03,16.54-.02,24.8,0,14.98.02,29.96.03,44.95Zm-42.43-68.21c-.02-.48-.33-.66-.75-.72-.65-.1-2.9,1.53-2.98,2.16-.03.26.13.4.34.51.67.36,3.32-1.16,3.4-1.95Zm-43.92,2.16c1.14-.18,1.64-1.04,2.32-1.64.25-.22.49-.48.28-.84-.23-.39-.6-.43-1-.33-.91.24-1.41,1-2.01,1.61-.21.22-.6.45-.31.8.18.23.54.31.73.4Zm73.33-.48c1.48.63,2.25-.06,2.95-.89.32-.38,1.1-.72.53-1.31-.46-.48-1.17-.3-1.64.15-.62.6-1.15,1.28-1.84,2.05Zm-76.92,1.33c.01-.68-.45-.93-.95-.94-.61,0-1.26.19-1.29.95-.02.62.54.8,1.03.81.56,0,1.08-.19,1.21-.82Zm39.82.87c.51-.13,1.09-.38,1.1-1.11.01-.55-.5-.72-.94-.71-.68.02-1.17.42-1.21,1.11-.03.55.45.69,1.04.71Zm48.13-4.33c-.57,0-1.17.04-1.25.76-.07.65.49.82.98.86.58.04,1.13-.17,1.23-.83.1-.69-.42-.79-.96-.79Zm-6.34,2.48c-.53.15-1.16.24-1.18.91-.02.55.43.88.97.89.61.02,1.05-.35,1.15-.94.11-.67-.46-.74-.93-.87Zm-9.72.2c-.64-.01-1.14.3-1.11.93.02.6.62.72,1.12.67.5-.05.99-.26,1.02-.87.03-.71-.5-.74-1.02-.73Zm4.25-2.17c-.05-.58-.52-.69-.95-.71-.5-.02-1.05.1-1.17.69-.12.58.34.77.81.81.61.05,1.08-.19,1.32-.8Zm-22.86.97c-.49.13-1.1.19-1.16.78-.07.67.51.76,1.03.76.54,0,1.05-.16,1.06-.79,0-.56-.49-.66-.93-.74Zm-3.63,2.02c.03-.67-.31-.85-.82-.84-.52,0-1.02.1-1.12.71-.11.67.43.85.92.86.5.01.96-.2,1.02-.73Zm-65.3-.15c-.04-.66-.48-.69-.94-.69-.51,0-1.04.02-1.04.73,0,.62.46.67.92.66.51,0,1.02-.04,1.06-.7Zm29.93-1.06c-.03-.66-.51-.63-.94-.63-.44,0-.93,0-.99.6-.06.59.34.75.83.75.53,0,.98-.13,1.1-.72Zm5.56,1.76c.52,0,1-.1,1.11-.72.09-.52-.26-.66-.69-.67-.57-.02-1.14.04-1.2.77-.04.52.38.58.78.61Zm22.77-3.45c.01-.47-.27-.59-.64-.6-.5-.02-1.08-.04-1.17.61-.06.44.41.45.73.44.41,0,.92.13,1.08-.45Z"/>
      <path class="cls-2" d="m0,34.42v-3c1.55-.96,3.34-.47,4.99-.82,2.44-.53,4.91-.96,7.35-1.52,3.32-.76,6.76-.69,10.05-1.59.61.39,1.3.2,1.94.21,23.92.03,47.85.05,71.77.08.5,0,1,.02,1.5.03.09.91-.5,1.37-1.23,1.52-2.96.6-5.45,2.4-8.36,3.15-1,.26-2.06.66-2.59,2.03h22.49c-.8.76-1.48.57-2.1.57-6.77.01-13.54,0-20.3.02-.9,0-1.76-.1-2.61-.37-1.44-.83-3.03-.97-4.63-.96-15.74.14-31.47-.29-47.21.28-10.35.38-20.72-.34-31.07.37Z"/>
      <path class="cls-2" d="m0,41.09v-5.66c1.6.08,3.17-.07,4.74-.41,4.72.01,9.44.03,14.15.04,1.41.01,2.84.16,4.24,0,1.29-.16,2.62.42,3.86-.27,1.44.74,2.87.14,4.31-.02,3.22.08,6.43-.25,9.66-.07,2,.11,4.08.39,6.08-.2,3.28.49,6.58.09,9.87.21,6.56.17,13.12.57,19.69.37,1.36.28,2.66-.44,4.01-.27-.63.89-1.38,1.6-2.55,1.61-1.34.02-2.6.41-3.88.74-2.81.73-5.53,1.79-8.48,2.07-1.14.11-2.66-.37-3.71,1.01.75.23,1.31.65,1.99.2.48.57,1.14.31,1.7.3,5.55-.08,11.09-.2,16.64-.31,2.17-.8,4.46-.23,6.67-.63,1.72.59,3.49.17,5.24.25,3.55.01,7.11.02,10.66.03,1.62.22,3.15-.2,4.67-.64.13.33.26.66.4.98-.71.43-1.5.34-2.27.34-10.31,0-20.63,0-30.94,0-.55,0-1.11,0-1.66.04-3.96.35-7.93.83-11.89.55-2.32-.17-4.61-.37-6.91.06-.25-1.13-1.16-.64-1.77-.63-18.17.16-36.34-.38-54.5.31Z"/>
      <path class="cls-13" d="m0,19.1v-3.33c2.29-.68,2.57-1.27,1.77-3.65.41-.16.82-.32,1.23-.47.22-.04.43-.07.65-.11l1.9.25c.52,4.63,2.35,5.73,7.96,4.37-2.93-.38-3.72-1.92-3.22-4.26.98-.37,2.06.04,3.03-.41.23-.02.45-.05.68-.07.57.5,1.33.26,1.96.48-.32,1.41-.74,2.86.73,3.9,1.76,1.24,3.59,1.07,5.45.14-.42-.32-.76-.58-1.1-.84-.34-1.21-.54-2.42-.02-3.63.35-.12.69-.25,1.04-.37.17,0,.33.02.5.02.78.55,1.39,1.11,1.28,2.25-.28,2.77.14,3.18,2.88,3.12.49-.01.98-.08,1.47-.12.8.19,1.22.04,1.05-.95-.18-1.01-.15-2.04.04-3.05.88.14,1.65,1.38,2.64.24,0,3.97,3.56,4.68,7.65,3.61-3.15-1.47-3.17-1.5-2.96-4.45,2.43-.03,4.87-.05,7.3-.08,0,.41.02.82.03,1.23-.26.65-.5,1.31-.78,1.95-.29.67.28.52.58.65-.21.42-1.05,1,.32.93,1.43-.07,2.88-.02,4.48-.02-1.18-1.6-.31-3.15-.21-4.69.95,0,1.91,0,2.86,0,.61,3.83,3.15,5.57,6.44,4.32-1.15-1.22-1.87-2.6-1.65-4.32,1.5.02,3,.04,4.51.06.33,1.81-.03,3.38-1.79,4.52,3.42.17,5.09-1.03,6.58-4.57,1.05,0,2.1.02,3.14.02.47,1.59-.05,3.08-.54,4.56h4.82c-.21-1.64-.32-3.17.55-4.59,1.54.02,3.08.04,4.62.06,0,1.23.45,2.52-.51,3.62-.07.47-.32,1.01.55,1,1.41-.02,2.82,0,4.38,0-.36-.47-.56-.72-.76-.98.18-1.24.35-2.48.53-3.73.55-.03,1.1-.06,1.64-.09.58.11,1.17.13,1.75-.03,1.91.08,3.81.15,5.72.23.06,1.43.12,2.85.17,4.28-.05.09-.05.19-.01.28-.01.12-.02.25-.03.37-.84,1.93-2.43,2.45-4.36,2.32-1.82-1.76-2.73-1.78-4.69-.06-.27-.06-.55-.18-.81-.15-2.55.23-5.08.41-7.5-.73-.35-.17-.93-.11-1.3.06-2.83,1.28-5.76.78-8.67.54-.78-.9-1.75-.87-2.73-.46-.73.31-1.45.53-2.23.58-5.38.36-10.76.05-16.14.16-1.19.02-2.31-.09-3.31-.84-.56-.41-1.25-.54-1.91-.33-3.33,1.06-6.66,1.34-10.01.1-.46-.17-.86-.03-1.29.1-2.7.8-5.53.92-8.21.52-1.78-.26-3.29-.65-4.81.5-4.44,0-8.89.01-13.33.02Z"/>
      <path class="cls-5" d="m109.94,40.42c-.13-.33-.26-.66-.4-.98-1.08-4.73-2.07-9.49-4-13.97.36-.13.72-.25,1.08-.38,2.09,5.8,4.19,11.61,6.28,17.41.82,2.28,1.63,4.58,2.48,6.85.44,1.17.42,1.81-1.17,1.77-3.48-.08-3.76.3-3.53,3.84.03.5.14.99.13,1.48-.01.91.23,1.35,1.27,1.1,1.52-.37,2.59.34,3.24,1.68,2.97,6.09,5.93,12.2,8.99,18.52-3.63,0-7.09.02-10.55,0-2.63-.02-3.1.39-3.1,3.05.04,10.98.1,21.96.13,32.93,0,2.33-.1,4.65-.14,6.98-.04,2.43-.03,2.43-2.42,2.69-.01-14.98-.03-29.96-.03-44.95,0-8.27.02-16.54.02-24.8,0-2.26-.62-2.85-3.07-2.86-5.05,0-10.09.06-15.14.06-29.51,0-59.03,0-88.54,0-.5,0-.99-.06-1.49-.09v-1c37.04,0,74.08,0,111.12,0,2.3,0,2.39-.13,1.47-1.99-.12-.22-.24-.44-.35-.66-.11-.35-.23-.7-.34-1.05-.12-.2-.24-.4-.35-.59-.07-1.82-.48-3.54-1.59-5.04Zm.65,21.63c-.4,1.31.51,2.35.7,3.54-.23,1.27.07,2.58-.34,3.84-.12.33-.23.65-.35.98-.32,1-1.35,1.99-.03,3,.23.39.33.8.36,1.25.11,1.29.86,2.03,2.14,2.05,2.54.05,5.07.03,7.61.02.34,0,1.01.02.71-.53-.61-1.1-.62-2.64-2.12-3.14.38-1.06-.75-1.7-.74-2.65,0-.22.01-.44.02-.66-.59-2.72-2.31-4.96-3.27-7.53-.18-.49-.34-1.09-1.05-1.14-.25-.59-.46-1.22-.77-1.77-.35-.61-.93-.95-1.65-.79-.72.16-1.13.68-1.19,1.39-.06.71-.03,1.42-.04,2.13Z"/>
      <path class="cls-10" d="m22.39,27.5c-3.29.9-6.74.83-10.05,1.59-2.44.56-4.9.99-7.35,1.52-1.65.36-3.44-.14-4.99.82v-7c8.28,0,16.56,0,24.85,0,.71,0,1.43.06,2.12-.23.19.16.31.07.41-.11l.06-.08.1.02c.14.05.28.11.42.16.79.38,1.58.36,2.36-.02.54,0,1.08.02,1.61.03-.2.89-1.03.72-1.6.86-1.85.44-3.72.79-5.58,1.18l.03.19h78.15c.27.6,1.25,0,1.46,1.06-2.21,0-4.36,0-6.51,0-.66-.02-1.33-.07-1.99-.07-9.86.02-19.73.06-29.59.07-14.63.01-29.26,0-43.89.01Z"/>
      <path class="cls-5" d="m31.93,24.2c-.54,0-1.08-.02-1.61-.03-.79-.15-1.57-.12-2.36.02-.14-.05-.28-.11-.42-.16-.74-.6-1.6-.61-2.49-.61-8.34.01-16.69,0-25.03,0v-.33c3.66-.01,7.32-.03,10.98-.04q2.81,0,2.01-2.6c.12-.46.23-.91.35-1.37,1.52-1.15,3.03-.76,4.81-.5,2.68.4,5.52.27,8.21-.52.43-.13.83-.26,1.29-.1,3.35,1.23,6.68.95,10.01-.1.66-.21,1.35-.09,1.91.33,1,.74,2.12.86,3.31.84,5.38-.11,10.76.2,16.14-.16.79-.05,1.51-.28,2.23-.58.97-.41,1.94-.44,2.73.46-.03.37.04.76-.29,1.04-.69-.96-1.59-.89-2.45-.38-.79.47-.76,1.35-.5,2.07.34.93,1.11,1.27,2.12,1,.36-.1.76-.03,1.15-.04,0,0,.13,0,.13,0h.13c1.81,1.2,3.81.4,5.72.57,1.62.14,1.45-.54.94-1.55.23,0,.47,0,.7,0,.72,1.69,2.18,1.26,3.51,1.21.19.25.37.5.56.76-2.66.89-5.42.69-8.16.69-9.15,0-18.3,0-27.46,0-2.72,0-5.43.07-8.15.1Zm4.47-1.76c1.17,0,2.34,0,3.51,0,.09.7.58.69,1.1.64.6-.06,1.21-.15,1.82-.15,5.26.03,10.53.09,15.79.1.44,0,1.08.33,1.31-.31.22-.61-.06-1.2-.46-1.69-.51-.63-1.23-.64-1.97-.64-4.55.01-9.09.05-13.64-.02-1.53-.02-2.82.31-3.87,1.43.06-.85-.15-1.66-.58-2.38-.47-.8-1.25-.82-2.04-.5-.92.37-.28.66.05.99.22.22.07.47-.16.48-.88.05-.79.97-1.27,1.36-.33-.6-.55-1.49-1.43-1.3-1.72.36-3.53,0-5.2.67-.58-.36-1.22.05-1.87-.21-1.11-.45-1.96.03-2.42,1.15-1.28-1.99-3.13-1.86-5.08-1.37-.86-.54-1.82-.15-2.73-.27-.44-.06-.55-.07-.49-.41.18-1-.5-.93-1.08-.91-1.01.04-1.45.81-1.61,1.62-.15.75.28,1.35,1.04,1.67.76.32,1.44.47,2.04-.34.27-.36.34-1.41,1.22-.58.14.51-1.01,1.47.26,1.5,2.13.05,4.29.4,6.4-.22,1.35.18,2.65-.31,3.98-.32,2,.97,4.14.22,6.19.5.44.06,1.03.21,1.19-.51Z"/>
      <path class="cls-12" d="m112.58,47.76c.93,1.86.83,1.99-1.47,1.99-37.04,0-74.08,0-111.12,0v-1.33c.72,0,1.44-.02,2.16-.02,35.88,0,71.76,0,107.64-.01.69,0,1.45.28,2.07-.28.29-.01.55-.07.71-.34Z"/>
      <path class="cls-1" d="m0,132.38c.36-.07.79.1,1.06-.29.33-.02.65-.04.98-.06.13.02.26.04.39.07,1.37.75,2.81.38,4.24.27,2.1.03,4.2.07,6.3.07,11.11-.01,22.22-.04,33.33-.06,1.33-.14,2.74.55,4.01-.33,1.11.42.38-.92.95-1,.69.28-.17,2.54,1.69,1.32.78,0,1.55,0,2.33,0,1.03,1.1,2.36.46,3.56.63.49.07,1.04.07,1.12-.62.08-.72-.53-.69-.97-.84.99-.05,1.69-.41,1.61-1.57.12,0,.23.02.35.03.03,1.27-.02,2.54.5,3.77.7-.69.69-1.61.41-2.33-.48-1.25-.44-2.45-.26-3.7.21,0,.42-.02.62-.03-.05,1,.68,1.04,1.38,1.12-.09.57-1.35-.29-1.01.81-.44.38-.26.89-.28,1.35,0,.48-.15.98.25,1.39.15.79.77.65,1.31.65,4.6,0,9.2-.01,13.8.01.66,0,1.19-.1,1.57-.68.03.73.05,1.46.08,2.19-1.33.47-2.59-.23-3.92-.21-7.91.11-15.82.11-23.73.07-17.23-.1-34.45-.04-51.68-.04v-2Zm14.93.82c-1.82-.09-3.63-.35-5.41.2,1.82.34,3.61-.25,5.41-.2Z"/>
      <path class="cls-12" d="m111.89,46.05c.11.35.23.7.34,1.05-.71.44-1.5.32-2.27.32-36.65,0-73.3,0-109.96,0v-1c5.2-.12,10.41-.22,15.6-.25,31.43-.14,62.86-.08,94.29-.09.66,0,1.33-.02,1.99-.03Z"/>
      <path class="cls-2" d="m0,45.75v-4c9.58,0,19.17-.08,28.75.03,7.19.08,14.37-.33,21.56-.32-.25.97-1.21.82-1.78.87-3.72.34-7.4,1.04-11.11,1.39-5.42.51-10.83,1.22-16.3,1.03-.69-.02-1.38,0-1.45.94-3.68.12-7.34.02-11-.53-2.88-.44-5.79.27-8.67.59Z"/>
      <path class="cls-1" d="m91.31,16.77c.01-.12.02-.25.03-.37.03-.03.1-.06.09-.08-.01-.07-.05-.14-.08-.21-.06-1.43-.12-2.85-.17-4.28.04-2.49.11-4.99.1-7.48,0-1.63-.92-2.81-2.37-2.92-1.31-.1-2.64-.34-3.95.02-.13,0-.26,0-.39,0-2.33,0-4.65,0-6.98.01-.22,0-.44,0-.66,0-4.89,0-9.78,0-14.68,0-.22,0-.44,0-.66,0-4.03-.07-8.06-.17-12.09-.18-3.18-.01-6.36.09-9.54.14-.11-.02-.22-.03-.33-.03-.82-.49-1.71-.24-2.56-.22-3.5.08-7-.28-10.49.19-.2.04-.41.07-.61.11-4.1,0-8.21-.02-12.31-.03-.12,0-.24,0-.37,0-3.12.02-6.24.04-9.36.06-.31-.01-.63-.03-.94-.04-1-.01-1.99-.03-2.99-.04V.11C.55.07,1.1,0,1.65,0,30.15,0,58.66,0,87.16,0c3.91,0,4.86.99,4.86,4.91,0,3.66.1,7.31.12,10.97,0,.56.26,1.26-.52,1.59-.01-.27-.05-.54-.31-.7Z"/>
      <path class="cls-2" d="m0,47.42c36.65,0,73.3,0,109.96,0,.77,0,1.56.12,2.27-.32.12.22.24.44.35.66-.16.27-.43.33-.71.34-37.29,0-74.58-.01-111.87-.02v-.67Z"/>
      <path class="cls-10" d="m47.04,34.49c-2.01.59-4.08.31-6.08.2-3.23-.18-6.44.15-9.66.07-1.44-.8-2.87-.12-4.31.02-1.24.69-2.57.12-3.86.27-1.39.17-2.82.02-4.24,0-.19-.27-.47-.24-.74-.24-4.48.01-8.96.03-13.44.04-1.57-.06-3.16-.36-4.7.23v-.67c10.35-.7,20.72.01,31.07-.37,15.74-.58,31.47-.14,47.21-.28,1.6-.01,3.19.12,4.63.96-.77.02-1.53.05-2.3.07-1.36-.18-2.65.55-4.01.27-.99-.56-2.16-.56-3.19-.57-5.49-.09-10.98,0-16.47.02-3.3,0-6.6-.02-9.9-.03Z"/>
      <path class="cls-10" d="m50.31,41.46c-7.19-.01-14.37.4-21.56.32-9.58-.11-19.16-.03-28.75-.03v-.67c18.16-.69,36.34-.15,54.5-.31.61,0,1.52-.49,1.77.63-1.99.02-3.98.04-5.97.05Z"/>
      <path class="cls-10" d="m0,45.75c2.89-.32,5.79-1.03,8.67-.59,3.67.56,7.32.66,11,.54.17.01.33.03.5.03,29.8,0,59.6,0,89.4,0,.65,0,1.31-.17,1.96-.26.12.2.24.4.35.59-.66.01-1.33.03-1.99.03-31.43,0-62.86-.06-94.29.09-5.19.02-10.4.13-15.6.25v-.67Z"/>
      <path class="cls-3" d="m0,48.08c37.29,0,74.58.01,111.87.02-.62.56-1.38.28-2.07.28-35.88.02-71.76.01-107.64.01-.72,0-1.44.01-2.16.02v-.33Z"/>
      <path class="cls-6" d="m95.6,135.37c-.28-.55-.78-.81-1.33-1-.02-.88-.78-1.01-1.35-1.34-.33-.44-.66-.88-1-1.32,3.35,0,6.7.04,10.05-.03,1.48-.03,1.21.54.65,1.36-.58.23-.73.69-.7,1.26-1.12,1.12-2.76.36-3.99,1.08h-2.33Z"/>
      <path class="cls-9" d="m0,1.44c1,.01,1.99.03,2.99.04,0,3.39,0,6.78.01,10.16-.41.16-.82.32-1.23.47-.59-.23-1.18-.45-1.77-.68v-3c.63.03.86.85,1.51.79.65-1.54-.13-2.19-1.51-2.45V1.44Z"/>
      <path class="cls-16" d="m0,23.43c8.34,0,16.69,0,25.03,0,.89,0,1.76,0,2.49.61,0,0-.09-.02-.09-.02,0,0-.06.08-.06.08-.14.04-.28.07-.41.11-.68.29-1.4.23-2.12.23-8.28,0-16.56,0-24.85,0v-1Z"/>
      <path class="cls-6" d="m12.98,20.45c-3.06-.4-6.13.12-9.2-.03-1.26-.06-2.53,0-3.79.01v-1.33c4.44,0,8.89-.01,13.33-.02-.12.46-.23.91-.35,1.37Z"/>
      <path class="cls-3" d="m0,35.09c1.54-.59,3.13-.29,4.71-.23,0,0,.03.15.03.15-1.56.34-3.14.49-4.74.41v-.33Z"/>
      <path class="cls-8" d="m105.41,94.9c.29,4.9.08,9.81.13,14.72.03,3.42-.01,6.84-.02,10.26-.47,1.24-.1,2.53-.23,3.79,0,.42.02.84.02,1.27-1.13.03-2.26.06-3.39.09-.15-10.86.38-21.73-.32-32.58-.38-5.95-2.49-11.19-6.45-15.65-2.91-3.28-6.75-4.75-10.98-5.24-6.04-.69-11.48.73-15.74,5.28-4.4,4.7-6.37,10.44-6.44,16.8-.09,8.82-.05,17.64-.02,26.46,0,1.64-.79,3.27,0,4.91-1.27.75-2.64.3-3.97.33-.01-11.32-.04-22.64-.02-33.96,0-5.56.43-11.06,2.62-16.29,7.16-17.08,25.35-17.1,34.37-10.33,6.12,4.59,8.65,11.16,9.98,18.36.72,3.9.25,7.86.47,11.79Z"/>
      <path class="cls-6" d="m71.62,21.44c-.23,0-.47,0-.7,0-1.18-1.19-2.65-.54-4-.67-1.38-.13-2.42.06-2.66,1.65h-.13s-.13,0-.13,0c-.1-.47.15-1.18-.33-1.36-1.38-.52-.16-.87.01-1.29.33-.28.26-.67.29-1.04,2.92.23,5.84.73,8.67-.54.37-.17.95-.23,1.3-.06,2.43,1.14,4.96.96,7.5.73.26-.02.54.1.81.15.28.6.64,1.09,1.41,1.03.26.07.64.06.74.23.21.35-.17.43-.42.51-.47.16-.8.42-.68.97.11.52.51.66.99.71.54.06,1.08.19,1.62.29.15.6.7.23,1.01.42,0,.4,0,.81,0,1.21-1.44,0-2.88,0-4.33,0-.11-.3-.22-.61-.33-.91.29-.06.76-.03.84-.19.11-.23-.27-.16-.45-.22-.13-1.62-1.44-2.01-2.63-2.23-1.66-.3-3.4-.38-4.52,1.34-1.12-1.2-2.31-1.98-3.9-.74Zm.17-1.35c.61,0,1.1.02,1.59,0,.47-.02,1.04.17,1.33-.38.06-.11-.1-.4-.23-.54-.43-.47-.98-.47-1.52-.24-.45.19-.91.39-1.18,1.17Z"/>
      <path class="cls-5" d="m101.92,134.3c-.03-.57.13-1.03.7-1.26,1.8.35,2.6-.45,3.4-2.11.71-1.46.31-1.54-.84-1.67-.21-.27-.65-.37-.6-.83.3-.02.68.12.77-.36.71-.28.87.63,1.55.73-.04-1.17-.39-1.71-1.56-1.14-.03-.21-.05-.42-.08-.64.02-.09.03-.18.04-.28,1.33-.01,2.65-.03,3.98-.04.1,1.85.15,3.71.32,5.56.13,1.39-.53,2.03-1.79,2.28-1.99.4-3.94.06-5.9-.25Zm5.83-6.86c-.8,1.64-.4,2.98.02,4.47.61-1.47.43-2.8-.02-4.47Z"/>
      <path class="cls-2" d="m109.28,126.71c-1.33.01-2.65.03-3.98.04-4.44-.02-8.87-.02-13.31-.08-1.71-.02-3.42-.16-5.13-.3-.39-.03-1.29-.07-.3-.76,1.19-.49,2.46-.1,3.67-.28,2.92.7,5.92.3,8.88.63,2.08.23,4.28.43,6.27-.69,1.6.43,3.33-.32,4.88.53.01.49-.49.55-.71.86-.09.04-.18.05-.27.05Z"/>
      <path class="cls-5" d="m86.93,24.39c0-.4,0-.81,0-1.21,5.66.08,11.32.16,16.99.23.22.23.45.45.67.68-5.88.1-11.77.2-17.65.3Z"/>
      <path class="cls-6" d="m91.31,16.77c.27.16.3.43.31.7.11,1.54-.45,2.44-2.14,2.65-1.42.17-2.35,1.26-3.23,2.31-.66-.99.44-2-.03-2.99.24-.12.48-.24.73-.36,1.94.14,3.52-.38,4.36-2.32Z"/>
      <path class="cls-1" d="m105.38,125.28c-1.99,1.13-4.19.92-6.27.69-2.96-.33-5.96.07-8.88-.63.12-.09.25-.26.37-.26,2.42.02,4.83-.15,7.25.17,1.34.17,2.74.36,4.06-.22,1.13-.03,2.26-.06,3.39-.09.03.11.05.23.08.34Z"/>
      <path class="cls-4" d="m86.23,19.44c.47.99-.63,2,.03,2.99,0,.22-.12.33-.34.32-.54-.1-1.07-.23-1.62-.29-.48-.05-.88-.2-.99-.71-.12-.55.21-.81.68-.97.24-.08.63-.16.42-.51-.1-.16-.48-.16-.74-.23.4-2.1,1.59-.89,2.56-.61Z"/>
      <path class="cls-6" d="m104.59,24.09c-.22-.23-.45-.45-.67-.68,1.38-.22,2.57-.13,2.7,1.67-.36.13-.72.25-1.08.38-.1-.01-.2-.02-.3-.03.11-.61-.41-.91-.66-1.34Z"/>
      <path class="cls-4" d="m105.28,123.67c.12-1.26-.24-2.55.23-3.79.25,1.28.5,2.57.74,3.85-.32-.02-.65-.04-.97-.06Z"/>
      <path class="cls-4" d="m109.55,126.67c.22-.3.72-.36.71-.86,1.79.58.4,1.64.51,2.53-1.11-.17.16-1.81-1.22-1.67Z"/>
      <path class="cls-4" d="m106.24,123.71c.54.2.4.63.33,1.03-.59-.19-.22-.68-.33-1.03Z"/>
      <path class="cls-4" d="m106.56,124.73c.13.09.26.18.39.27-.22.04-.38,0-.39-.27Z"/>
      <path class="cls-3" d="m2.04,132.02c-.33.02-.65.04-.98.06.39-1-.33-2.08.2-3.07.2-12.43.11-24.86.05-37.28.08-2.94.17-5.89.25-8.83.62-4.25,1.65-8.36,3.93-12.06.18-.36.35-.73.53-1.09,0,0-.01.02-.01.02.29-.14.38-.38.35-.69,0,0-.02.02-.02.02.36-.11.46-.35.35-.69,0,0-.02.03-.02.03.31.07.35-.13.35-.35,0,0-.02.02-.02.02.32-.13.54-.31.35-.69,0,0-.03.03-.03.03.35.12.38-.16.46-.37,3.17-3.81,6.93-6.73,11.84-7.97,1.43-.36,2.87-.71,4.3-1.07.44,1.59,1.24,1.09,2.08.37,3.61-.85,7.07.02,10.36,1.29,8.64,3.33,12.97,10.28,15.21,18.84.97,3.71,1.25,7.51,1.34,11.32.18,7.37-.28,14.73-.26,22.1.02,6.81.19,13.62.29,20.43-1.86,1.22-.99-1.05-1.69-1.32.52-.69.34-1.49.34-2.26,0-14.08,0-28.15,0-42.23-.47.05-.51-.14-.43-.58.24-1.24-.22-2.48-.44-3.63-.36-1.86-.95-3.71-1.57-5.55-1.86-5.57-5.3-9.86-10.07-13.08-4.91-3.31-10.45-4.05-16.22-3.24-4.95.69-9.46,2.54-12.91,6.24-5.53,5.94-8.11,13.2-8.23,21.19-.2,12.98-.06,25.96-.05,38.94,0,1.73-.27,3.49.35,5.18Z"/>
      <path class="cls-3" d="m58.99,131.54c.44.15,1.05.13.97.84-.08.69-.63.68-1.12.62-1.19-.16-2.53.47-3.56-.63,0-15.15-.14-30.29.07-45.44.11-8.56,2.76-16.36,8.92-22.59,2.81-2.84,6.25-4.73,10.3-5.29,1.05.01,2.07-.04,2.75-1.02,4.32-.04,8.62-.04,12.72,1.68,3.55,1.49,6.96,3.16,9.21,6.49.19.28.37.55.34.91-.45-.31-.96-.57-1.35-.95-3.72-3.66-8.18-5.68-13.33-6.53-9.06-1.49-18.8,3.1-23.29,11.07-3.24,5.75-4.57,11.98-4.61,18.47-.09,12.54,0,25.08.03,37.62,0,.54-.13,1.12.23,1.61-.03.54-.05,1.07-.08,1.61.03,1.17,1.12,1.1,1.79,1.51Z"/>
      <path class="cls-5" d="m57.27,128.41c-.37-.49-.23-1.07-.23-1.61-.03-12.54-.12-25.08-.03-37.62.04-6.49,1.37-12.72,4.61-18.47,4.49-7.97,14.23-12.56,23.29-11.07,5.15.85,9.61,2.87,13.33,6.53.39.38.9.63,1.35.95,3.38,4.04,5.1,8.76,6.08,13.89.78,4.08,1.46,8.08.27,12.17-.17.58-.35,1.15-.53,1.73-.21-3.93.26-7.89-.47-11.79-1.33-7.2-3.85-13.78-9.98-18.36-9.03-6.76-27.21-6.74-34.37,10.33-2.19,5.23-2.61,10.73-2.62,16.29-.02,11.32.01,22.64.02,33.96-.24.46-.52.85.29,1.11.88.28,1.71.34,2.6.14,1.86-.43,3.65.04,5.43.5-.57.35-1.19.18-1.78.11-.84-.1-1.66-.22-2.31.49-.21,0-.42.02-.62.02-.28,0-.53.03-.65.33-.11.01-.23.02-.34.04-.17-.89-.76-1.09-1.58-1.03-.84.07-1.16.5-1.06,1.31-.23.01-.46.03-.69.04Z"/>
      <path class="cls-8" d="m1.3,91.73c.06,12.43.15,24.86-.05,37.28-.51-1.12-.6-2.3-.6-3.52.02-10.65,0-21.31.02-31.96,0-.6.09-1.2.14-1.81.16,0,.33,0,.49,0Z"/>
      <path class="cls-11" d="m65.82,55.17c-.07.79-2.72,2.3-3.4,1.94-.21-.11-.37-.26-.34-.51.08-.62,2.33-2.25,2.98-2.16.42.06.73.24.75.73Z"/>
      <path class="cls-11" d="m21.91,57.33c-.18-.1-.54-.18-.73-.4-.28-.35.1-.58.31-.8.61-.61,1.11-1.38,2.01-1.61.4-.1.78-.06,1,.33.21.36-.03.62-.28.84-.68.6-1.18,1.46-2.32,1.64Z"/>
      <path class="cls-11" d="m95.24,56.85c.68-.77,1.22-1.45,1.84-2.05.47-.46,1.18-.63,1.64-.15.58.6-.21.94-.53,1.31-.7.83-1.47,1.52-2.95.89Z"/>
      <path class="cls-15" d="m1.3,91.73c-.16,0-.33,0-.49,0,.06-2.42.1-4.84.21-7.26.02-.53-.27-1.26.53-1.57-.08,2.94-.17,5.89-.25,8.83Z"/>
      <path class="cls-11" d="m18.32,58.17c-.13.63-.65.83-1.21.82-.49,0-1.06-.19-1.03-.81.03-.76.69-.96,1.29-.95.5,0,.96.26.95.94Z"/>
      <path class="cls-11" d="m58.13,59.04c-.59-.02-1.07-.16-1.04-.71.04-.69.53-1.09,1.21-1.11.44-.01.95.16.94.71-.01.73-.59.98-1.1,1.11Z"/>
      <path class="cls-11" d="m106.27,54.71c.54,0,1.05.1.96.79-.09.66-.65.87-1.23.83-.49-.03-1.05-.2-.98-.86.08-.72.68-.75,1.25-.76Z"/>
      <path class="cls-11" d="m99.92,57.19c.47.13,1.04.19.93.87-.1.59-.54.96-1.15.94-.53-.01-.99-.34-.97-.89.03-.67.66-.76,1.18-.91Z"/>
      <path class="cls-11" d="m90.2,57.39c.52,0,1.05.02,1.02.73-.02.61-.52.83-1.02.87-.5.05-1.09-.07-1.12-.67-.02-.63.47-.94,1.11-.93Z"/>
      <path class="cls-11" d="m94.46,55.23c-.24.61-.71.85-1.32.8-.47-.04-.93-.24-.81-.81.12-.59.67-.71,1.17-.69.43.02.9.12.95.71Z"/>
      <path class="cls-11" d="m71.59,56.2c.45.08.94.19.93.74,0,.63-.52.79-1.06.79-.52,0-1.1-.09-1.03-.76.06-.59.67-.65,1.16-.78Z"/>
      <path class="cls-11" d="m67.96,58.22c-.06.53-.52.74-1.02.73-.49-.01-1.02-.2-.92-.86.1-.6.6-.7,1.12-.71.51,0,.85.17.82.84Z"/>
      <path class="cls-11" d="m26.01,58.39c-.84.73-1.65,1.22-2.08-.37.88-.91,1.63-1.12,2.08.37Z"/>
      <path class="cls-11" d="m2.66,58.07c-.04.66-.55.69-1.06.7-.46,0-.92-.04-.92-.66,0-.71.53-.73,1.04-.73.46,0,.91.04.94.69Z"/>
      <path class="cls-11" d="m77.33,58.04c-.68.97-1.71,1.03-2.75,1.02.83-.59,1.12-2.62,2.75-1.02Z"/>
      <path class="cls-11" d="m32.59,57.01c-.12.6-.57.73-1.1.72-.49,0-.89-.17-.83-.75.06-.6.55-.6.99-.6.43,0,.92-.03.94.63Z"/>
      <path class="cls-11" d="m38.15,58.77c-.39-.04-.82-.1-.78-.61.06-.73.63-.79,1.2-.77.43.01.78.16.69.67-.11.62-.59.71-1.11.72Z"/>
      <path class="cls-11" d="m60.92,55.32c-.16.58-.67.44-1.08.45-.32,0-.78,0-.73-.44.09-.65.67-.62,1.17-.61.36.01.65.13.64.6Z"/>
      <path class="cls-15" d="m6.01,69.74c-.18.37-.35.73-.53,1.09.23-.34-.33-1.06.53-1.09Z"/>
      <path class="cls-15" d="m7.35,67.4c.19.38-.03.57-.35.69-.1-.34.03-.56.35-.69Z"/>
      <path class="cls-15" d="m6.68,68.4c.11.35,0,.58-.35.69-.1-.34,0-.58.35-.69Z"/>
      <path class="cls-15" d="m6.35,69.07c.03.31-.06.55-.35.69-.13-.35-.09-.62.35-.69Z"/>
      <path class="cls-15" d="m7.79,67.06c-.08.22-.11.5-.46.37.03-.28.22-.36.46-.37Z"/>
      <path class="cls-15" d="m7.02,68.07c0,.23-.04.43-.35.35,0-.23.07-.41.35-.35Z"/>
      <path class="cls-12" d="m105.24,25.43c.1,0,.2.02.3.03,1.94,4.48,2.92,9.24,4,13.97-1.53.45-3.05.86-4.67.64-.27-.38-.68-.3-1.06-.3-3.2,0-6.4.02-9.6.04-1.75,0-3.5,0-5.25-.01-2.2.39-4.5-.17-6.67.63-.39-.59-.99-.36-1.51-.36-5.61,0-11.23-.07-16.83.36-.68.45-1.24.03-1.99-.2,1.05-1.38,2.57-.9,3.71-1.01,2.96-.28,5.67-1.34,8.48-2.07,1.28-.33,2.54-.72,3.88-.74,1.17-.02,1.92-.72,2.55-1.61.77-.02,1.53-.05,2.3-.07.85.27,1.71.37,2.61.37,6.77-.02,13.54,0,20.3-.02.62,0,1.31.19,2.1-.57h-22.49c.52-1.37,1.59-1.78,2.59-2.03,2.9-.75,5.4-2.55,8.36-3.15.74-.15,1.32-.61,1.23-1.52.09-.11.18-.21.27-.32,2.15,0,4.3,0,6.51,0-.21-1.06-1.19-.46-1.46-1.06.47-1.05,1.38-1.06,2.32-1Z"/>
      <path class="cls-8" d="m97.87,27.49c-.09.11-.18.21-.27.32-.5-.01-1-.03-1.5-.03-23.92-.02-47.85-.04-71.77-.08-.65,0-1.33.19-1.94-.21,14.63,0,29.26,0,43.89-.01,9.86,0,19.73-.05,29.59-.07.66,0,1.33.05,1.99.07Z"/>
      <path class="cls-12" d="m111.53,45.46c-.65.09-1.31.26-1.96.26-29.8.01-59.6,0-89.4,0-.17,0-.33-.02-.5-.03.07-.95.76-.96,1.45-.94,5.47.18,10.88-.52,16.3-1.03,3.71-.35,7.39-1.06,11.11-1.39.57-.05,1.53.1,1.78-.87,1.99-.02,3.98-.03,5.97-.05,2.3-.42,4.58-.22,6.91-.06,3.96.28,7.93-.2,11.89-.55.55-.05,1.11-.04,1.66-.04,10.31,0,20.63,0,30.94,0,.77,0,1.56.09,2.27-.34,1.11,1.5,1.52,3.22,1.59,5.04Z"/>
      <path class="cls-3" d="m56.94,34.52c5.49-.02,10.98-.11,16.47-.02,1.03.02,2.19.01,3.19.57-6.57.2-13.13-.2-19.69-.37,0-.06,0-.13.04-.18Z"/>
      <path class="cls-3" d="m63.97,40.43c5.6-.43,11.22-.37,16.83-.36.52,0,1.12-.24,1.51.36-5.55.11-11.09.22-16.64.31-.57,0-1.22.27-1.7-.3Z"/>
      <path class="cls-8" d="m4.74,35.02s-.03-.15-.03-.15c4.48-.01,8.96-.03,13.44-.04.27,0,.56-.04.74.24-4.72-.01-9.44-.03-14.15-.04Z"/>
      <path class="cls-3" d="m94.22,39.81c3.2-.01,6.4-.03,9.6-.04.37,0,.79-.08,1.06.3-3.55-.01-7.11-.02-10.66-.03.02-.08.02-.16.01-.24Z"/>
      <path class="cls-8" d="m56.94,34.52c-.03.06-.04.12-.04.18-3.29-.12-6.59.28-9.87-.21,3.3,0,6.6.02,9.9.03Z"/>
      <path class="cls-3" d="m26.98,34.78c1.44-.14,2.87-.81,4.31-.02-1.44.16-2.87.76-4.31.02Z"/>
      <path class="cls-7" d="m94.22,39.81c0,.08,0,.16-.01.24-1.75-.08-3.52.34-5.24-.25,1.75,0,3.5,0,5.25.01Z"/>
      <path class="cls-9" d="m39.97,1.44c3.18-.05,6.36-.15,9.54-.14,4.03.01,8.06.12,12.09.18,0,1.87,0,3.74,0,5.6-1.49,0-2.99-.09-4.48,0-3.25.22-4.89,1.55-5.91,4.64-.95,0-1.91,0-2.86,0-.02-.49-.05-.99-.05-1.48,0-3.18,0-3.12-3.17-3.18-1.49-.03-1.72.71-1.39,1.85.27.93.28,1.83.18,2.76-2.43.03-4.87.05-7.3.08-.33-1.2,0-2.36.15-3.54,1.14-.1,2.29-.16,3.41-.33.76-.11,1.15-.43.11-.86-.13-1.87.27-3.77-.34-5.6Zm5.76,2.23c-.84.11-2.09-.21-2.04,1.21.04,1.28,1.3,1.04,2.06,1.05.76,0,2.01.18,2-1.13,0-1.29-1.14-1.05-2.02-1.13Z"/>
      <path class="cls-9" d="m62.26,1.49c4.89,0,9.78,0,14.68,0-.61,1.83-.21,3.71-.33,5.57-1.49.47-2.33,1.88-3.65,2.72-.3-2.83-.3-2.84-3.07-2.66-.82.05-1.64.22-2.68.37,1.7,1.18,1.45,2.73,1.25,4.28-1.05,0-2.1-.02-3.14-.02.01-2.15-1.06-3.56-3-4.37-.02-1.96-.03-3.93-.05-5.89Z"/>
      <path class="cls-9" d="m13.67,1.46c4.1,0,8.21.02,12.31.03,0,1.89,0,3.77,0,5.66-2.17-.12-4.38-.46-6.38.77,1.54.2,3.2-.12,3.96,1.8.42,1.06-.95.74-.98,1.41-.17,0-.33-.02-.5-.02.13-.96-.5-1.06-1.21-1.09-1.91-.08-3.55.51-4.89,1.89-.64-.22-1.39.02-1.96-.48,0-1.1-.02-2.2-.02-3.29.79-.63.4-.92-.33-1.11.55-1.85.46-3.7.02-5.55Z"/>
      <path class="cls-9" d="m26.58,1.38c3.49-.47,6.99-.1,10.49-.19.85-.02,1.75-.26,2.56.22-.65,1.82-.19,3.7-.3,5.55-.81.05-1.61.1-2.42.15-.01-.33-.09-.68-.02-.99.35-1.67-.38-1.97-1.79-1.45-.15.06-.33.07-.49.09-1.26.1-1.43,1.2-1.91,2.04-.52.89-2.09-.3-2.43,1.13,2.22.26,2.32.41,1.91,2.73-.12.65-.16,1.32-.24,1.98-.99,1.14-1.77-.11-2.64-.24-.29-.48-.78-.68-1.25-.92,0-1.5-.28-2.9-1.43-3.99,0-2.03-.02-4.06-.02-6.09Z"/>
      <path class="cls-9" d="m84.96,1.47c1.31-.36,2.65-.12,3.95-.02,1.45.11,2.36,1.28,2.37,2.92.01,2.49-.06,4.99-.1,7.48-1.91-.08-3.81-.15-5.71-.23-.56-.34-.54-.88-.53-1.44.02-2.9.02-5.8.02-8.7Z"/>
      <path class="cls-9" d="m82.08,11.73c-.12-.86-.15-1.74-.39-2.57-.39-1.33-1.34-2.07-2.75-2.16-.92-.55-1.82-1.2-1.53-2.42.25-1.04.1-2.06.18-3.09,2.33,0,4.65,0,6.98-.01,0,2.09.11,4.19-.02,6.27-.08,1.31.09,2.73-.84,3.89-.55.03-1.1.06-1.64.09Z"/>
      <path class="cls-9" d="m56,11.75c-.13-.99-.12-1.97.29-2.91.38-.87.97-1.42,2-1.4,1.03.02,1.63.58,1.97,1.47.35.94.52,1.91.25,2.91-1.5-.02-3-.04-4.51-.06Z"/>
      <path class="cls-9" d="m10.29,11.89c-.63-1.19.13-2.45-.16-3.65,1.05-.24,2.12-.12,3.18-.09,0,1.11,0,2.22.01,3.33-.97.45-2.05.04-3.03.41Z"/>
      <path class="cls-9" d="m73.27,11.76c-.11-.49.19-.85.42-1.21.67-1.04,1.42-2.09,2.88-1.67,1.51.43,1.53,1.67,1.32,2.94-1.54-.02-3.08-.04-4.62-.06Z"/>
      <path class="cls-14" d="m4.04,7.22c.02.26.04.52.06.78-.85,1.09-.24,2.37-.45,3.54-.22.04-.43.07-.65.11,0-3.39,0-6.78-.01-10.16.31.01.63.03.94.04.03,1.9.07,3.8.1,5.7Z"/>
      <path class="cls-9" d="m3.65,11.54c.21-1.17-.41-2.45.45-3.54,1.91-.03,2.21.3,1.83,2.03-.13.58-.25,1.17-.38,1.75-.63-.08-1.27-.16-1.9-.25Z"/>
      <path class="cls-5" d="m86.23,19.44c-.97-.29-2.16-1.49-2.56.61-.76.06-1.13-.43-1.41-1.03,1.96-1.71,2.87-1.7,4.69.06-.24.12-.48.24-.73.36Z"/>
      <path class="cls-14" d="m83.72,11.63c.92-1.15.76-2.57.84-3.89.12-2.08.02-4.18.02-6.27.13,0,.26,0,.39,0,0,2.9,0,5.8-.02,8.7,0,.56-.03,1.1.53,1.44-.58.16-1.17.13-1.75.03Z"/>
      <path class="cls-14" d="m13.32,11.48c0-1.11,0-2.22-.01-3.33.22,0,.44-.02.67-.03,0,1.1.02,2.2.02,3.29-.23.02-.45.05-.68.07Z"/>
      <path class="cls-4" d="m91.36,16.12c.03.07.06.14.08.21,0,.02-.06.05-.09.08-.04-.1-.04-.19.01-.28Z"/>
      <path class="cls-12" d="m114.24,61.08c.7.05.86.64,1.05,1.14.96,2.57,2.67,4.8,3.27,7.53-2.51-.73-5.07-.16-7.6-.32.41-1.25.11-2.57.34-3.84.58.09,1.14.06,1.67-.21-.37-1.26-1.84-1.85-1.72-3.29.76-1.05,2.1-.37,3-1.01Z"/>
      <path class="cls-2" d="m119.27,73.06c1.5.5,1.51,2.04,2.12,3.14.31.55-.36.53-.71.53-2.54.01-5.07.03-7.61-.02-1.28-.02-2.03-.76-2.14-2.05-.04-.45-.13-.86-.36-1.25,1.08.04,2.17.2,3.23.1,1.82-.19,3.7.27,5.47-.44Zm-4.03,2.34h0c.66,0,1.32.02,1.97,0,.35-.01.88.13.85-.46-.02-.35-.4-.5-.75-.51-1.43-.01-2.85-.01-4.28,0-.34,0-.71.08-.68.52.03.42.41.46.74.46.71,0,1.43,0,2.14,0Z"/>
      <path class="cls-12" d="m119.27,73.06c-1.78.71-3.65.25-5.47.44-1.06.11-2.15-.05-3.23-.1-1.32-1.01-.29-2,.03-3,2.64.58,5.29.08,7.94,0-.01.96,1.12,1.59.74,2.65Z"/>
      <path class="cls-2" d="m114.24,61.08c-.9.64-2.24-.04-3,1.01-.22-.02-.43-.03-.65-.05.01-.71-.02-1.42.04-2.13.06-.72.47-1.24,1.19-1.39.72-.16,1.3.18,1.65.79.32.56.52,1.18.77,1.77Z"/>
      <path class="cls-2" d="m118.53,70.41c-2.65.08-5.29.58-7.94,0,.12-.33.23-.65.35-.98,2.53.16,5.09-.41,7.6.32,0,.22-.01.44-.02.66Z"/>
      <path class="cls-15" d="m110.59,62.04c.22.02.43.03.65.05-.12,1.43,1.35,2.02,1.72,3.29-.52.27-1.09.3-1.67.21-.19-1.19-1.11-2.24-.7-3.54Z"/>
      <path class="cls-2" d="m105.24,25.43c-.94-.06-1.85-.04-2.32,1-26.05,0-52.1,0-78.15,0l-.03-.19c1.86-.39,3.73-.74,5.58-1.18.58-.14,1.4.03,1.6-.86,2.72-.04,5.43-.1,8.15-.1,9.15-.01,18.3,0,27.46,0,2.74,0,5.49.2,8.16-.69.27,0,.55.01.82.02.06.37-.66.19-.48.66,2.21.05,4.41-.11,6.58.29,1.44,0,2.88,0,4.33,0,5.88-.1,11.77-.2,17.65-.3.24.43.77.73.66,1.34Z"/>
      <path class="cls-2" d="m27.95,24.19c.79-.14,1.57-.17,2.36-.02-.78.38-1.57.4-2.36.02Z"/>
      <path class="cls-2" d="m26.96,24.2c.14-.04.27-.07.41-.11-.1.18-.22.27-.41.11Z"/>
      <path class="cls-4" d="m36.39,22.45c-.14-.23-.27-.46-.41-.69.48-.39.39-1.31,1.27-1.36.24-.01.38-.26.16-.48-.34-.33-.97-.62-.05-.99.79-.32,1.57-.29,2.04.5.42.71.63,1.52.58,2.38-.03.21-.06.42-.08.63-1.17,0-2.34,0-3.51,0Z"/>
      <path class="cls-4" d="m19.98,20.7c-.68-.02-1.35-.03-1.6.79-.88-.83-.95.22-1.22.58-.6.81-1.27.66-2.04.34-.76-.32-1.18-.92-1.04-1.67.16-.81.6-1.58,1.61-1.62.58-.02,1.25-.09,1.08.91-.06.34.05.35.49.41.91.12,1.86-.27,2.73.27Z"/>
      <path class="cls-4" d="m63.68,19.78c-.18.42-1.39.77-.01,1.29.48.18.23.89.33,1.36-.38,0-.79-.06-1.14.04-1.02.27-1.78-.08-2.12-1-.26-.71-.29-1.6.5-2.07.86-.51,1.77-.58,2.45.38Z"/>
      <path class="cls-4" d="m29.35,21.12c-.14.24.48.38.09.66-.36.09-.48.35-.45.69,0,0,.02-.01.02-.01-1.33,0-2.63.5-3.98.32,0-.24.02-.47.03-.71.46-1.12,1.31-1.6,2.42-1.15.65.26,1.29-.15,1.87.21Z"/>
      <path class="cls-12" d="m75.52,22.18c-.13.16-.26.32-.39.48-1.33.05-2.78.48-3.51-1.22,1.58-1.25,2.78-.46,3.9.74Z"/>
      <path class="cls-5" d="m2.04,132.02c-.62-1.69-.34-3.45-.35-5.18-.02-12.98-.16-25.96.05-38.94.12-7.98,2.7-15.25,8.23-21.19,3.45-3.7,7.96-5.55,12.91-6.24,5.77-.81,11.31-.07,16.22,3.24,4.77,3.22,8.21,7.51,10.07,13.08.61,1.83,1.21,3.69,1.57,5.55.22,1.16.68,2.39.44,3.63-.08.43-.04.63.43.58-.55.27-.31.78-.31,1.18-.01,13.29,0,26.58,0,39.87,0,.4-.23.9.3,1.18,0,.77.18,1.57-.34,2.26-.58.08.16,1.42-.95,1,.02-.23.04-.45.07-.68.03-.04.1-.09.1-.1-.04-.08-.1-.15-.15-.22-1.42-.55-2.88-.69-4.37-.32-.7-.11-1.41-.32-2.11-.32-13.5,0-27,.01-40.5.03-1.03.15-.35,1.25-.91,1.65-.13-.02-.26-.04-.39-.07Zm44.34-9.66c-.27,1.1-.05,2.21-.06,3.31-.02,2.02,1.61,1.52,2.72,1.64,1.51.16.94-1.08.95-1.75.05-11.66.02-23.32.11-34.98.03-3.01-.19-5.97-.85-8.89-2.36-10.39-8.63-18.87-20.68-20.07-7.15-.71-13.41,1.48-18.26,6.82-5.33,5.88-7.54,13.05-7.61,20.89-.08,9.05-.12,18.1.03,27.15.06,3.67-.77,7.4.54,11.01.04.11-.08.29-.13.44-.65,1.77-.65,1.78,1.19,1.78,14.82,0,29.64,0,44.47,0,.33,0,.68.03.98-.07.42-.14.51-.55.48-.96-.03-.39-.27-.6-.64-.62-.39-.03-.78-.02-1.16-.02-13.82,0-27.63,0-41.45.02-.16-.35-.64-.47-.63-.94.38-.54.3-1.17.3-1.77.01-9.99,0-19.97.03-29.96.02-5.74,1.4-11.12,4.91-15.75,4.63-6.12,10.96-8.32,18.37-7.01,8.08,1.42,12.59,6.82,15.01,14.34.75,2.33.75,4.79,1.47,7.11-.44,6.62.18,13.24.08,19.86-.04,2.81-.11,5.62-.17,8.43Zm-2.73,4.7c.95.03,1.36-.47,1.14-1.35-.21-.83-.14-1.66-.14-2.48-.01-8.77-.04-17.54.01-26.31.02-3.37-.56-6.6-1.71-9.74-2.43-6.68-6.68-11.16-14.1-12.19-7.15-.99-14.32,2.57-17.84,8.93-2.77,5-3.05,10.48-3.27,15.92-.35,8.7.03,17.41.23,26.11.02.73.18,1.19,1.01,1.14.46.46,1.04.29,1.58.29,10.51,0,21.02,0,31.52,0,.53,0,1.12.18,1.56-.32Z"/>
      <path class="cls-5" d="m92.92,133.03c.57.33,1.32.47,1.34,1.34-4.32.68-8.64.52-12.97.07-.64-.07-1.31.07-1.96.11-.03-.73-.05-1.46-.08-2.19,0-.1-.01-.2-.03-.29-.09-.79-.19-1.58-.28-2.37h0c.25-.13.32-.36.33-.62,0-.1,0-.21,0-.31.43-.08.87-.15,1.3-.23,2.58-.03,5.28.93,7.64-.91-.17.78.74,1.11.75,1.82l.11,1.12c-.11.17-.11.33.06.47.09.07.15.16.17.27-.03.11-.06.22-.09.32v.06c-.4.36-.38.7.04,1.02,1.18.62,2.45.2,3.67.32Zm-12.24-1.78c-.27,1.28.19,1.88,1.55,1.8,1.1-.07,2.21-.03,3.32-.01,1.23.02,1.93-.43,1.64-1.79.36-1.49-.25-2.01-1.72-1.86-1.03.1-2.09.1-3.12,0-1.49-.15-2.09.37-1.67,1.86Z"/>
      <path class="cls-8" d="m50.38,131.37c-.02.23-.04.45-.07.68-1.27.88-2.68.18-4.01.33-.38-.91-1.19-.63-1.87-.66-5.37-.23-10.73.37-16.1.31-6.59-.08-13.17-.52-19.76-.31-.69.02-1.48-.22-1.89.64-1.43.1-2.87.48-4.24-.27.56-.41-.11-1.5.92-1.65,1.56.63,3.38.76,4.87.8,12.15.27,24.31.15,36.47.14.51,0,1.18.21,1.28-.65,1.49-.36,2.95-.23,4.37.32-.01.11,0,.22.05.32Z"/>
      <path class="cls-8" d="m62.22,127.7c.65-.72,1.46-.59,2.31-.49.58.07,1.21.23,1.78-.11.84.54,1.5-.28,2.24-.3,1.46-.04,2.92.11,4.38.19,1.68-.22,3.34.81,5.03.12.42.46,1.66.4,1,1.56-5.12.05-10.24.1-15.35.16-.7-.07-1.43-.11-1.38-1.12Z"/>
      <path class="cls-16" d="m6.67,132.36c.41-.87,1.2-.62,1.89-.64,6.59-.21,13.17.24,19.76.31,5.37.06,10.73-.54,16.1-.31.68.03,1.49-.25,1.87.66-11.11.02-22.22.05-33.33.06-2.1,0-4.2-.05-6.3-.07Z"/>
      <path class="cls-15" d="m62.32,130.99c.02-.47-.16-.98.28-1.35,5.12-.02,10.23-.04,15.35-.07.11,0,.22.01.33.02.12.04.24.07.35.11.05.71.25,1.42-.95,1.4-5.12-.07-10.24-.08-15.37-.11Z"/>
      <path class="cls-3" d="m79.22,132.07c.02.1.03.19.03.29-.37.58-.9.68-1.57.68-4.6-.03-9.2-.01-13.8-.01-.54,0-1.16.14-1.31-.65.13-.66.63-.68,1.14-.66,5.17.16,10.35-.41,15.51.36Z"/>
      <path class="cls-6" d="m77.95,129.57c-5.12.02-10.23.04-15.35.07-.34-1.11.92-.24,1.01-.81,5.12-.05,10.24-.1,15.35-.16.1.03.2.07.31.1,0,.1,0,.21,0,.31-.26.13-.32.36-.33.62,0,0,0,0,0,0-.1-.06-.21-.06-.31,0-.12-.04-.24-.07-.35-.11-.1-.18-.21-.2-.33-.02Z"/>
      <path class="cls-4" d="m78.63,129.69c.1-.05.21-.05.31,0,.09.79.19,1.58.28,2.37-5.16-.77-10.34-.2-15.51-.36-.51-.02-1.02,0-1.14.66-.41-.4-.25-.91-.25-1.39,5.12.03,10.24.04,15.37.11,1.19.02,1-.69.95-1.4Z"/>
      <path class="cls-8" d="m58.99,131.54c-.67-.41-1.76-.34-1.79-1.51,1.13-.31,2.24-1.76,3.41-.05.08,1.15-.62,1.52-1.61,1.57Z"/>
      <path class="cls-2" d="m60.95,128.06c.12-.3.38-.34.65-.33-.19,1.25-.23,2.46.26,3.7.28.72.29,1.64-.41,2.33-.52-1.23-.47-2.5-.5-3.77,0-.65,0-1.29,0-1.94Z"/>
      <path class="cls-16" d="m60.95,128.06c0,.65,0,1.29,0,1.94-.12,0-.23-.02-.35-.03-1.16-1.7-2.27-.26-3.41.05.03-.54.05-1.07.08-1.61.23-.01.46-.03.69-.04.94.46,1.86.75,2.64-.28.11-.01.23-.02.34-.04Z"/>
      <path class="cls-4" d="m14.93,133.19c-1.8-.05-3.59.54-5.41.2,1.78-.55,3.59-.29,5.41-.2Z"/>
      <path class="cls-9" d="m4.04,7.22c-.03-1.9-.07-3.8-.1-5.7,3.12-.02,6.24-.04,9.36-.06,0,1.83,0,3.66.01,5.49-.99.05-1.98.1-2.96.14,0-.22.02-.45-.03-.66-.16-.65.85-1.68-.29-1.92-1.08-.23-2.47-.27-3.07,1.02-.62,1.32-1.62,1.71-2.93,1.7Z"/>
      <path class="cls-14" d="m77.6,1.49c-.08,1.03.07,2.05-.18,3.09-.3,1.22.61,1.87,1.53,2.42-.78.02-1.56.04-2.34.06.12-1.86-.27-3.74.33-5.57.22,0,.44,0,.66,0Z"/>
      <path class="cls-14" d="m39.33,6.96c.11-1.85-.35-3.73.3-5.55.11,0,.22,0,.33.03.61,1.84.21,3.74.34,5.6-.32-.03-.65-.06-.97-.09Z"/>
      <path class="cls-14" d="m62.3,7.38c-.3.06-.53-.03-.7-.29,0-1.87,0-3.74,0-5.6.22,0,.44,0,.66,0,.01,1.96.03,3.93.04,5.89Z"/>
      <path class="cls-14" d="m26.61,7.46c-.26-.01-.53-.02-.64-.32,0-1.89,0-3.77,0-5.66.2-.04.41-.07.61-.11,0,2.03.02,4.06.02,6.09Z"/>
      <path class="cls-14" d="m13.31,6.95c0-1.83,0-3.66-.01-5.49.12,0,.24,0,.37,0,.45,1.85.53,3.7-.02,5.55-.11-.02-.22-.04-.33-.06Z"/>
      <path class="cls-4" d="m89.21,131.64c.03-.11.06-.22.09-.32,4.73-.42,9.46-.18,14.19.02,1.71.07,2-.48,1.75-1.89-.07-.05-.09-.11-.05-.19,1.15.12,1.55.2.84,1.67-.8,1.66-1.6,2.46-3.4,2.11.55-.82.83-1.39-.65-1.36-3.35.08-6.7.03-10.05.03-.9-.03-1.81-.05-2.71-.08Z"/>
      <path class="cls-3" d="m89.21,131.64c.9.03,1.81.05,2.71.08.33.44.66.88,1,1.32-1.22-.12-2.49.3-3.67-.32-.02-.34-.04-.68-.05-1.02v-.06Z"/>
      <path class="cls-15" d="m101.92,125.03c-1.33.58-2.72.39-4.06.22-2.42-.31-4.84-.14-7.25-.17-.12,0-.24.17-.37.26-1.22.18-2.48-.21-3.67.28-1.42-.3-2.86-.3-4.3-.19-1-.74-2.15-.37-3.21-.33-5.7.23-11.4-.09-17.09-.09-.78-1.64.01-3.27,0-4.91-.03-8.82-.07-17.64.02-26.46.07-6.36,2.04-12.11,6.44-16.8,4.26-4.55,9.69-5.97,15.74-5.28,4.23.48,8.07,1.95,10.98,5.24,3.96,4.46,6.07,9.7,6.45,15.65.7,10.86.17,21.72.32,32.58Zm-21.31-12.32s0-.04,0-.06c1.39,0,2.77,0,4.16,0,1.44.01,2.88.06,4.32.06,2.13,0,2.6-.49,2.63-2.66.07-4.21.11-8.42.23-12.62.17-6.03.42-12.06.9-18.07.18-2.31-.28-2.75-2.62-2.55-1.49.13-2.96.27-4.47.21-4.7-.18-9.41-.28-14.11-.37-1.85-.03-2.39.57-2.28,2.4.23,3.9.56,7.78.44,11.72-.18,5.72.4,11.47.4,17.21,0,1.1.12,2.2.19,3.3.06,1.1.63,1.49,1.74,1.46,2.83-.06,5.65-.02,8.48-.02Z"/>
      <path class="cls-12" d="m61.96,125.01c5.7,0,11.39.31,17.09.09,1.06-.04,2.21-.4,3.21.33.31.2.63.39.94.59-.42,1.12-1.71.28-2.3,1.01,0,0,.03-.02.03-.02-.54-.02-1.08-.05-1.62-.07-2.13-.35-4.26-.37-6.38.04-1.46-.07-2.92-.22-4.38-.19-.74.02-1.4.84-2.24.3-1.78-.46-3.57-.93-5.43-.51-.89.2-1.72.14-2.6-.14-.81-.26-.53-.66-.29-1.11,1.33-.03,2.7.42,3.97-.33Z"/>
      <path class="cls-5" d="m76.51,23.43c.59-.02,1.18-.05,1.77-.07,1.33.04,2.67.08,4,.12.11.3.22.61.33.91-2.17-.4-4.37-.25-6.58-.29-.18-.47.55-.28.48-.66Z"/>
      <path class="cls-4" d="m71.79,20.09c.26-.78.73-.98,1.18-1.17.54-.23,1.09-.23,1.52.24.13.14.29.43.23.54-.29.55-.86.36-1.33.38-.49.02-.98,0-1.59,0Z"/>
      <path class="cls-8" d="m105.26,127.03c.03.21.05.42.08.64,0,.14,0,.27.01.41-.09.47-.47.34-.77.36-1.99-.47-4,.35-5.94.02-2.17-.37-4.2-.46-6.35.21-1.58.49-2.84-.33-3.18-1.62,5.38,0,10.76-.01,16.15-.02Z"/>
      <path class="cls-6" d="m89.12,127.05c.34,1.29,1.6,2.11,3.18,1.62,2.14-.67,4.17-.58,6.35-.21,1.94.33,3.95-.49,5.94-.02-.05.46.38.56.6.83-.04.08-.02.14.05.19-5.42,0-10.84,0-16.27,0,0-.71-.92-1.04-.75-1.82.13-.19.27-.39.4-.58.17,0,.33,0,.5,0Z"/>
      <path class="cls-4" d="m89.12,127.05c-.17,0-.33,0-.5,0-.49-.5-1.11-.21-1.68-.26-.57-.26-1.65.41-1.67-.59,0-.46.15-.55-.34-.51-.59.05-1.21-.07-1.73.33-.31-.2-.63-.39-.94-.59,1.44-.11,2.88-.11,4.3.19-.98.68-.08.72.3.76,1.71.14,3.42.28,5.13.3,4.44.06,8.87.05,13.31.08,0,.09-.02.19-.04.28-5.38,0-10.76.01-16.15.02Z"/>
      <path class="cls-7" d="m107.74,127.43c.45,1.67.63,3,.02,4.47-.42-1.49-.82-2.83-.02-4.47Z"/>
      <path class="cls-4" d="m105.36,128.07c0-.14,0-.27-.01-.41,1.18-.57,1.53-.03,1.56,1.14-.67-.1-.83-1.01-1.55-.73Z"/>
      <path class="cls-16" d="m51.6,128.78c-.54-.28-.3-.78-.3-1.18-.01-13.29-.01-26.58,0-39.87,0-.4-.23-.91.31-1.18,0,14.08,0,28.15,0,42.23Z"/>
      <path class="cls-8" d="m60.6,128.09c-.78,1.03-1.7.74-2.64.28-.1-.8.23-1.24,1.06-1.31.82-.07,1.41.13,1.58,1.03Z"/>
      <path class="cls-12" d="m115.24,75.4c-.71,0-1.43,0-2.14,0-.34,0-.71-.04-.74-.46-.03-.44.33-.52.68-.52,1.43,0,2.85,0,4.28,0,.35,0,.73.16.75.51.03.59-.5.45-.85.46-.66.03-1.32,0-1.97,0h0Z"/>
      <path class="cls-5" d="m29,22.47c-.03-.34.09-.6.45-.69-.08.27-.12.57-.45.69Z"/>
      <path class="cls-1" d="m43.65,127.05c-.44.49-1.03.32-1.56.32-10.51,0-21.02,0-31.52,0-.53,0-1.12.17-1.58-.29.4-.72.34-1.5.34-2.27,0-8.71.02-17.42,0-26.13-.02-4.35.98-8.41,2.98-12.27,4.94-9.54,17.91-11.64,25.49-3.99,4.3,4.34,5.6,10.05,5.78,15.84.29,9.59.09,19.19.09,28.79Z"/>
      <path class="cls-8" d="m7,128.06c13.82,0,27.63-.01,41.45-.02.39,0,.78,0,1.16.02.37.03.61.23.64.62.03.41-.05.82-.48.96-.3.1-.65.07-.98.07-14.82,0-29.64,0-44.47,0-1.83,0-1.83,0-1.19-1.78.05-.15.17-.32.13-.44-1.31-3.61-.49-7.34-.54-11.01-.14-9.05-.11-18.1-.03-27.15.07-7.84,2.28-15.01,7.61-20.89,4.85-5.35,11.11-7.54,18.26-6.82,12.05,1.2,18.32,9.68,20.68,20.07.66,2.92.87,5.87.85,8.89-.1,11.66-.06,23.32-.11,34.98,0,.67.56,1.91-.95,1.75-1.11-.12-2.74.38-2.72-1.64,0-1.1-.22-2.21.06-3.31.8-.19.58-.84.58-1.35.01-8.5.01-17.01,0-25.51,0-.51.22-1.14-.5-1.43-.72-2.32-.72-4.78-1.47-7.11-2.42-7.52-6.93-12.92-15.01-14.34-7.41-1.31-13.74.9-18.37,7.01-3.5,4.63-4.89,10.01-4.91,15.75-.03,9.99-.02,19.97-.03,29.96,0,.61.08,1.23-.3,1.77-.72.34-1.44.69-2.42,1.16q2.03.37,3.05-.22Zm19.74,1.32c3.66,0,7.32,0,10.98,0,.61,0,1.22,0,1.83-.01.34,0,.7-.07.67-.53-.02-.34-.31-.43-.59-.44-.28-.02-.55-.01-.83-.01-7.99,0-15.98,0-23.96.01-.49,0-1.37-.31-1.37.45,0,.91.95.51,1.46.52,3.94.04,7.88.02,11.82.02Z"/>
      <path class="cls-11" d="m43.65,127.05c0-9.6.2-19.2-.09-28.79-.18-5.79-1.48-11.5-5.78-15.84-7.58-7.65-20.55-5.55-25.49,3.99-2,3.85-3,7.92-2.98,12.27.03,8.71,0,17.42,0,26.13,0,.78.06,1.56-.34,2.27-.83.05-.99-.41-1.01-1.14-.2-8.7-.58-17.41-.23-26.11.22-5.44.5-10.92,3.27-15.92,3.51-6.35,10.69-9.92,17.84-8.93,7.42,1.03,11.66,5.51,14.1,12.19,1.15,3.14,1.72,6.38,1.71,9.74-.05,8.77-.02,17.54-.01,26.31,0,.83-.07,1.65.14,2.48.22.89-.19,1.38-1.14,1.35Z"/>
      <path class="cls-15" d="m45.96,130.72c-.1.86-.77.65-1.28.65-12.16,0-24.32.12-36.47-.14-1.49-.03-3.31-.17-4.87-.8,13.5-.01,27-.03,40.5-.03.7,0,1.41.21,2.11.32Z"/>
      <path class="cls-15" d="m46.46,94.08c.72.28.49.91.5,1.43.01,8.5.01,17.01,0,25.51,0,.51.22,1.16-.58,1.35.06-2.81.12-5.62.17-8.43.1-6.62-.53-13.23-.08-19.86Z"/>
      <path class="cls-4" d="m7,128.06q-1.02.59-3.05.22c.98-.47,1.7-.81,2.42-1.16-.01.46.47.59.63.94Z"/>
      <path class="cls-1" d="m50.38,131.37c-.04-.1-.06-.21-.05-.32.05.07.11.14.15.22,0,.02-.06.07-.1.1Z"/>
      <path class="cls-15" d="m88.96,129.45c5.42,0,10.84,0,16.27,0,.25,1.4-.04,1.96-1.75,1.89-4.72-.21-9.46-.45-14.19-.02-.02-.11-.07-.21-.17-.27-.02-.16-.04-.32-.06-.47l-.11-1.12Z"/>
      <path class="cls-15" d="m80.68,131.25c-.41-1.49.18-2.01,1.67-1.86,1.03.1,2.09.1,3.12,0,1.47-.14,2.09.37,1.72,1.86-2.17,0-4.34,0-6.51,0Z"/>
      <path class="cls-8" d="m86.94,126.78c.57.05,1.18-.24,1.68.26-.13.19-.27.39-.4.58-2.37,1.84-5.06.88-7.64.91-.05-.55.09-1.05.37-1.52,0,0-.03.02-.03.02,1.73.48,3.53-.34,5.26.32.37.14.77-.03.77-.57Z"/>
      <path class="cls-4" d="m80.68,131.25c2.17,0,4.34,0,6.51,0,.29,1.36-.41,1.81-1.64,1.79-1.11-.02-2.21-.05-3.32.01-1.36.08-1.82-.52-1.55-1.8Z"/>
      <path class="cls-16" d="m80.94,127.01c-.27.47-.42.97-.37,1.52-.43.08-.87.15-1.3.23-.1-.03-.2-.07-.31-.1.67-1.16-.57-1.1-1-1.56.45-.05.9-.11,1.35-.16.54.02,1.08.05,1.62.07Z"/>
      <path class="cls-4" d="m89.2,131.69c.02.34.04.68.05,1.02-.42-.32-.44-.66-.05-1.02Z"/>
      <path class="cls-1" d="m78.94,129.7c0-.26.07-.5.33-.62-.02.26-.08.49-.33.62Z"/>
      <path class="cls-4" d="m89.07,130.57c.02.16.04.32.06.47-.16-.14-.17-.3-.06-.47Z"/>
      <path class="cls-1" d="m79.32,126.94c-.45.05-.9.11-1.35.16-1.69.69-3.35-.34-5.03-.12,2.12-.42,4.25-.4,6.38-.04Z"/>
      <path class="cls-1" d="m77.95,129.57c.12-.18.23-.16.33.02-.11,0-.22-.01-.33-.02Z"/>
      <path class="cls-1" d="m80.6,112.71c-2.83,0-5.65-.04-8.48.02-1.11.02-1.67-.36-1.74-1.46-.06-1.1-.19-2.2-.19-3.3,0-5.74-.58-11.49-.4-17.21.12-3.95-.21-7.82-.44-11.72-.11-1.84.43-2.44,2.28-2.4,4.71.09,9.41.2,14.11.37,1.51.06,2.98-.09,4.47-.21,2.33-.2,2.8.24,2.62,2.55-.48,6.02-.73,12.04-.9,18.07-.12,4.21-.15,8.42-.23,12.62-.04,2.17-.5,2.66-2.63,2.66-1.44,0-2.88-.05-4.32-.06-1.39-.01-2.77,0-4.16,0,0,.02,0,.04,0,.06Zm-9.31-13.21h-.02c0,3.28.03,6.55-.01,9.83-.02,1.5.64,2.09,2.11,2.08,5.16-.04,10.32-.01,15.49-.03,1.88,0,2.38-.46,2.39-2.17.04-9.82-.13-19.64.42-29.45.09-1.61-.56-2.16-2.14-2.08-5.38.3-10.75-.26-16.12-.29-2.62-.02-2.78.15-2.79,2.83,0,3.95.19,7.87.62,11.8.27,2.47.05,4.99.05,7.49Z"/>
      <path class="cls-16" d="m86.94,126.78c0,.54-.4.71-.77.57-1.73-.66-3.53.16-5.26-.32.59-.74,1.88.1,2.3-1.01.52-.39,1.15-.28,1.73-.33.49-.04.33.05.34.51.01.99,1.1.33,1.67.59Z"/>
      <path class="cls-15" d="m26.74,129.38c-3.94,0-7.88.02-11.82-.02-.52,0-1.46.4-1.46-.52,0-.76.88-.45,1.37-.45,7.99-.02,15.98-.02,23.96-.01.28,0,.56,0,.83.01.29.02.57.1.59.44.03.46-.33.52-.67.53-.61.02-1.22.01-1.83.01-3.66,0-7.32,0-10.98,0Z"/>
      <path class="cls-10" d="m71.29,99.5c0-2.5.22-5.02-.05-7.49-.43-3.93-.63-7.85-.62-11.8,0-2.68.16-2.85,2.79-2.83,5.38.04,10.75.59,16.12.29,1.57-.09,2.23.46,2.14,2.08-.55,9.81-.38,19.63-.42,29.45,0,1.72-.51,2.17-2.39,2.17-5.16.02-10.32,0-15.49.03-1.47.01-2.13-.59-2.11-2.08.04-3.28.01-6.55.01-9.83h.02Zm11.29-19.66c-1.47-.12-2.9-.77-4.41-.34-.52-.03-1.05-.06-1.57-.09h.01c-.74-.91-1.86-.83-2.85-.95-1.09-.13-1.82.71-1.67,1.61.38,2.24-.07,4.52.47,6.74,0,0,.02.1.02.1.01.59.03,1.18.04,1.77-.14,1.76.48,3.51.08,5.28-.01,1.93-.09,3.86-.01,5.79.06,1.57-.34,3.18.26,4.72.02,1.35.03,2.71.05,4.06,0,.24-.01.47.31.52v-.02c0,1.26.92.95,1.66.96,4.32,0,8.65,0,12.97,0,1.22.2,2.04.03,2-1.54-.22-8.51.36-17,.65-25.5.15-4.27.07-4.28-4.16-3.74-.05,0-.1.05-.15.08-.53.08-.95.36-1.35.69-.31.02-.62.04-.94.06-.4-.52-.91-.37-1.41-.21Z"/>
      <path class="cls-5" d="m72.61,88.68c-.01-.59-.03-1.18-.04-1.76.42.25.8.65,1.37.4q2.8.14,2.63-2.57c.12-1.78.52-3.56.02-5.34.52.03,1.05.06,1.57.09-1.58,2.51-.49,5.09-.22,7.65.09.05.19.11.28.16,1.44.27,2.89.47,4.37.44.76-.02,1.26-.23,1.41-1.01.17,0,.35,0,.52,0-.07,1.27,1.23.74,1.7,1.3-1.25.81-1.81,1.94-1.66,3.44.08.86.07,1.73.09,2.6-.06.43-.19.92.37,1.11,1.13.38,2.28.38,3.38-.04,1.13-.43.48-1.41.54-2.15.05-.65-.04-1.31-.07-1.97.7-1.38,0-2.36-.92-3.27.29-.04.62.03.81-.28.31-.37.35-.81.31-1.27.42-1.44.19-2.92.25-4.38.1-2.43.14-2.43-2.24-2.48-.27,0-.55-.04-.82-.06.05-.03.1-.07.15-.08,4.23-.54,4.31-.54,4.16,3.74-.29,8.5-.87,16.99-.65,25.5.04,1.57-.79,1.74-2,1.54-.33-.48-.98-.06-1.35-.47.66-.33,1.47.18,2.03-.44.56-.79.25-1.69.36-2.54.15-1.12.12-2.14-1.28-2.36-1.29-.2-2.67-.49-3.28,1.23-.11.14-.22.28-.33.43-.06-.13-.12-.25-.19-.38-.09-.37-.19-.74-.28-1.11-.02-.34-.04-.68-.06-1.02,0,0-.02.01-.02.01.37-.11.74-.21,1.11-.32,3.05,1.03,4.18.23,4.23-2.96.23-4.04.2-4.07-3.86-3.97-.11,0-.22,0-.33.01-.68.01-1.35.02-2.03.04-.12.08-.25.16-.37.24-.33-.03-.67-.06-1-.09-1.12-.35-2.24-.49-3.34.08-.05.08-.07.16-.08.25-.68,1.96-.05,3.97-.16,5.95-.02.4.43.73.9.84-.21.24-.42.47-.63.71-.56,1.42-.04,2.85,0,4.28l-.06.43c.09.81-.41.87-1.04.89-.64.02-1.34-.22-1.92.27-.73-.01-1.65.29-1.67-.96,3.47.55,3.61.43,3.71-2.81.03-.89.26-1.9-.72-2.31-1.14-.47-2.36-.46-3.33.55-.6-1.54-.21-3.15-.26-4.72-.07-1.93,0-3.86.01-5.79-.05,2.06,1.36,1.71,2.65,1.64,1.54-.09,1.51-1.17,1.46-2.25-.07-1.54-.17-3.08-.26-4.61-1.18-1.11-2.41-.98-3.66-.12-.09.01-.18.04-.27.07Zm3.57,7.74c-2.85-.69-3.48-.16-3.16,2.65-.03.99-.03,1.98-.09,2.97-.07,1.08.58,1.35,1.45,1.31.96-.04,2.38.51,2.54-1,.21-1.99.26-4.06-.73-5.94Zm1.62-1.65c.11.18.21.52.32.52,1.65.05,3.3.06,4.96.08.31,0,.53-.16.53-.49.01-2.06.93-4.14-.13-6.17-1.62-.67-3.36-.25-5.03-.53-.42-.07-.87.24-.84.82.1,1.92-.31,3.86.18,5.77Z"/>
      <path class="cls-14" d="m86.23,88.03c-.47-.56-1.77-.03-1.7-1.3.29-2.24-.23-4.53.4-6.75.39-.34.82-.61,1.35-.69.27.02.54.05.82.06,2.38.05,2.34.05,2.24,2.48-.06,1.46.17,2.94-.25,4.38-.1-1.1-.37-1.92-1.59-.83-.52.47-1.27,1-1.01,1.72.22.63,1.08.19,1.64.3.21.04.43.05.65.07-.2.31-.52.24-.81.28-.55.28-1.12.37-1.73.28Z"/>
      <path class="cls-14" d="m76.6,79.4c.5,1.78.09,3.56-.02,5.34-1.07.66-2.4,1.06-2.63,2.57-.57.25-.95-.15-1.37-.4,0,0-.02-.1-.02-.1.01-1.22.03-2.44.04-3.66q.02-3.91,4.02-3.73h-.01Z"/>
      <path class="cls-14" d="m72.61,88.68c.09-.04.18-.06.27-.07.02.49.02.98.08,1.47.07.51-.31,1.25.31,1.46.54.17.87-.54,1.26-.89.68-.62,1.34-1.27,2.01-1.91.09,1.54.19,3.08.26,4.61.05,1.09.07,2.16-1.46,2.25-1.29.08-2.7.42-2.65-1.64.4-1.77-.22-3.52-.08-5.28Z"/>
      <path class="cls-14" d="m72.95,104.47c.97-1.02,2.19-1.02,3.33-.55.99.41.75,1.42.72,2.31-.1,3.23-.24,3.36-3.71,2.81,0,0,.01.02.01.02.05-.26-.1-.41-.31-.52-.02-1.35-.03-2.71-.05-4.06Z"/>
      <path class="cls-9" d="m78.23,87.31c-.09-.05-.19-.11-.28-.16,0-.61.03-1.22-.02-1.83-.11-1.41.4-2.53,1.64-3.19,1.14-.61,2.12-1.38,3.01-2.29.5-.15,1.01-.31,1.41.21-.03.34-.06.68-.09,1.03-.78,1.33-1.81,2.4-3.06,3.36-1.01.78-2.08,1.62-2.61,2.88Z"/>
      <path class="cls-14" d="m82.58,79.83c-.89.91-1.87,1.68-3.01,2.29-1.24.66-1.75,1.78-1.64,3.19.05.61.01,1.22.02,1.83-.27-2.56-1.36-5.15.22-7.65,1.51-.42,2.94.23,4.41.34Z"/>
      <path class="cls-1" d="m88.61,109.09c-.57.62-1.38.11-2.03.44.37.41,1.02,0,1.35.47-4.32,0-8.65,0-12.97,0,.58-.49,1.28-.25,1.92-.27.63-.02,1.13-.09,1.04-.89.73.18,1.46.49,2.2.52,3.78.15,3.51.28,3.55-2.95.27.11.55.21.82.32q.24,2.49,2.82,2.46c.44,0,.87-.06,1.31-.09Z"/>
      <path class="cls-5" d="m76.61,79.42q-4-.18-4.02,3.73c0,1.22-.03,2.44-.04,3.66-.54-2.21-.09-4.5-.47-6.74-.15-.9.59-1.74,1.67-1.61.99.12,2.11.04,2.85.96Z"/>
      <path class="cls-1" d="m83.9,81.07c.03-.34.06-.68.09-1.03.31-.02.62-.04.94-.06-.62,2.22-.11,4.51-.4,6.75-.17,0-.35,0-.52,0-.04-1.89-.07-3.77-.11-5.66Z"/>
      <path class="cls-5" d="m72.99,108.53c.21.11.36.26.31.52-.32-.05-.31-.28-.31-.52Z"/>
      <path class="cls-14" d="m78.6,103.42c-.46-.11-.92-.44-.9-.84.11-1.98-.52-3.99.16-5.95,0,1.5,0,3.01,0,4.51.15.04.3.07.44.11,1.29-1.65,3.36-2.62,3.97-4.85.12-.08.25-.16.37-.24.55.15.98.3.95,1.06-.08,2.04-.05,4.09-.07,6.13,0,0,.02-.01.02-.01-1.65,0-3.31-.15-4.95.09Z"/>
      <path class="cls-9" d="m83.49,88.72c1.05,2.04.14,4.11.13,6.17,0,.33-.22.49-.53.49-1.65-.01-3.31-.03-4.96-.08-.11,0-.22-.34-.32-.52,1.83-2.08,4.02-3.82,5.69-6.06Z"/>
      <path class="cls-14" d="m83.49,88.72c-1.67,2.23-3.86,3.98-5.69,6.06-.49-1.91-.08-3.85-.18-5.77-.03-.58.42-.89.84-.82,1.67.29,3.41-.13,5.03.53Z"/>
      <path class="cls-9" d="m76.18,96.42c.99,1.89.94,3.95.73,5.94-.16,1.51-1.58.95-2.54,1-.87.04-1.52-.23-1.45-1.31.06-.99.07-1.98.09-2.97,1.45-.41,2.49-1.31,3.16-2.65Z"/>
      <path class="cls-14" d="m88.61,109.09c-.44.03-.87.08-1.31.09q-2.58.04-2.82-2.46c-.02-.44-.05-.88-.07-1.31.6-1.71,1.98-1.43,3.28-1.23,1.4.22,1.43,1.24,1.28,2.36-.11.85.19,1.76-.36,2.54Z"/>
      <path class="cls-14" d="m83.9,81.07c.04,1.89.07,3.77.11,5.66-.15.79-.65,1-1.41,1.01-1.48.03-2.93-.17-4.37-.44.54-1.26,1.6-2.1,2.61-2.88,1.24-.95,2.27-2.02,3.06-3.36Z"/>
      <path class="cls-9" d="m86.23,88.03c.61.09,1.18,0,1.73-.28.93.92,1.62,1.9.92,3.27-1.64.69-2.59,2.34-4.22,3.05-.03-.87-.01-1.74-.09-2.6-.14-1.5.41-2.63,1.66-3.44Z"/>
      <path class="cls-9" d="m83.66,106.4c-.04,3.23.23,3.1-3.55,2.95-.74-.03-1.46-.34-2.2-.52.02-.14.04-.29.06-.43,1.72-.93,2.9-2.39,3.97-3.97.56-.03,1.12-.05,1.68-.08.09.37.19.74.28,1.11-.27.27-.32.59-.24.95Z"/>
      <path class="cls-14" d="m84.68,96.11c.11,0,.22-.01.33-.01,4.06-.1,4.09-.07,3.86,3.97-.4-.71-.7-1.01-1.57-.33-.78.61-1.35,1.66-2.53,1.69-.03-1.77-.06-3.54-.09-5.3Z"/>
      <path class="cls-9" d="m82.28,96.38c-.61,2.24-2.69,3.2-3.97,4.85-.15-.04-.3-.07-.44-.11,0-1.5,0-3.01,0-4.51,0-.09.04-.18.08-.25,1.11-.03,2.22-.05,3.34-.08.33.03.67.06,1,.09Z"/>
      <path class="cls-9" d="m84.77,101.42c1.19-.03,1.75-1.08,2.53-1.69.87-.67,1.17-.38,1.57.33-.04,3.19-1.18,3.98-4.23,2.96.04-.54.09-1.07.13-1.61Z"/>
      <path class="cls-14" d="m84.66,94.07c1.63-.7,2.58-2.35,4.22-3.05.03.66.13,1.32.07,1.97-.06.74.6,1.72-.54,2.15-1.1.42-2.25.42-3.38.04-.57-.19-.43-.68-.37-1.11Z"/>
      <path class="cls-14" d="m81.94,104.43c-1.07,1.58-2.26,3.04-3.97,3.97-.04-1.43-.55-2.85,0-4.28,1.32.1,2.64.2,3.97.3Z"/>
      <path class="cls-9" d="m76.55,88.73c-.67.64-1.33,1.29-2.01,1.91-.39.35-.72,1.07-1.26.89-.62-.2-.24-.95-.31-1.46-.07-.48-.06-.98-.08-1.47,1.25-.85,2.48-.98,3.66.12Z"/>
      <path class="cls-4" d="m84.77,101.42c-.04.54-.09,1.07-.13,1.61-.37.11-.74.21-1.11.32.02-2.04,0-4.09.07-6.13.03-.77-.4-.92-.95-1.06.68-.01,1.35-.02,2.03-.04.03,1.77.06,3.54.09,5.3Z"/>
      <path class="cls-14" d="m76.18,96.42c-.67,1.35-1.71,2.25-3.16,2.65-.31-2.82.31-3.34,3.16-2.65Z"/>
      <path class="cls-9" d="m88.77,87.47c-.22-.02-.44-.02-.65-.07-.56-.12-1.42.33-1.64-.3-.26-.72.49-1.26,1.01-1.72,1.22-1.09,1.49-.27,1.59.83.04.46,0,.89-.31,1.27Z"/>
      <path class="cls-4" d="m81.94,104.43c-1.32-.1-2.65-.2-3.97-.3.21-.24.42-.47.63-.71,1.65-.24,3.3-.09,4.95-.09.02.34.04.68.06,1.02-.56.03-1.12.05-1.68.08Z"/>
      <path class="cls-9" d="m73.94,87.31c.24-1.51,1.57-1.91,2.63-2.57q.16,2.71-2.63,2.57Z"/>
      <path class="cls-4" d="m81.28,96.29c-1.11.03-2.22.05-3.34.08,1.1-.57,2.22-.43,3.34-.08Z"/>
      <path class="cls-4" d="m83.66,106.4c-.08-.35-.03-.68.24-.95.06.13.12.25.19.38.11-.14.22-.28.33-.43.02.44.05.88.07,1.31-.27-.11-.55-.21-.82-.32Z"/>
    </g>
  </g>
</svg>