<?xml version="1.0" encoding="UTF-8"?>
<svg id="Laag_2" data-name="Laag 2" xmlns="http://www.w3.org/2000/svg" viewBox="0 0 842.13 10.59">
  <defs>
    <style>
      .cls-1 {
        fill: #55371e;
      }

      .cls-1, .cls-2, .cls-3, .cls-4, .cls-5, .cls-6, .cls-7, .cls-8 {
        stroke-width: 0px;
      }

      .cls-2 {
        fill: #70883b;
      }

      .cls-3 {
        fill: #74a043;
      }

      .cls-4 {
        fill: #6f4321;
      }

      .cls-5 {
        fill: #575553;
      }

      .cls-6 {
        fill: #416c37;
      }

      .cls-7 {
        fill: #8d562d;
      }

      .cls-8 {
        fill: #97b947;
      }
    </style>
  </defs>
  <g id="Laag_1-2" data-name="Laag 1">
    <path class="cls-8" d="m141.73,10.59c-4.26-.14-9.1.25-12.58-.61,3.13-.51,6.35-1,9.38-1.53,3.35-.59,5.32-.39,6.52.42.52.1,1.05.21,1.57.31,1.18.56,3.03.78,6.13.84,6.48.12,11.81-.29,16.07-1.26,4.07-.93,6.99-1.02,8.96.33.78.04,1.57.08,2.35.12.27.32.32.73,2.34.74,5.83.02,12.03.38,16.42-.9,2.56-.74,5.83-1.31,10.74-1.03.52.44-.65,1.06,2.79,1.19,3,1.21,13.59,1.21,17.85-.12,3.09-.97,6.7-1.26,11.72-1.09.62.43-.65,1.06,2.73,1.21,2.82,1.11,13.48,1.21,16.96.07,3.17-1.05,6.99-1.51,12.7-1.3.62.44-.6,1.05,2.63,1.23,2.66,1.06,13.33,1.23,16.19.12,3.24-1.25,7.67-1.54,13.61-1.37.61.43-.74,1.05,2.5,1.24,4.92,1.31,14.24,1.13,17.3-.41,1.46-.73,3.69-.8,6.78-.84,3.41-.05,5.59.17,6.35.9.63.11,1.26.23,1.89.34,4.39,1.16,14.06,1.17,16.2-.03,1.25-.7,2.26-1.19,6.67-1.25,4.76-.06,6.68.43,8.33,1.18.34.03.7.06,1.08.07,2.53,1.27,7.78.77,12.09.8,3.69.03,3.8-.62,4.16-1.19.36-.55,1.99-.81,4.58-.8,3.31,0,6.63.03,9.94.04.61.43-.91,1.1,2.94,1.16,1.58,1.5,7.14.61,10.84.77,3.4.15,3.93-.44,3.76-1-.26-.86,2.1-1.02,5.45-.99,3.09.03,6.2.04,9.29.05.71.42-.56,1.07,2.97,1.17,1.73,1.48,7.26.59,11.01.76,3,.13,3.67-.4,3.49-.92-.34-.95,2.31-1.08,5.91-1.06,2.67.02,5.35-.03,8.02-.05,2.44,1.33,7.42,1.83,13.94,1.37,4.36-.31,2.72-.99,2.02-1.61.01-.15.03-.31.04-.46,8.01-.31,15.51-.38,18.42,1.74.14.1,1.05.15,1.6.23,2.47,1.38,8,.63,12.19.74,2.34.07,2.97-.43,2.53-.81-1.38-1.17,1.77-1.24,5.85-1.17,2.45.04,4.92.03,7.38.04,1.03.38,2.06.77,3.08,1.15,2.03,1.16,6.77.83,10.71.83,5.98,0,6.58-.3,3.42-1.49.13-.15.25-.29.38-.44,4.34-.06,8.69-.12,13.03-.19l1.48.04c.27.63,1.72,1.09,4.44,1.37,2.45,1.38,7.92.59,11.92.66,4.04.07,3.18-.75,2.82-1.26-.44-.62.91-.73,3.26-.72,2.87.02,5.73.03,8.6.04.41.04.82.08,1.23.12.36.1.71.21,1.07.31.52.38,1.12.74,3.26.82,2.81,1.28,8.23.7,12.45.67,3.92-.02,2.69-.83,2.38-1.35-.3-.49.75-.57,2.57-.58,2.46-.01,4.92-.04,7.37-.05,1.15.14,2.31.28,3.46.42.99.63,3.4.97,6.04,1.22,3.58.35,7.77.4,10.97.1,2.92-.28,1.02-1.09.65-1.67,3.73-.03,7.46-.07,11.18-.1l.16.03c.42.08.84.16,1.26.24,1.99.36,3.98.73,5.97,1.09,2.55.59,12.39,1.02,14.96.61.75-.12,1.53-.42,1.33-.58-1.78-1.51,3.16-1.36,7.45-1.39,1.51.25,3.02.5,4.53.75.52.08,1.03.16,1.55.24l.44.04s.48,0,.48,0c.57.11,1.15.22,1.72.33,2.48.61,12.39,1,15,.6,1.03-.16,1.5-.41,1.15-.62-2.29-1.36,2.17-1.31,6.19-1.37,1.55.23,3.1.45,4.65.68.59.08,1.18.17,1.77.25.76.12,1.52.23,2.28.35,2.82.71,13.26,1.17,16.23.72,1.02-.16,1.53-.41,1.21-.62-2.49-1.6,2.72-1.29,6.84-1.25h0c.53.08,1.05.16,1.58.23.81.11,1.62.23,2.43.34.49.23,1.41.31,2.53.32.47.09.94.18,1.41.27,3.21,1.28,8.92.68,13.64.8,3.29.08,4.68-.39,3.83-.97-2.17-1.47.7-1.42,5.53-.9,1.11.64,3.93.68,6.45.83"/>
    <path class="cls-5" d="m0,6.87C0,6.11,0,5.35,0,4.59c2.23-.03,4.46-.06,6.69-.09,6.8.11,13.61.14,20.41.01,3.2,0,6.4-.02,9.61-.02,2.33.14,4.67.13,7.02.03,4.36.11,8.72.11,13.08,0,3.2,0,6.4-.02,9.6-.03,2.26.02,4.53.03,6.79.05,4.45,0,8.91-.02,13.36-.03,3.52.07,7.03.1,10.4-.2,2.12.45,4.72.21,7.15.22,4.46,0,8.92-.01,13.38-.02,2.63,0,5.27-.01,7.9-.02,2.89.02,5.77.05,8.66.07,4.32-.02,8.65-.04,12.97-.06,2.92.05,5.87.14,8.6-.19,2.86.53,6.12.29,9.29.22,4.32,0,8.65-.02,12.97-.02,2.4.04,4.81.1,7.05-.17,2.81.47,6.02.28,9.14.25,4.89-.04,9.77-.08,14.66-.11,2.01.1,3.96.1,5.78-.14,2.85.46,5.83.28,8.8.07,4.97.35,10.01.16,15.04.09,1.72,0,3.45.02,5.17.02,2.23.01,4.46.03,6.68.04,1.38,0,2.77,0,4.15,0,4.64-.01,9.27-.03,13.9-.04,1.39,0,2.79,0,4.18.01,2.01.01,4.01.03,6.02.04,2.17,0,4.34-.01,6.52-.02,4.67-.02,9.35-.03,14.02-.05,1.07,0,2.14,0,3.22.01,1.93.02,3.87.04,5.8.06,2.44-.02,4.87-.05,7.31-.07,4.53.11,9.06.12,13.58,0,.87,0,1.76.01,2.64.02,1.57.02,3.14.03,4.7.05,3.31.2,6.22-.42,9.54-.2,4.48.4,9.13.16,13.71.16,0,0,.56.01.56.01h.56c1.73,0,3.46.02,5.18.04,3.57-.01,7.14-.03,10.71-.04,4.77,0,9.54.01,14.31.02,5.31.13,10.62.16,15.93.01,4.62,0,9.23,0,13.85,0,5.14,0,10.27,0,15.41,0,4.55-.01,9.1-.02,13.65-.04.8,0,1.61,0,2.41,0,4.49,0,8.98,0,13.47,0,5.12.01,10.25.02,15.37.03,4.79.11,9.57.14,14.35,0,5.35,0,10.69,0,16.04.01,4.45,0,8.9,0,13.34-.01,5.63,0,11.26.01,16.89.02,4.18,0,8.37-.01,12.55-.02,5.66,0,11.31.01,16.97.02,4.18-.01,8.36-.03,12.55-.04,6.14,0,12.28,0,18.41-.01,3.44,0,6.88.02,10.32.03,6.65,0,13.29,0,19.94,0,3.1-.01,6.21-.02,9.31-.04,6.93.01,13.86.02,20.79.03,2.97,0,5.94-.01,8.91-.02,7.15.01,14.29.03,21.44.04,2.42,0,4.83-.01,7.25-.02,7.48,0,14.96.01,22.44.02h7.09c7.7-.02,15.4-.03,23.11-.04,2.38.14,4.75.1,7.12,0,7.73.01,15.45.02,23.18.03,1.97,0,3.94,0,5.92,0,7.74-.02,15.47-.05,23.21-.07,2.32.09,4.63.17,6.97.03,7.7.02,15.41.04,23.11.06v2.56c-1.76,0-3.51,0-5.27-.01-6.62-.58-13.48-.15-20.22-.22-2.27,0-4.55-.02-6.82-.03-1.16.02-2.33.04-3.49.06-8.4-.17-16.81-.09-25.21-.01-2.78,0-5.56,0-8.34-.01-7.79,0-15.58,0-23.36,0-2.72,0-5.44,0-8.16,0-7.95,0-15.9-.02-23.86-.02-2.49,0-4.98,0-7.47,0-7.55.01-15.11.03-22.66.04-3.44-.02-6.89-.03-10.33-.05-5.02.3-10.08-.25-15.1.02-1.98-.04-4-.12-5.59.24-3.35-.47-7.05-.27-10.66-.25-7.14,0-14.29.01-21.44.02-3.61,0-7.22-.02-10.82-.02-6.67,0-13.34.02-20.01.03-4.11,0-8.22-.02-12.32-.02-5.72,0-11.44,0-17.16.01-.62,0-1.24-.01-1.86-.02-4.38,0-8.76,0-13.15,0-5.35,0-10.7,0-16.04.01-.95,0-1.89-.01-2.84-.02-4.45,0-8.9,0-13.35,0-4.95,0-9.91,0-14.86,0-5.8.01-11.6.02-17.4.03-4.92-.02-9.84-.03-14.77-.05-.53,0-1.05-.01-1.58-.02-5.31.01-10.61.02-15.92.03-5.28,0-10.56,0-15.84,0-5.47,0-10.94,0-16.42,0-4.93,0-9.86-.01-14.79-.02-5.51,0-11.02,0-16.53-.01-.8,0-1.61.02-2.41.03-4.45,0-8.89,0-13.34,0-5.26,0-10.52,0-15.78,0h-3.15c-4.25,0-8.49,0-12.74,0-5.52,0-11.05.01-16.57.02-5.18,0-10.36,0-15.54-.01-4.74-.01-9.49-.02-14.23-.03-1.42.01-2.83.02-4.25.04-4.6,0-9.19,0-13.79-.01-4.35-.01-8.7-.02-13.05-.04-1.81.01-3.62.03-5.43.04-4.55,0-9.1,0-13.65,0-4.23-.02-8.47-.03-12.71-.05-1.93,0-3.86.02-5.79.03-4.87,0-9.73,0-14.6,0-3.24-.02-6.47-.03-9.71-.05-2.66.02-5.31.03-7.97.05-4.9,0-9.81,0-14.71,0-3.08-.01-6.15-.02-9.23-.03-2.76.01-5.52.03-8.28.04-4.83,0-9.66-.01-14.49-.02-2.75,0-5.5-.02-8.25-.03-3.2.01-6.39.03-9.59.04-4.59,0-9.18,0-13.77,0-2.54-.01-5.09-.02-7.63-.03-3.23.02-6.46.03-9.68.05-4.97,0-9.93,0-14.9,0l-6.57-.04c-3.97.01-7.95.03-11.92.04-4.59,0-9.18,0-13.77,0-2.09-.02-4.18-.03-6.27-.05-3.71,0-7.42.02-11.14.03-4.95,0-9.91-.02-14.86-.03-1.73,0-3.45,0-5.18,0-4.52,0-9.05,0-13.57,0Z"/>
    <path class="cls-5" d="m207,.04c2.78-.01,5.56-.02,8.33-.03,4.41.01,8.82.02,13.23.03,22.59.02,45.19.04,67.78.05,23.94.01,47.88.02,71.83,0,32.89-.02,65.78-.06,98.66-.07,30.21,0,60.43.02,90.64.03,33.57,0,67.14-.02,100.71-.02,31.11,0,62.22.03,93.32.03,30.2,0,60.41-.02,90.61-.04v1.71c-4.05.02-8.11.04-12.16.05-9.9.02-19.81.03-29.71.05-1.57-.01-3.15-.02-4.72-.03-7.83,0-15.65,0-23.48,0-1.66,0-3.33-.02-4.99-.03-7.73.01-15.46.03-23.19.04-1.81-.01-3.61-.02-5.42-.03-7.56,0-15.12,0-22.69.01-1.85,0-3.69,0-5.53-.01-7.26.01-14.51.02-21.77.04-2.57-.01-5.14-.02-7.71-.03-7.25.01-14.51.02-21.76.03-2.08,0-4.16,0-6.24,0-6.92-.13-13.84-.13-20.76,0-2.92-.13-5.85-.13-8.78-.01-6.2-.11-12.39-.17-18.55.06-3.32-.23-6.71-.15-10.1-.1-6.41.02-12.82.03-19.24.05-3.1-.01-6.21-.03-9.31-.04-24.85,0-49.7-.02-74.55-.02-4.25,0-8.5,0-12.75,0-4.86,0-9.72.01-14.58.02-4.91,0-9.83,0-14.74,0-15.1,0-30.19-.01-45.29-.02-3.81.01-7.61.02-11.41.04-4.85,0-9.7-.02-14.54-.03-4.41-.01-8.81-.02-13.22-.03-1.01,0-2.02.01-3.04.02-4.09,0-8.18.02-12.27.03l-13.09-.05c-.98,0-1.95.02-2.93.03-4.45,0-8.9,0-13.35,0-3.92,0-7.83-.01-11.75-.02-1.89,0-3.78,0-5.68,0-3.76.02-7.52.03-11.28.05-3.47-.03-6.93-.06-10.4-.08-1.76.03-3.51.05-5.27.08-4.55,0-9.1-.01-13.65-.02-3.08-.02-6.17-.03-9.25-.05-2.23.01-4.46.02-6.69.04-4.1,0-8.2,0-12.31,0-3-.01-6-.02-9-.03-2.36.01-4.72.03-7.08.04-4.53,0-9.06,0-13.59,0-2.47-.01-4.95-.02-7.42-.03-2.81.01-5.63.03-8.44.04-4.12,0-8.25,0-12.37,0-2.14-.02-4.28-.03-6.43-.05-3.58.01-7.17.03-10.75.04-4.05,0-8.1-.02-12.15-.03-2.18,0-4.35,0-6.53,0-3.22.02-6.44.03-9.67.05-4.09,0-8.19-.01-12.28-.02-1.68-.01-3.36-.02-5.04-.03-3.68.03-7.35.05-11.03.08-4.47-.01-8.94-.02-13.41-.03-1.25-.02-2.5-.03-3.74-.05-3.72.01-7.44.03-11.16.04-4.58,0-9.16,0-13.74.01-1.07-.01-2.14-.02-3.21-.04-3.78,0-7.56.02-11.35.03-5.37,0-10.73,0-16.1,0-4.44,0-8.89,0-13.33-.01C10.76,1.8,5.26,1.54,0,2.03V.04C10.5.11,21,.02,31.5,0c30.61-.04,61.22.07,91.83.13,3.13,0,72.03-.21,83.67-.1Z"/>
    <path class="cls-3" d="m0,9.71c5.71.13,9.01-1.14,14.53-1.12.22.23.35.47,1.55.58,1.58.81,5,.93,8.54,1.09,4.73.21,8.38-.45,12.66-.57,4.26.27,8.59.38,13.02.28,3.88,0,7.76.01,11.64.02,7.16.47,14.31.45,21.47,0,5.32-.12,10.86.25,15.99-.31,5.22.65,10.91.17,16.35.3,4.47,0,8.94,0,13.41,0,3.48.86,8.32.47,12.58.61"/>
    <path class="cls-3" d="m790.69,8.94s.27-.08.27-.08c4.4.4,9.04.41,13.7.37,1.94-.02,4.54.08,4.95-.46.37-.49,1.45-1.17-2.48-1.36-.27-.15-.54-.31-.81-.46,1.16-.02,2.33-.04,3.49-.06,2.55.67,5.67,1.13,9.86,1.19l.1-.05c.49.43,1.86.59,3.83.58l.16.03c5.52,1.15,12.17.44,18.35.5"/>
    <path class="cls-7" d="m800.25,1.85c9.9-.02,19.81-.03,29.71-.05,2.54,1.05,7.84,1.19,12.16,1.65v1.14c-7.7-.02-15.41-.04-23.11-.06-5.08-1.26-13.55-1.46-18.76-2.68Z"/>
    <path class="cls-1" d="m16.18,1.79c4.44,0,8.89,0,13.33.01-7.61.9-15.21,1.8-22.82,2.7-2.23.03-4.46.06-6.69.09,0-.38,0-.76,0-1.14,6.35-.14,11.49-.81,16.18-1.67Z"/>
    <path class="cls-4" d="m842.13,9.14c-6.18-.06-12.82.65-18.34-.5,3.66-.55,7.18-1.13,12.2-.97,1.5.05,1.03-.32.88-.54,1.76,0,3.51,0,5.27.01v1.99Z"/>
    <path class="cls-2" d="m14.53,8.59C9.01,8.57,5.71,9.84,0,9.71v-1.14c5.21-.03,8.37-1.08,13.4-1.2.46.11.92.23,1.38.34-.09.3-.17.59-.26.89Z"/>
    <path class="cls-7" d="m16.18,1.79C11.49,2.65,6.35,3.31,0,3.45v-1.42c5.26-.49,10.76-.23,16.18-.24Z"/>
    <path class="cls-1" d="m13.4,7.37C8.37,7.49,5.21,8.54,0,8.57v-1.71c4.52,0,9.05,0,13.57,0-.06.17-.11.34-.17.5Z"/>
    <path class="cls-4" d="m842.13,3.45c-4.32-.46-9.62-.6-12.16-1.65,4.05-.02,8.11-.04,12.16-.05v1.71Z"/>
    <path class="cls-2" d="m324.52,6.93c5.52,0,11.05-.01,16.57-.02-.14.18-.29.37-.43.55-.31.46-.61.92-.92,1.38-.75-.73-2.93-.94-6.35-.9-3.08.04-5.32.11-6.78.84-3.06,1.53-12.38,1.71-17.3.41,2.17-.02,4.35-.09,6.5-.05,4.91.09,7.42-.33,7.27-1.39,0,0-.18-.02-.18-.02.43-.1.86-.19,1.28-.29.11-.17.22-.34.33-.51Z"/>
    <path class="cls-2" d="m356.98,6.91c5.26,0,10.52,0,15.78,0,.03.27.06.53.1.8,0,.46-.01.92-.02,1.39-1.64-.75-3.57-1.24-8.33-1.18-4.42.06-5.42.55-6.67,1.25-2.14,1.19-11.8,1.19-16.2.03q12.77-.14,15.34-2.28Z"/>
    <path class="cls-2" d="m169.87,6.87c3.08.01,6.15.02,9.23.03-.24.25-.47.5-.7.75-1.27.46-.54.95-.6,1.43-1.97-1.35-4.89-1.26-8.96-.33-4.26.97-9.59,1.38-16.07,1.26-3.11-.06-4.95-.28-6.13-.84,4.63-.24,9.87.36,14.08-.46,3.46-.52,7.16-1,9.17-1.85Z"/>
    <path class="cls-2" d="m231.87,6.88c4.23.02,8.47.03,12.71.05-.17.24-.34.47-.51.71-.69.12-1.38.24-2.07.36-5.01-.17-8.63.13-11.72,1.09-4.26,1.33-14.85,1.32-17.85.12,4.46-.36,10.64.59,13.76-.8,2.33-.44,4.68-.87,5.68-1.52Z"/>
    <path class="cls-2" d="m129.15,9.98c-4.47,0-8.94,0-13.41,0-.48-.27-.96-.54-1.43-.82,4.15-.14,8.47.16,12.53-.21,4.55-.55,8.86-1.17,11.99-2.09,2.75,0,5.5.02,8.25.03-.31.24-.62.48-.93.73-.37.42-.74.83-1.1,1.25-1.2-.81-3.18-1.01-6.52-.42-3.03.54-6.25,1.02-9.38,1.53Z"/>
    <path class="cls-2" d="m294.75,6.89c4.74.01,9.49.02,14.24.03-.07.23-.15.46-.23.69-.64.11-1.29.23-1.93.34-5.94-.17-10.37.12-13.61,1.37-2.87,1.1-13.53.94-16.2-.12,8.77.21,15.47-.29,17.73-2.31Z"/>
    <path class="cls-4" d="m646.94,8.01c.36.58,2.27,1.39-.65,1.67-3.2.3-7.39.25-10.97-.1-2.65-.26-5.05-.59-6.04-1.23,0,0,.34-.08.34-.08,4.93-.69,10.56-.53,16.01-.57l1.32.31Z"/>
    <path class="cls-2" d="m419.83,6.91c5.47,0,10.94,0,16.41,0,.41.26.82.53,1.24.79l-.52.32c-3.1-.02-6.2-.02-9.29-.05-3.35-.04-5.7.13-5.45.99.17.56-.35,1.15-3.76,1-3.7-.16-9.25.73-10.84-.77,1.97-.02,3.95-.08,5.9-.04,5.1.09,6.78-.42,5.89-1.42.14-.27.28-.54.42-.81Z"/>
    <path class="cls-2" d="m388.5,6.87c5.51,0,11.02,0,16.53.01.13.19.26.37.39.56-.25.19-.49.38-.74.57-3.31-.01-6.63-.03-9.94-.04-2.58,0-4.22.25-4.58.8-.37.57-.47,1.22-4.16,1.19-4.31-.03-9.56.46-12.09-.8q12.17-.04,14.6-2.29Z"/>
    <path class="cls-2" d="m263.65,6.88c4.35.01,8.7.02,13.06.03-.23.19-.47.37-.7.56-.54.17-1.08.33-1.62.5-5.71-.21-9.53.25-12.7,1.3-3.48,1.15-14.14,1.04-16.96-.07,9.16.27,15.65-.45,18.93-2.32Z"/>
    <path class="cls-2" d="m201.77,6.86c3.24.02,6.47.03,9.71.05-.36.26-.73.53-1.09.79l-.75.31c-4.91-.28-8.18.29-10.74,1.03-4.39,1.28-10.6.92-16.42.9-2.02,0-2.07-.42-2.34-.74,2.79-.04,5.58-.09,8.37-.13,2.29.09,4.23,0,5.32-.49h-.04c.97-.13,1.7-.3,1.37-.57,0,0,.05.02.05.02,3.37-.09,4.72-.69,6.56-1.17Z"/>
    <path class="cls-2" d="m452.08,6.9c5.31-.01,10.61-.02,15.92-.03.12.35.24.7.37,1.05-2.68.02-5.36.07-8.02.05-3.6-.03-6.25.11-5.91,1.06.19.52-.48,1.05-3.49.92-3.76-.16-9.28.72-11.01-.76,0,0-.03-.14-.03-.14l.62.04h.65c3.28-.03,6.56-.05,9.84-.07h.33s.07-.08.07-.08l.2-1.2c.16-.28.32-.55.47-.83Z"/>
    <path class="cls-2" d="m516.6,6.9c4.45,0,8.9,0,13.35,0,.9.28,1.81.56,2.71.84h-.08c-.03.09-.11.18-.26.26-2.46-.01-4.93,0-7.38-.04-4.08-.07-7.23,0-5.85,1.17.44.37-.18.87-2.53.81-4.19-.12-9.72.64-12.19-.74,1.95-.02,3.93-.1,5.85-.05,5.35.13,7.22-.35,6.15-1.43.07-.27.14-.54.22-.81Z"/>
    <path class="cls-4" d="m656.25,7.16c1.59-.36,3.61-.28,5.59-.24.73.63,3.13.77,5.64.79,3.56.03,7.13,0,10.69-.02,2.36,1.06.48,1.48-4.72,1.47-2.65,0-5.29.07-7.94.11-1.99-.36-3.98-.73-5.97-1.09-.42-.08-.84-.16-1.26-.24,0,0-.16-.03-.16-.03-.63-.25-1.25-.5-1.88-.75Z"/>
    <path class="cls-2" d="m580.99,6.91c4.11,0,8.22.02,12.32.02.74.27,1.49.53,2.23.8.04.09.02.18-.07.27-2.87-.01-5.73-.02-8.6-.04-2.35-.01-3.7.09-3.26.72.36.51,1.21,1.33-2.82,1.26-4.01-.07-9.48.72-11.92-.66,1.99-.04,4.02-.15,5.96-.1,5.55.14,7.39-.36,6.18-1.47,0-.26-.02-.53-.02-.79Z"/>
    <path class="cls-4" d="m516.38,7.71c1.07,1.08-.8,1.56-6.15,1.43-1.91-.05-3.9.03-5.85.05-.55-.08-1.46-.13-1.6-.23-2.91-2.12-10.41-2.05-18.42-1.74-.01-.09-.02-.19-.02-.28,5.8-.01,11.6-.02,17.4-.04-.07.59,1.4.83,4.1.81,3.52-.02,7.03,0,10.55,0Z"/>
    <path class="cls-4" d="m468.36,7.92c-.12-.35-.24-.7-.37-1.05.53,0,1.05.01,1.58.02.23.66,2.29.83,4.97.82,3.26,0,6.52-.02,9.78-.03.7.61,2.34,1.3-2.02,1.61-6.53.46-11.5-.04-13.94-1.37Z"/>
    <path class="cls-4" d="m274.39,7.97c.54-.17,1.08-.33,1.62-.5,5.09.12,10.77.95,14.49-.55,1.42-.01,2.83-.03,4.25-.04-2.26,2.02-8.96,2.52-17.73,2.32-3.23-.19-2.01-.8-2.63-1.23Z"/>
    <path class="cls-4" d="m263.65,6.88c-3.28,1.88-9.76,2.59-18.93,2.32-3.38-.15-2.11-.78-2.73-1.21.69-.12,1.38-.24,2.07-.36,4.82-.15,10.88.81,14.15-.71,1.81-.01,3.62-.03,5.43-.04Z"/>
    <path class="cls-2" d="m665.51,9.27c2.65-.04,5.29-.12,7.94-.11,5.2,0,7.08-.42,4.72-1.47-.41-.26-.82-.53-1.23-.79,3.44.02,6.89.03,10.33.05.66.32,1.32.64,1.99.97-4.28.03-9.23-.12-7.45,1.39.2.17-.58.46-1.33.58-2.58.41-12.41-.02-14.96-.61Z"/>
    <path class="cls-2" d="m613.33,6.91c3.61,0,7.22.02,10.83.02.08.08.25.15.51.21.38.27.77.53,1.15.8-2.46.02-4.92.04-7.37.05-1.82,0-2.87.1-2.57.58.32.52,1.54,1.33-2.38,1.35-4.22.02-9.64.61-12.45-.67,2.15-.04,4.34-.14,6.44-.09,5.54.12,7.01-.41,5.85-1.46,0-.27,0-.53-.01-.8Z"/>
    <path class="cls-7" d="m717.4,6.91c7.95,0,15.9.02,23.85.02.54.25,1.08.49,1.62.74-5.75-.02-11.44.02-16.12.88-.59,0-1.19,0-1.78,0-1.55-.23-3.1-.45-4.65-.68-.97-.32-1.95-.65-2.92-.97Z"/>
    <path class="cls-4" d="m757.31,8.58c-.81-.11-1.62-.23-2.44-.34-.53-.08-1.05-.15-1.58-.23,0,0,0,0,0,0-.94-.29-1.88-.59-2.81-.88,3.92.05,6.57,1.23,9.69.93,4.78-.46,9.5-.18,14.09-.41,3.44,1.05,2.88,1.42-2.35,1.49-3.54.04-7.1.03-10.65.04-.47-.09-.94-.18-1.41-.27-.34-.28-1.33-.34-2.53-.32Z"/>
    <path class="cls-2" d="m750.48,7.13c.94.29,1.88.59,2.82.88-4.12-.04-9.33-.36-6.84,1.25.33.21-.18.46-1.21.62-2.96.45-13.41,0-16.23-.72,3.06,0,6.12-.03,9.17,0,5.56.05,7.32-.4,4.68-1.49-.54-.25-1.08-.49-1.62-.74,2.72,0,5.44,0,8.16,0,.35.07.71.13,1.07.2Z"/>
    <path class="cls-7" d="m689.25,7.91c-.66-.32-1.32-.64-1.99-.97,7.55-.01,15.11-.03,22.66-.04.21.26.42.51.63.77-5.25.17-12.07-.44-14.3,1.26h-.48s-.44-.03-.44-.03c-.52-.08-1.03-.16-1.55-.24-1.51-.25-3.02-.5-4.53-.75Z"/>
    <path class="cls-2" d="m761.25,9.18c3.55-.01,7.11,0,10.65-.04,5.23-.07,5.79-.44,2.35-1.49-.5-.24-.99-.48-1.48-.72,2.78,0,5.56,0,8.35.01,1.11.33,2.21.66,3.32.99-.03.06-.09.13-.19.19-4.83-.52-7.7-.58-5.53.9.85.58-.53,1.05-3.83.97-4.72-.12-10.43.48-13.64-.8Z"/>
    <path class="cls-2" d="m710.56,7.68c-.21-.26-.42-.51-.63-.77,2.48,0,4.97,0,7.46,0,.98.32,1.95.65,2.92.97-4.02.06-8.48.02-6.19,1.37.35.21-.11.46-1.15.62-2.62.4-12.53,0-15-.6,2.59-.04,5.18-.13,7.76-.11,5.53.05,7.28-.4,4.82-1.48Z"/>
    <path class="cls-4" d="m356.98,6.91q-2.57,2.14-15.34,2.28c-.63-.11-1.26-.23-1.89-.34.31-.46.61-.92.92-1.38,4.63.06,10.22,1.1,13.16-.57h3.15Z"/>
    <path class="cls-4" d="m388.5,6.87q-2.43,2.25-14.6,2.29c-.38-.01-.74-.04-1.08-.07,0-.46.01-.92.02-1.39,2.86,0,5.72,0,8.57.02,2.77.02,4.85-.11,4.67-.82.8,0,1.61-.02,2.41-.03Z"/>
    <path class="cls-4" d="m209.64,8.02c.25-.1.5-.21.75-.31,4.73,0,9.46,0,14.19,0,.54.23,1.07.47,1.61.7-3.12,1.39-9.29.44-13.76.8-3.44-.13-2.27-.75-2.79-1.19Z"/>
    <path class="cls-4" d="m306.82,7.96c.64-.11,1.29-.23,1.94-.34,4.78.05,9.55.09,14.33.14.15,1.07-2.36,1.48-7.27,1.39-2.14-.04-4.33.03-6.5.05-3.24-.2-1.89-.81-2.5-1.24Z"/>
    <path class="cls-4" d="m532.33,8c.14-.09.23-.17.26-.26,5.44-.02,10.89-.04,16.33-.05l1.01.37c-.13.15-.25.29-.38.44-3.63,1.25-9.46.4-14.13.66-1.03-.38-2.06-.77-3.08-1.15Z"/>
    <path class="cls-4" d="m581.02,7.7c1.21,1.1-.62,1.6-6.18,1.47-1.94-.05-3.97.06-5.96.1-2.73-.28-4.17-.74-4.44-1.37.19-.06.38-.12.58-.19,5.33,0,10.67-.01,16-.02Z"/>
    <path class="cls-4" d="m188.51,9.08c-2.79.04-5.58.09-8.37.13-.78-.04-1.57-.08-2.35-.12.06-.48-.67-.98.6-1.43,5.18-.1,10.92.57,15.39-.5,1.32.23,1.2.57,1.43.88,0,0-.05-.02-.05-.02-1.11.12-1.4.34-1.37.58,0,0,.04,0,.04,0-2.11,0-3.81.2-5.32.49Z"/>
    <path class="cls-4" d="m404.68,8.02c.25-.19.49-.38.74-.57,4.54.38,9.3.24,13.99.27.89,1-.79,1.51-5.89,1.42-1.95-.03-3.93.03-5.9.04-3.84-.06-2.33-.73-2.94-1.16Z"/>
    <path class="cls-4" d="m742.87,7.67c2.64,1.09.89,1.54-4.68,1.49-3.05-.03-6.11,0-9.17,0-.76-.12-1.52-.23-2.28-.35.03-.09.03-.17,0-.26,4.68-.86,10.37-.9,16.12-.88Z"/>
    <path class="cls-4" d="m613.34,7.71c1.15,1.04-.32,1.58-5.85,1.46-2.11-.05-4.29.06-6.44.09-2.15-.09-2.75-.45-3.27-.82.31-.04.6-.09.86-.15,4.18-1.01,9.81-.38,14.7-.58Z"/>
    <path class="cls-4" d="m451,9.02c-3.28.02-6.56.04-9.84.06-.42-.01-.84-.02-1.26-.03,0,0,.03.14.03.14-3.53-.1-2.26-.75-2.97-1.17.17-.11.35-.21.52-.32,4.71.01,9.42.02,14.13.03-.07.4-.13.8-.19,1.2,0,0-.41.08-.41.08Z"/>
    <path class="cls-4" d="m710.56,7.68c2.45,1.09.71,1.53-4.82,1.48-2.58-.02-5.17.07-7.76.11-.57-.11-1.14-.22-1.72-.33,2.24-1.7,9.05-1.09,14.3-1.26Z"/>
    <path class="cls-2" d="m535.41,9.15c4.67-.26,10.5.59,14.13-.66,3.16,1.19,2.56,1.49-3.42,1.49-3.95,0-8.68.33-10.71-.83Z"/>
    <path class="cls-7" d="m484.32,7.68c-3.26.01-6.52.02-9.78.03-2.68,0-4.73-.17-4.97-.82,4.92.02,9.84.03,14.77.05,0,.09.01.19.02.28-.01.15-.03.31-.04.46Z"/>
    <path class="cls-2" d="m656.25,7.16c.63.25,1.25.5,1.88.75-3.73.03-7.46.07-11.18.1-.44-.1-.88-.2-1.32-.31-.01-.26-.02-.53-.04-.79,3.61-.02,7.31-.22,10.66.25Z"/>
    <path class="cls-3" d="m549.92,8.05c-.34-.12-.67-.25-1.01-.37.18-.16.36-.32.54-.48,4.02,0,8.05,0,12.07,0,.48.22.96.44,1.43.66-4.34.06-8.69.12-13.03.19Z"/>
    <path class="cls-1" d="m145.05,8.87c.37-.42.74-.83,1.1-1.25.16.03.31.07.46.11-.39.81,1.08,1.21,5.18,1.15,2.82-.04,5.7.03,8.26-.31.21.05.42.1.65.15-4.21.82-9.45.22-14.08.46-.52-.1-1.05-.2-1.57-.31Z"/>
    <path class="cls-3" d="m790.69,8.94c-2.51-.15-5.34-.2-6.45-.83.09-.06.16-.12.19-.19,2.09.23,4.18.47,6.28.7.03.08.12.16.26.24l-.27.08Z"/>
    <path class="cls-4" d="m625.82,7.94c-.38-.27-.77-.53-1.15-.8,2.92.13,4.51.52,4.95,1.13,0,0-.34.08-.34.08-1.15-.14-2.31-.28-3.46-.42Z"/>
    <path class="cls-4" d="m562.96,7.87c-.48-.22-.96-.44-1.43-.66.15-.1.31-.2.46-.3.62,0,1.24.01,1.86.01.39.27.78.53,1.18.8-.2.06-.39.12-.58.19-.49-.01-.99-.02-1.48-.04Z"/>
    <path class="cls-2" d="m757.31,8.58c1.2-.02,2.19.04,2.53.32-1.12,0-2.04-.09-2.53-.32Z"/>
    <path class="cls-4" d="m595.48,8c.09-.09.11-.18.07-.27.58.09,1.16.18,1.74.27-.19.04-.39.08-.58.12-.41-.04-.82-.08-1.23-.12Z"/>
    <path class="cls-4" d="m597.78,8.43c-.36-.1-.71-.21-1.07-.31.19-.04.39-.08.58-.12.45.09.9.19,1.35.28-.26.06-.55.1-.86.15Z"/>
    <path class="cls-2" d="m658.29,7.94c.42.08.84.16,1.26.24-.42-.08-.84-.16-1.26-.24Z"/>
    <path class="cls-2" d="m753.3,8.01c.52.08,1.05.16,1.58.23-.52-.08-1.05-.16-1.58-.23Z"/>
    <path class="cls-2" d="m693.78,8.66c.52.08,1.03.16,1.55.24-.52-.08-1.03-.16-1.55-.24Z"/>
    <path class="cls-2" d="m726.75,8.55c.02.09.02.17,0,.26-.59-.08-1.18-.17-1.77-.25.59,0,1.19,0,1.78,0Z"/>
    <path class="cls-7" d="m491.48,1.77c24.85,0,49.7.02,74.55.02-1.26,1.17,5.12,1.72,5.04,2.79-5.66,0-11.31-.01-16.96-.02-1.27-.82-3.51-1.51-6.12-2.16-2.47-.62-5.92-.62-8.5-.33-3.12.35-1.11.97.02,1.48.76.34,1.37.69,2.05,1.04-5.63,0-11.26-.01-16.89-.02-.47-.72-2.36-1.31-3.9-1.93-2.43-.98-6.98-.89-10.48-.57-3.61.33-1.17,1.03-.18,1.58.54.3.82.62,1.21.94-5.35,0-10.69,0-16.04-.01-.3-.29-.59-.57-.89-.86-.68-.37-1.33-.74-3.05-.97.05-.33.09-.65.14-.98Z"/>
    <path class="cls-7" d="m404.12,1.78c15.1,0,30.19.01,45.29.02.09.92.18,1.83.26,2.75-4.55.01-9.1.02-13.66.04-.01-.14-.02-.28-.03-.42-.04-2.06-.57-2.08-7.59-2.25-8.93-.21-7.66.99-7.56,2.11.02.19-.15.37-.23.56-4.62,0-9.23,0-13.85,0-.17-.16-.34-.32-.51-.48.05-.43.1-.85.15-1.28.66-.49-.86-.76-2.28-1.05Z"/>
    <path class="cls-7" d="m772.06,1.82c7.83,0,15.65,0,23.47,0,.88.63,3.79.73,5.98,1.03,3.69.5,8.42.71,10.53,1.66-7.74.02-15.47.05-23.21.07-4.34-1.26-12.08-1.59-16.77-2.75Z"/>
    <path class="cls-7" d="m743.88,1.83c7.73-.01,15.46-.03,23.19-.04.57.59,3.35.69,5.09,1.01,3.4.64,8.1.92,10.77,1.76-7.73-.01-15.45-.02-23.18-.03-3.94-1.25-11.53-1.55-15.86-2.7Z"/>
    <path class="cls-7" d="m715.78,1.81c7.56,0,15.12,0,22.68-.01.34.41,2.02.56,3.27.81,3.44.7,8.34,1.02,10.89,1.93-7.7,0-15.4.02-23.11.03-2.82-1.31-9.99-1.65-13.73-2.76Z"/>
    <path class="cls-7" d="m688.47,1.84c7.26-.01,14.51-.02,21.77-.04,1.96,1.34,9.42,1.6,12.17,2.79-7.48,0-14.96-.01-22.44-.02-2.01-.96-6.51-1.34-10.05-1.94-.48-.26-.97-.53-1.45-.79Z"/>
    <path class="cls-7" d="m659.01,1.84c7.25-.01,14.51-.02,21.76-.03.53.59,2.35.93,4.98,1.09,1.59.7,5.74.93,6.98,1.7-7.15-.01-14.29-.03-21.44-.04-4.09-.9-8.19-1.81-12.28-2.71Z"/>
    <path class="cls-7" d="m632.01,1.84c6.92-.14,13.84-.15,20.76-.01,1.07,1.25,7.47,1.65,9.62,2.73-6.93-.01-13.86-.02-20.79-.03-1.99-.87-5.71-1.4-8.96-2.02-.21-.22-.42-.45-.63-.67Z"/>
    <path class="cls-7" d="m604.67,1.89c6.17-.23,12.36-.17,18.56-.06.29.48.88.92,3.56,1.04.52.76,4.82.97,5.5,1.7-6.65,0-13.29,0-19.94,0-1.36-.73-3.85-1.27-6.53-1.78-.38-.3-.77-.59-1.15-.89Z"/>
    <path class="cls-7" d="m575.34,1.84c6.41-.02,12.82-.03,19.24-.05-.14.49.71.86,2.86,1.07-.02.75,4.19.98,4.6,1.68-6.14,0-12.28,0-18.41.01-2.76-.9-5.52-1.81-8.28-2.71Z"/>
    <path class="cls-7" d="m6.69,4.5c7.61-.9,15.22-1.8,22.82-2.7,5.37,0,10.73,0,16.1,0-2.16.32-4.29.64-6.48.94-4.08.57-9.25.81-12.03,1.77-6.81.13-13.61.1-20.41-.01Z"/>
    <path class="cls-7" d="m464.15,1.8c4.86,0,9.72-.01,14.58-.02-.37.97,1.14,1.88,2.19,2.81-5.12-.01-10.25-.02-15.37-.03-.2-.57-.02-1.15-1.65-1.66.08-.37.17-.73.25-1.1Z"/>
    <path class="cls-7" d="m378.16,1.79c4.85,0,9.7.02,14.55.03-.63.92-1.25,1.84-1.88,2.76-4.77,0-9.54-.01-14.31-.02.19-.56.37-1.12.56-1.68,1.41-.32.87-.72,1.09-1.09Z"/>
    <path class="cls-2" d="m37.27,9.69c-4.27.12-7.93.79-12.66.57-3.54-.16-6.96-.28-8.54-1.09,1.36-.02,2.73-.03,4.09-.05.9,0,1.8,0,2.69,0,9.57.23,15.45-1.14,21.89-2.26,2.09.02,4.18.03,6.27.05-.88.27-1.76.53-2.64.8-.39.18-.77.36-1.16.54-3.78.33-7.87.58-9.94,1.44Z"/>
    <path class="cls-7" d="m234,1.78c4.1,0,8.2,0,12.3,0-1.19,1.1-7.13,1.58-7.95,2.72-5.03.07-10.07.25-15.04-.09,2.76-1.02,8.29-1.54,10.68-2.63Z"/>
    <path class="cls-7" d="m204.32,1.79c4.53,0,9.06,0,13.59,0-1.51,1.13-7.8,1.53-9.18,2.68-4.89.04-9.77.08-14.66.11,2.31-1.11,8.74-1.55,10.26-2.8Z"/>
    <path class="cls-7" d="m349.64,1.8c4.09,0,8.18-.02,12.27-.03.76.98-2.97,1.8-2.4,2.77-4.59,0-9.23.24-13.72-.16-.22-.54,0-1.05,1.52-1.51,2.19-.22,2.42-.63,2.33-1.08Z"/>
    <path class="cls-3" d="m420.6,4.58c.08-.19.25-.37.23-.56-.1-1.12-1.37-2.32,7.56-2.11,7.02.17,7.55.18,7.59,2.25,0,.14.02.28.03.42-5.14,0-10.27,0-15.41,0Z"/>
    <path class="cls-2" d="m61.93,9.99c-3.88,0-7.76-.01-11.65-.02-.19-.26-.38-.52-.56-.78,11.03.28,19.53-.76,26.98-2.33,2.19.01,4.38.03,6.57.04-.25.23-.5.47-.74.7-.26,0-.44.02-.54.07-2.28.28-.96.82-1.95,1.19-.83-.6-1.91-.82-4.95-.39-4.16.58-7.69,1.44-13.16,1.52Z"/>
    <path class="cls-7" d="m176.09,1.8c4.12,0,8.25,0,12.37,0-.3.57-2.72.82-4.09,1.23-1.87.56-6.13.64-6.49,1.48-4.32,0-8.65.02-12.96.03,2-1.23,8.65-1.61,11.17-2.74Z"/>
    <path class="cls-7" d="m262.24,1.8c4.55,0,9.1.01,13.65.02-1.42,1.04-6.62,1.61-7.62,2.71-4.64.01-9.27.03-13.91.04,1.66-.56,3.33-1.13,4.99-1.7,1.92-.24,2.7-.62,2.89-1.07Z"/>
    <path class="cls-7" d="m118.29,1.78c4.09,0,8.19.01,12.28.02-.23.62-2.88.76-4.68,1.08-2.92.51-6.85.8-8.39,1.63-4.46,0-8.92.01-13.37.02,1.91-.45,3.82-.91,5.72-1.36,2.95-.43,7.07-.54,8.44-1.39Z"/>
    <path class="cls-7" d="m320.27,1.78c4.45,0,8.9,0,13.35,0-1.57.91-3.13,1.82-4.7,2.73-4.53.12-9.06.11-13.58,0,.99-.55,1.97-1.1,2.96-1.65,2.15-.24,1.8-.69,1.97-1.09Z"/>
    <path class="cls-7" d="m291.56,1.82c3.76-.02,7.52-.03,11.27-.05,1.15,1.06-3.55,1.76-3.83,2.74-4.67.02-9.35.03-14.02.05,1.26-.56,2.51-1.12,3.77-1.68,2.02-.22,2.65-.61,2.81-1.06Z"/>
    <path class="cls-7" d="m88.81,1.8c4.47.01,8.94.02,13.4.03-1.37.52-4,.73-6,1.1-3.09.57-7.7.71-9.65,1.58-4.45,0-8.91.02-13.35.03.85-.26,1.7-.53,2.54-.79,4.96-.47,10.3-.82,13.05-1.95Z"/>
    <path class="cls-7" d="m146.77,1.76c4.05,0,8.1.02,12.15.03-.23.63-2.79.89-4.48,1.29-2.24.53-6.3.64-7.41,1.43-4.32.02-8.65.04-12.97.06,2.65-1.26,10.25-1.51,12.71-2.81Z"/>
    <path class="cls-2" d="m99.39,9.68c-5.14.55-10.67.19-15.99.31-.05-.25-.09-.5-.14-.74,1.35-.05,2.69-.09,4.04-.14,2.34.04,4.7.13,6.95-.11.9-.14,1.8-.28,2.7-.42v.02c4.21-.42,8.08-.93,10.9-1.74,2.54.01,5.09.02,7.63.03.12.39-1.85.51-2.39.82-.17.38-.34.77-.51,1.15-.99-.55-1.84-1.1-5.29-.45-2.47.46-5.25.84-7.9,1.26Z"/>
    <path class="cls-7" d="m60.17,1.81c4.58,0,9.16,0,13.74-.01-1.43.52-4.1.7-6.2,1.03-3.59.57-8.53.76-10.89,1.69-4.36.12-8.72.12-13.07,0,1.37-.6,4.15-.81,6.58-1.14,3.47-.47,7.82-.71,9.84-1.58Z"/>
    <path class="cls-3" d="m575.34,1.84c2.76.9,5.52,1.81,8.28,2.71-4.18.01-8.36.03-12.55.04.08-1.07-6.31-1.62-5.05-2.79,3.1.01,6.21.03,9.31.04Z"/>
    <path class="cls-3" d="m511.32,4.59c-.4-.31-.67-.64-1.21-.94-.99-.55-3.43-1.25.18-1.58,3.5-.32,8.04-.4,10.48.57,1.54.62,3.43,1.21,3.9,1.93-4.45,0-8.9,0-13.34.01Z"/>
    <path class="cls-1" d="m27.11,4.51c2.78-.97,7.95-1.2,12.03-1.77,2.19-.31,4.32-.63,6.48-.94,3.78,0,7.56-.02,11.34-.03-5.6,1.29-14.01,1.64-20.24,2.72-3.2,0-6.4.02-9.61.02Z"/>
    <path class="cls-1" d="m56.82,4.52c2.36-.93,7.3-1.11,10.89-1.69,2.1-.34,4.78-.52,6.2-1.03,3.72-.01,7.44-.03,11.16-.04-3.11.96-9.11,1.1-12.44,2-2.55.07-4.26.45-6.21.74-3.2,0-6.4.02-9.6.03Z"/>
    <path class="cls-1" d="m86.57,4.51c1.95-.87,6.57-1.02,9.65-1.58,2-.37,4.63-.58,6-1.1,3.68-.03,7.35-.05,11.03-.08-2.45.47-4.89.95-7.34,1.42-3.46.22-6.3.65-8.94,1.15-3.37.3-6.88.26-10.4.2Z"/>
    <path class="cls-3" d="m541.56,4.59c-.68-.35-1.29-.7-2.05-1.04-1.13-.51-3.15-1.13-.02-1.48,2.58-.29,6.03-.29,8.5.33,2.61.65,4.85,1.34,6.12,2.16-4.18,0-8.37.01-12.55.02Z"/>
    <path class="cls-7" d="m790.71,8.62c-2.09-.23-4.19-.47-6.28-.7-1.1-.33-2.21-.66-3.31-.99,8.4-.08,16.81-.16,25.21.01.27.15.54.31.81.46-5.25.54-11.97.19-16.43,1.21Z"/>
    <path class="cls-1" d="m117.5,4.51c1.54-.83,5.47-1.12,8.39-1.63,1.8-.32,4.45-.46,4.68-1.08,3.22-.02,6.44-.03,9.66-.05-3.44,1.28-10.43,1.7-14.83,2.75-2.63,0-5.27.01-7.9.02Z"/>
    <path class="cls-2" d="m204.32,1.79c-1.52,1.24-7.95,1.68-10.26,2.8-3.11.03-6.33.23-9.13-.25,3.65-.93,8.88-1.53,11.97-2.58,2.47.01,4.95.02,7.42.03Z"/>
    <path class="cls-3" d="m662.39,4.56c-2.15-1.08-8.55-1.49-9.62-2.73,2.08,0,4.16,0,6.24,0,4.09.91,8.19,1.81,12.28,2.72-2.97,0-5.94,0-8.91.01Z"/>
    <path class="cls-1" d="m147.02,4.51c1.11-.79,5.17-.9,7.41-1.43,1.69-.4,4.25-.67,4.48-1.29,3.59-.01,7.17-.03,10.75-.04-4.68.86-9.36,1.71-14.04,2.57-2.73.33-5.68.24-8.6.19Z"/>
    <path class="cls-2" d="m390.83,4.57c.63-.92,1.26-1.84,1.88-2.76,3.8-.01,7.6-.02,11.41-.04,1.43.28,2.94.56,2.28,1.05-2.43.01-4.85.04-7.28.03-3.27-.02-4.3.44-4.37.99-.09.67,2.63.47,4.41.51,2.44.05,4.85,0,7.1-.24.17.16.33.32.51.48-5.31.14-10.62.11-15.93-.01Z"/>
    <path class="cls-2" d="m155.62,4.32c4.68-.86,9.36-1.71,14.04-2.57,2.14.02,4.29.03,6.43.05-2.52,1.13-9.17,1.51-11.17,2.74-3.18.07-6.44.31-9.3-.22Z"/>
    <path class="cls-1" d="m76.7,6.86c-7.45,1.57-15.95,2.61-26.98,2.33-2.68-.09-2.15-.57-2.51-.94.39-.18.77-.36,1.16-.54.42.01.85.03,1.27.04-.17.74,1.01,1.15,4.99,1.12,3.82-.03,7.44-.01,7.33-1.13,1.53-.19,2.6-.45,2.83-.83,3.97-.01,7.95-.03,11.92-.04Z"/>
    <path class="cls-2" d="m234,1.78c-2.39,1.09-7.92,1.6-10.68,2.63-2.98.21-5.95.38-8.8-.07,3.18-.92,8.14-1.51,10.48-2.58,3,.01,6,.02,9,.03Z"/>
    <path class="cls-2" d="m378.16,1.79c-.22.37.32.77-1.09,1.09-10.64-.07-10.71-.06-11.26,1.72-1.73-.01-3.46-.03-5.19-.04,1.44-.93,2.88-1.86,4.32-2.8,4.41.01,8.81.02,13.22.03Z"/>
    <path class="cls-8" d="m463.9,2.89c1.64.5,1.46,1.09,1.65,1.66-4.49,0-8.98,0-13.47,0-1.29-1.37,1.35-1.92,7.82-1.7,1.31.04,2.66.03,3.99.04Z"/>
    <path class="cls-2" d="m291.56,1.82c-.16.44-.79.83-2.81,1.06-6.32-.21-8.37.72-10.28,1.7-2.01-.01-4.01-.03-6.02-.04,2.91-.93,5.81-1.87,8.71-2.8,3.47.03,6.93.06,10.4.08Z"/>
    <path class="cls-2" d="m349.64,1.8c.09.44-.13.86-2.33,1.08-6.16-.15-10.69.18-11.06,1.71-1.57-.02-3.14-.03-4.7-.05,1.67-.93,3.33-1.85,4.99-2.78l13.09.05Z"/>
    <path class="cls-2" d="m320.27,1.78c-.17.4.18.85-1.97,1.09-6.23-.18-10.19.25-10.27,1.71-1.93-.02-3.87-.04-5.8-.06,1.7-.96,5.45-1.71,6.29-2.76,3.92,0,7.83.01,11.75.02Z"/>
    <path class="cls-6" d="m125.4,4.5c4.4-1.05,11.39-1.47,14.83-2.75,2.18,0,4.36,0,6.53,0-2.46,1.29-10.05,1.55-12.71,2.81-2.89-.02-5.77-.05-8.66-.07Z"/>
    <path class="cls-2" d="m480.92,4.58c-1.06-.92-2.56-1.83-2.19-2.81,4.24,0,8.49,0,12.74,0-.04.33-.09.65-.14.98-1.96.03-3.92.07-5.88.1-1.52.03-3.36,0-3.62.42-.24.38.49.85,2.21.92,3.64.16,7.84.56,10.35-.48.3.29.59.57.89.86-4.78.15-9.57.12-14.35,0Z"/>
    <path class="cls-2" d="m262.24,1.8c-.19.45-.97.83-2.89,1.07-5.2.05-7.64.76-9.15,1.7-2.23-.01-4.46-.03-6.67-.04,1.95-1.11,7.55-1.67,9.46-2.78,3.08.02,6.17.03,9.25.05Z"/>
    <path class="cls-7" d="m836.86,7.14c.16.22.63.59-.88.54-5.02-.16-8.54.42-12.2.97,0,0-.17-.03-.17-.03-.55-.41-1.79-.61-3.83-.58,0,0-.1.05-.11.05-1.03-.39-2.95-.66-3.04-1.16,6.74.07,13.6-.36,20.22.22Z"/>
    <path class="cls-2" d="m463.9,2.89c-1.33-.01-2.68,0-3.99-.04-6.48-.22-9.12.34-7.82,1.7-.81,0-1.61,0-2.41,0-.08-.92-.17-1.83-.26-2.75,4.91,0,9.83,0,14.74,0-.08.37-.17.73-.25,1.1Z"/>
    <path class="cls-2" d="m722.42,4.59c-2.76-1.18-10.21-1.45-12.17-2.79,1.84,0,3.69,0,5.53.01,3.74,1.11,10.91,1.45,13.73,2.76-2.36,0-4.72,0-7.09.01Z"/>
    <path class="cls-1" d="m196.9,1.76c-3.09,1.05-8.32,1.65-11.97,2.58-2.24.27-4.65.21-7.05.17.37-.84,4.63-.92,6.49-1.48,1.37-.41,3.78-.66,4.09-1.23,2.82-.01,5.63-.02,8.44-.04Z"/>
    <path class="cls-2" d="m752.62,4.54c-2.55-.91-7.45-1.24-10.89-1.93-1.25-.25-2.93-.41-3.27-.81,1.8.01,3.61.02,5.42.03,4.34,1.15,11.92,1.45,15.86,2.7-2.37.1-4.75.15-7.12,0Z"/>
    <path class="cls-7" d="m772.77,6.93c.49.24.99.48,1.48.72-4.58.24-9.31-.05-14.08.41-3.12.3-5.78-.88-9.69-.93-.36-.07-.71-.13-1.07-.2,7.79,0,15.58,0,23.37,0Z"/>
    <path class="cls-1" d="m44.75,6.87c-6.44,1.13-12.32,2.49-21.89,2.26,1.7-.59,7.28-.33,6.78-1.4,1.32-.28,2.65-.56,3.97-.84,3.71,0,7.42-.02,11.14-.03Z"/>
    <path class="cls-1" d="m225,1.75c-2.34,1.07-7.3,1.66-10.48,2.58-1.83.24-3.78.24-5.79.14,1.38-1.15,7.67-1.55,9.19-2.68,2.36-.01,4.72-.03,7.08-.04Z"/>
    <path class="cls-2" d="m812.04,4.5c-2.11-.95-6.84-1.16-10.53-1.66-2.19-.3-5.1-.39-5.98-1.03,1.58.01,3.15.02,4.73.03,5.21,1.22,13.68,1.42,18.76,2.68-2.34.14-4.66.05-6.97-.03Z"/>
    <path class="cls-2" d="m782.92,4.57c-2.67-.84-7.36-1.13-10.77-1.76-1.74-.33-4.52-.42-5.09-1.01,1.67,0,3.33.02,4.99.03,4.69,1.16,12.43,1.49,16.77,2.75-1.97,0-3.94,0-5.91,0Z"/>
    <path class="cls-7" d="m629.62,8.28c-.44-.61-2.04-1-4.95-1.13-.26-.06-.43-.13-.51-.21,7.15,0,14.29-.01,21.44-.02.01.27.02.53.04.79-5.45.05-11.08-.12-16.01.57Z"/>
    <path class="cls-8" d="m602.03,4.54c-.41-.7-4.62-.93-4.6-1.68,2.8-.03,5.59-.05,8.39-.08,2.68.51,5.16,1.05,6.53,1.78-3.44,0-6.88-.02-10.31-.03Z"/>
    <path class="cls-1" d="m252.99,1.75c-1.91,1.12-7.5,1.67-9.46,2.78-1.74,0-3.46-.02-5.19-.02.82-1.15,6.76-1.63,7.95-2.72,2.23-.01,4.46-.02,6.69-.04Z"/>
    <path class="cls-8" d="m632.28,4.57c-.68-.73-4.98-.94-5.5-1.7,2.09-.02,4.28.05,5.86-.35,3.25.62,6.97,1.15,8.96,2.02-3.1.01-6.21.02-9.31.04Z"/>
    <path class="cls-8" d="m365.81,4.59c.56-1.78.62-1.79,11.26-1.72-.18.56-.37,1.12-.56,1.68-3.57.01-7.14.03-10.71.04Z"/>
    <path class="cls-7" d="m598.64,8.29c-.45-.09-.9-.19-1.35-.28-.58-.09-1.16-.18-1.74-.27-.75-.27-1.49-.53-2.24-.8,6.67,0,13.34-.02,20.01-.03,0,.27,0,.53,0,.8-4.89.2-10.52-.43-14.7.58Z"/>
    <path class="cls-2" d="m36.71,4.49c6.24-1.08,14.64-1.43,20.24-2.72,1.08.01,2.15.02,3.21.04-2.03.87-6.38,1.11-9.85,1.58-2.44.33-5.21.54-6.58,1.14-2.36.1-4.7.11-7.03-.03Z"/>
    <path class="cls-1" d="m281.16,1.73c-2.9.93-5.8,1.87-8.71,2.8-1.4,0-2.8-.01-4.19-.02,1.01-1.1,6.21-1.66,7.63-2.71,1.76-.03,3.51-.05,5.27-.08Z"/>
    <path class="cls-3" d="m692.73,4.59c-1.24-.76-5.39-.99-6.98-1.7,1.39-.09,2.78-.17,4.17-.26,3.54.6,8.04.98,10.05,1.94-2.41,0-4.83.01-7.24.02Z"/>
    <path class="cls-7" d="m565.02,7.72c-.39-.27-.79-.53-1.18-.8,5.72,0,11.44,0,17.16-.01,0,.26.01.53.02.79-5.33,0-10.67.01-16,.02Z"/>
    <path class="cls-8" d="m308.02,4.59c.08-1.47,4.04-1.9,10.27-1.71-.99.55-1.97,1.1-2.96,1.65-2.44.02-4.88.05-7.31.07Z"/>
    <path class="cls-7" d="m549.45,7.21c-.18.16-.36.32-.54.48-5.44.02-10.89.03-16.33.05,0,0,.08,0,.08,0,.04-.27.09-.55.13-.82,5.35,0,10.7,0,16.04-.01.21.1.41.2.62.3Z"/>
    <path class="cls-8" d="m336.26,4.58c.37-1.53,4.9-1.85,11.06-1.71-1.52.46-1.74.97-1.52,1.51-3.32-.22-6.23.4-9.54.2Z"/>
    <path class="cls-1" d="m308.52,1.76c-.84,1.05-4.59,1.8-6.29,2.76-1.08,0-2.15,0-3.22-.01.28-.98,4.98-1.68,3.83-2.74,1.89,0,3.79,0,5.68,0Z"/>
    <path class="cls-1" d="m138.84,6.87c-3.14.92-7.44,1.54-12,2.09,0,0-.38-.1-.38-.1.03-.37.06-.74.09-1.11,1.5-.19,2.53-.45,2.7-.84,3.2-.01,6.39-.03,9.59-.04Z"/>
    <path class="cls-7" d="m451.6,7.73c-4.71-.01-9.42-.02-14.13-.03-.41-.26-.83-.53-1.24-.79,5.28,0,10.56,0,15.84,0-.16.28-.32.55-.47.83Z"/>
    <path class="cls-7" d="m224.58,7.7c-4.73,0-9.46,0-14.19,0,.36-.27.72-.53,1.09-.79,4.87,0,9.73,0,14.6,0-.5.26-1,.53-1.49.8Z"/>
    <path class="cls-7" d="m516.38,7.71c-3.52,0-7.03,0-10.55,0-2.7.01-4.17-.22-4.1-.81,4.95,0,9.91,0,14.86,0-.07.27-.14.54-.22.81Z"/>
    <path class="cls-7" d="m323.09,7.76c-4.78-.05-9.55-.09-14.33-.14.07-.23.15-.46.23-.69,5.18,0,10.36,0,15.54.01-.11.17-.22.34-.33.51-.43.1-.86.19-1.28.29l.18.02Z"/>
    <path class="cls-7" d="m193.78,7.15c-4.47,1.07-10.21.4-15.39.5.23-.25.46-.5.7-.75,4.9,0,9.81,0,14.71,0-.03.08-.04.16-.02.24Z"/>
    <path class="cls-7" d="m146.16,7.62c.31-.24.61-.48.93-.73,4.84,0,9.67.01,14.5.02-.54.26-1.08.52-1.63.78-4.45.01-8.89.02-13.34.03-.15-.04-.3-.07-.46-.11Z"/>
    <path class="cls-7" d="m676.93,6.9c.41.26.82.53,1.23.79-3.56,0-7.13.04-10.69.02-2.52-.02-4.91-.16-5.64-.79,5.02-.27,10.08.27,15.1-.02Z"/>
    <path class="cls-7" d="m129.25,6.91c-.17.38-1.2.65-2.7.84-4.1,0-8.19,0-12.29,0-.39-.02-.78-.02-1.17-.02.54-.31,2.51-.43,2.39-.82,4.59,0,9.18,0,13.76,0Z"/>
    <path class="cls-7" d="m419.41,7.71c-4.69-.02-9.45.11-13.99-.27-.13-.19-.26-.37-.39-.56,4.93,0,9.86.01,14.8.02-.14.27-.28.54-.42.81Z"/>
    <path class="cls-7" d="m49.64,7.76c-.42-.01-.85-.03-1.27-.04.88-.27,1.76-.54,2.64-.8,4.59,0,9.18,0,13.77,0-.22.39-1.3.65-2.83.83-4.11,0-8.21,0-12.31.01Z"/>
    <path class="cls-7" d="m386.09,6.9c.18.71-1.9.84-4.67.82-2.86-.02-5.72-.02-8.57-.02-.03-.27-.06-.53-.09-.8,4.45,0,8.89,0,13.34,0Z"/>
    <path class="cls-7" d="m290.49,6.93c-3.72,1.5-9.4.67-14.49.55.24-.19.47-.37.7-.56,4.59,0,9.19,0,13.79.01Z"/>
    <path class="cls-7" d="m33.61,6.9c-1.32.28-2.65.56-3.98.84-3.91-.04-7.82-.07-11.73-.11.28-.25.56-.5.84-.75,4.95,0,9.91.02,14.86.03Z"/>
    <path class="cls-7" d="m82.53,7.61c.25-.23.5-.47.75-.7,4.96,0,9.93,0,14.89,0-.04.07-.09.15-.14.22-4.66.89-10.15.59-15.5.48Z"/>
    <path class="cls-7" d="m258.22,6.92c-3.27,1.52-9.33.56-14.15.71.17-.24.33-.47.5-.71,4.55,0,9.1,0,13.65,0Z"/>
    <path class="cls-8" d="m278.47,4.58c1.91-.98,3.96-1.92,10.28-1.7-1.26.56-2.51,1.12-3.77,1.68-2.17,0-4.34.01-6.52.02Z"/>
    <path class="cls-6" d="m96.97,4.31c2.64-.5,5.48-.93,8.94-1.15,1.31,0,2.62,0,3.93,0-1.9.45-3.81.91-5.72,1.36-2.44,0-5.03.23-7.16-.22Z"/>
    <path class="cls-7" d="m353.82,6.9c-2.95,1.67-8.54.63-13.16.57.15-.18.29-.37.43-.55,4.24,0,8.49-.01,12.73-.02Z"/>
    <path class="cls-1" d="m98.03,7.13c.05-.07.1-.15.14-.22,3.23-.02,6.45-.03,9.68-.05-2.82.81-6.69,1.32-10.89,1.74.36-.49.71-.98,1.07-1.47Z"/>
    <path class="cls-1" d="m159.95,7.69c.54-.26,1.08-.52,1.63-.78,2.76-.01,5.52-.03,8.29-.04-2.01.85-5.7,1.32-9.16,1.85-.22-.05-.44-.1-.65-.15-.03-.29-.07-.58-.1-.87Z"/>
    <path class="cls-1" d="m336.55,1.75c-1.66.93-3.32,1.86-4.99,2.78-.89,0-1.77-.01-2.64-.02,1.57-.91,3.14-1.82,4.7-2.73.98,0,1.95-.02,2.93-.03Z"/>
    <path class="cls-8" d="m250.21,4.57c1.51-.94,3.95-1.65,9.15-1.7-1.67.56-3.33,1.13-4.99,1.69-1.38,0-2.77,0-4.15,0Z"/>
    <path class="cls-1" d="m364.95,1.76c-1.44.93-2.88,1.86-4.32,2.8,0,0-.56,0-.56,0,0,0-.56-.01-.56-.01-.57-.98,3.16-1.79,2.4-2.77,1.01,0,2.02-.01,3.04-.02Z"/>
    <path class="cls-1" d="m193.78,7.15c-.01-.08,0-.16.02-.24,2.66-.02,5.31-.03,7.97-.05-1.84.48-3.19,1.08-6.56,1.17-.23-.31-.11-.65-1.43-.88Z"/>
    <path class="cls-4" d="m816.64,6.92c.09.49,2.01.77,3.04,1.16-4.19-.06-7.31-.52-9.86-1.19,2.27,0,4.55.02,6.82.03Z"/>
    <path class="cls-6" d="m66.42,4.49c1.95-.29,3.67-.67,6.21-.74,1.04,0,2.08,0,3.13,0-.84.26-1.69.53-2.54.79-2.27-.02-4.54-.03-6.8-.05Z"/>
    <path class="cls-1" d="m224.58,7.7c.5-.27,1-.53,1.49-.8,1.93,0,3.86-.02,5.79-.03-.99.66-3.35,1.09-5.68,1.52-.53-.23-1.07-.47-1.61-.7Z"/>
    <path class="cls-6" d="m18.75,6.87c-.28.25-.56.5-.84.76-.26,0-.51,0-.73.04-.8.01-1.6.02-2.4.04-.46-.11-.92-.22-1.38-.34.05-.17.11-.34.17-.5,1.73,0,3.45,0,5.18,0Z"/>
    <path class="cls-2" d="m549.45,7.21c-.21-.1-.41-.2-.62-.3,4.38,0,8.77,0,13.15,0-.15.1-.3.2-.46.3-4.03,0-8.05,0-12.07,0Z"/>
    <path class="cls-4" d="m532.79,6.92c-.04.27-.09.55-.13.82-.9-.28-1.81-.56-2.71-.84.95,0,1.89.01,2.84.02Z"/>
    <path class="cls-2" d="m605.82,2.78c-2.8.03-5.59.05-8.39.08-2.14-.22-2.99-.59-2.86-1.07,3.39-.05,6.78-.13,10.1.1.38.3.76.6,1.14.89Z"/>
    <path class="cls-2" d="m75.76,3.75c-1.04,0-2.08,0-3.13,0,3.32-.89,9.33-1.04,12.43-2,1.25.01,2.5.03,3.75.05-2.75,1.13-8.09,1.48-13.05,1.95Z"/>
    <path class="cls-2" d="m632.64,2.52c-1.57.4-3.77.34-5.86.35-2.68-.12-3.27-.56-3.56-1.04,2.93-.12,5.86-.12,8.79.01.21.22.42.45.63.67Z"/>
    <path class="cls-2" d="m109.84,3.17c-1.31,0-2.62,0-3.93,0,2.44-.47,4.89-.95,7.34-1.42,1.68.01,3.36.02,5.04.03-1.37.85-5.5.96-8.44,1.39Z"/>
    <path class="cls-2" d="m689.93,2.63c-1.39.09-2.78.17-4.17.26-2.64-.16-4.46-.5-4.98-1.09,2.57.01,5.14.02,7.71.03.48.27.97.53,1.45.8Z"/>
    <path class="cls-8" d="m83.26,9.25c.05.25.09.5.14.74-7.15.46-14.31.48-21.47,0,5.47-.08,9-.94,13.16-1.52,3.04-.42,4.13-.2,4.95.39.67.28,2.03.3,3.22.38Z"/>
    <path class="cls-8" d="m99.39,9.68c2.64-.42,5.43-.8,7.9-1.26,3.45-.64,4.3-.1,5.29.45.58.1,1.15.2,1.73.29.48.27.95.54,1.43.82-5.44-.13-11.12.35-16.35-.3Z"/>
    <path class="cls-8" d="m47.21,8.25c.36.37-.17.85,2.51.94.19.26.37.52.56.78-4.43.1-8.76-.01-13.01-.28,2.07-.86,6.15-1.11,9.94-1.44Z"/>
    <path class="cls-1" d="m14.79,7.71c.8-.01,1.6-.02,2.4-.04.11.57.54,1.1,2.97,1.46-1.36.02-2.73.03-4.09.05-1.2-.11-1.33-.35-1.55-.58.09-.3.17-.59.26-.89Z"/>
    <path class="cls-4" d="m790.71,8.62c4.46-1.02,11.18-.67,16.43-1.21,3.93.19,2.85.87,2.48,1.36-.4.54-3.01.44-4.95.46-4.66.04-9.31.03-13.7-.37-.14-.08-.22-.16-.26-.24Z"/>
    <path class="cls-4" d="m819.78,8.03c2.04-.03,3.28.18,3.83.58-1.97,0-3.34-.16-3.83-.58Z"/>
    <path class="cls-4" d="m322.91,7.74c.43-.1.86-.19,1.28-.29-.43.1-.86.19-1.28.29Z"/>
    <path class="cls-1" d="m114.31,9.17c-.58-.1-1.15-.2-1.73-.29.17-.38.34-.77.51-1.15.39,0,.78,0,1.17.02-.37.86,1.45,1.21,5.5,1.13,2.21-.04,4.46-.01,6.69-.01,0,0,.38.1.38.1-4.06.37-8.38.07-12.53.21Z"/>
    <path class="cls-1" d="m188.51,9.08c1.51-.29,3.2-.49,5.32-.49-1.09.49-3.02.58-5.32.49Z"/>
    <path class="cls-1" d="m193.79,8.59c-.03-.24.26-.46,1.37-.58.33.28-.4.44-1.37.58Z"/>
    <path class="cls-7" d="m439.9,9.05c.42.01.84.02,1.26.03,0,0-.65,0-.65,0l-.62-.04Z"/>
    <path class="cls-7" d="m451,9.02s.41-.09.41-.08c0,0-.07.07-.07.07h-.33Z"/>
    <path class="cls-4" d="m159.95,7.69c.03.29.07.58.1.87-2.56.34-5.44.26-8.26.31-4.1.06-5.57-.34-5.18-1.15,4.45-.01,8.89-.02,13.34-.03Z"/>
    <path class="cls-8" d="m494.39,3.72c-2.51,1.04-6.71.64-10.35.48-1.72-.08-2.44-.54-2.21-.92.26-.42,2.1-.4,3.62-.42,1.96-.03,3.92-.07,5.88-.1,1.72.22,2.37.6,3.05.97Z"/>
    <path class="cls-8" d="m406.25,4.11c-2.25.24-4.65.29-7.1.24-1.78-.04-4.5.16-4.41-.51.08-.54,1.1-1,4.37-.99,2.42.01,4.85-.02,7.28-.03-.05.43-.1.85-.15,1.28Z"/>
    <path class="cls-4" d="m20.16,9.13c-2.43-.35-2.86-.89-2.97-1.46.22-.03.46-.05.73-.04,3.9.04,7.81.07,11.72.11.5,1.06-5.08.81-6.78,1.4-.9,0-1.8,0-2.69,0Z"/>
    <path class="cls-4" d="m98.03,7.13c-.36.49-.71.98-1.07,1.47,0,0,0-.02,0-.02-1.35,0-2.37.11-2.7.42-2.25.24-4.61.15-6.95.11-3.08-.26-6.26-.5-5.31-1.43.1-.05.28-.08.54-.07,5.34.11,10.83.42,15.49-.48Z"/>
    <path class="cls-1" d="m82,7.68c-.96.93,2.23,1.17,5.31,1.43-1.35.05-2.69.09-4.04.14-1.19-.08-2.55-.1-3.22-.38.99-.37-.33-.91,1.95-1.19Z"/>
    <path class="cls-1" d="m94.25,9c.33-.3,1.35-.41,2.7-.42-.9.14-1.8.28-2.7.42Z"/>
    <path class="cls-4" d="m49.64,7.76c4.1,0,8.21,0,12.31-.01.12,1.12-3.51,1.1-7.33,1.13-3.98.03-5.15-.38-4.99-1.12Z"/>
    <path class="cls-4" d="m126.45,8.86c-2.23,0-4.48-.03-6.69.01-4.05.08-5.87-.27-5.5-1.13,4.09,0,8.19,0,12.29,0-.03.37-.06.74-.09,1.11Z"/>
  </g>
</svg>